<svg width="141" height="32" viewBox="0 0 141 32" fill="none" xmlns="http://www.w3.org/2000/svg">
<path d="M10.653 17.46H3.865C1.697 17.46 0 19.16 0 21.332V28.129C0 30.299 1.697 31.999 3.865 31.999H10.653C12.822 31.999 14.519 30.299 14.519 28.129V21.33C14.519 19.159 12.727 17.46 10.653 17.46ZM12.162 28.033C12.162 28.883 11.502 29.543 10.653 29.543H3.865C3.66613 29.5454 3.46878 29.508 3.2846 29.433C3.10041 29.3579 2.93312 29.2468 2.79258 29.106C2.65204 28.9653 2.54109 28.7979 2.46628 28.6136C2.39147 28.4293 2.35432 28.2319 2.357 28.033V21.237C2.357 20.387 3.017 19.727 3.865 19.727H10.653C11.502 19.727 12.162 20.387 12.162 21.237V28.033Z" fill="black"/>
<path d="M28.095 11.988H19.987V3.87C19.892 1.7 18.196 0 16.027 0H3.865C1.697 0 0 1.7 0 3.87V10.478C0 12.649 1.697 14.348 3.865 14.348H17.535V28.035C17.535 30.206 19.233 31.905 21.401 31.905H28.001C30.169 31.905 31.866 30.206 31.866 28.035V15.858C31.866 13.782 30.169 12.083 28.095 11.988ZM3.865 11.988C3.66613 11.9904 3.46878 11.953 3.2846 11.8779C3.10041 11.8029 2.93312 11.6917 2.79258 11.551C2.65204 11.4103 2.54109 11.2428 2.46628 11.0585C2.39147 10.8743 2.35432 10.6769 2.357 10.478V3.87C2.357 3.02 3.017 2.36 3.865 2.36H16.027C16.876 2.36 17.536 3.02 17.536 3.87V11.988H3.865ZM29.603 28.035C29.603 28.885 28.943 29.545 28.095 29.545H21.495C21.2961 29.5474 21.0988 29.51 20.9146 29.4349C20.7304 29.3599 20.5631 29.2487 20.4226 29.108C20.282 28.9673 20.1711 28.7998 20.0963 28.6155C20.0215 28.4313 19.9843 28.2339 19.987 28.035V14.348H28.095C28.943 14.348 29.603 15.008 29.603 15.858V28.035ZM79.194 17.462L76.177 9.344H72.877L77.591 20.671L75.045 26.524H78.157L85.322 9.344H82.21L79.194 17.462ZM93.335 14.819C92.675 14.535 91.921 14.347 91.26 14.158C90.6 13.969 90.035 13.78 89.47 13.498C89.092 13.308 88.904 13.025 88.904 12.648C88.904 12.27 89.092 11.987 89.376 11.798C90.223 11.326 91.166 11.42 92.015 11.892C92.392 12.176 92.581 12.553 92.581 13.025H95.409C95.409 11.892 94.843 10.854 93.995 10.193C93.052 9.438 91.826 9.06 90.695 9.155C89.846 9.155 88.998 9.249 88.245 9.627C87.585 9.91 87.018 10.287 86.641 10.854C86.264 11.326 86.076 11.987 86.076 12.648C86.076 13.308 86.264 13.969 86.641 14.535C87.018 15.007 87.49 15.385 88.055 15.574C88.715 15.857 89.469 16.046 90.223 16.234C90.883 16.424 91.449 16.612 92.109 16.895C92.486 17.085 92.675 17.367 92.675 17.745C92.675 18.122 92.486 18.405 92.204 18.595C91.827 18.878 91.354 18.972 90.884 18.972C90.412 18.972 89.846 18.878 89.469 18.5C89.092 18.217 88.904 17.84 88.809 17.367H85.887C85.887 18.122 86.169 18.783 86.641 19.349C87.113 19.916 87.772 20.482 88.432 20.765C89.281 21.143 90.13 21.332 90.978 21.332C91.827 21.332 92.675 21.237 93.428 20.86C94.089 20.577 94.655 20.2 95.032 19.633C95.409 19.066 95.597 18.5 95.597 17.839C95.597 17.179 95.409 16.518 94.937 15.951C94.372 15.291 93.9 15.007 93.335 14.819ZM102.575 11.702C103.141 11.702 103.611 11.797 104.083 12.174C104.46 12.457 104.743 12.929 104.932 13.401H108.137C107.87 12.209 107.205 11.1437 106.251 10.381C105.22 9.61606 103.949 9.24728 102.669 9.342C101.632 9.342 100.595 9.626 99.652 10.097C98.7849 10.5881 98.0679 11.3061 97.578 12.174C97.1124 13.1633 96.871 14.2431 96.871 15.3365C96.871 16.4299 97.1124 17.5097 97.578 18.499C98.05 19.349 98.709 20.103 99.652 20.575C100.595 21.047 101.632 21.331 102.669 21.331C103.989 21.331 105.215 20.953 106.251 20.198C107.205 19.4353 107.87 18.37 108.137 17.178H105.026C104.743 18.215 103.706 18.876 102.669 18.782C101.915 18.782 101.16 18.499 100.689 17.838C100.226 17.0512 99.9819 16.1549 99.9819 15.242C99.9819 14.3291 100.226 13.4328 100.689 12.646C100.876 12.3212 101.155 12.0586 101.49 11.8908C101.826 11.723 102.203 11.6573 102.575 11.702ZM118.412 10.1C118.406 10.198 118.364 10.2904 118.295 10.3599C118.225 10.4294 118.133 10.4714 118.035 10.478C117.941 10.478 117.847 10.478 117.847 10.383C117.572 10.1106 117.253 9.8874 116.903 9.723C116.244 9.345 115.396 9.156 114.641 9.156C113.698 9.156 112.756 9.439 111.907 9.911C111.072 10.3825 110.411 11.1109 110.022 11.988C109.55 12.932 109.268 14.065 109.268 15.103C109.268 16.236 109.456 17.274 110.022 18.313C110.398 19.163 111.059 19.917 111.907 20.483C112.756 20.956 113.604 21.239 114.547 21.239C115.301 21.239 116.15 21.05 116.81 20.672C117.469 20.389 117.941 19.917 118.412 19.351V21.05H121.335V9.345H118.412V10.1ZM118.035 16.991C117.752 17.463 117.375 17.935 116.903 18.218C116.433 18.501 115.866 18.596 115.396 18.596C114.829 18.596 114.359 18.407 113.887 18.218C113.415 17.935 113.038 17.463 112.756 16.991C112.473 16.425 112.284 15.764 112.284 15.198C112.284 14.537 112.378 13.97 112.756 13.404C113.604 11.894 115.396 11.422 116.903 12.177H116.998C117.469 12.46 117.847 12.837 118.129 13.404C118.601 14.537 118.601 15.858 118.035 16.991ZM55.907 10.1C55.9005 10.1979 55.8587 10.2902 55.7894 10.3597C55.7201 10.4292 55.6279 10.4712 55.53 10.478C55.435 10.478 55.34 10.478 55.34 10.383C55.066 10.1109 54.7474 9.88763 54.398 9.723C53.738 9.345 52.89 9.156 52.135 9.156C51.193 9.156 50.25 9.439 49.402 9.911C48.5664 10.3826 47.9051 11.1109 47.516 11.988C47.045 12.932 46.762 14.065 46.762 15.103C46.762 16.236 46.95 17.274 47.516 18.313C47.893 19.163 48.553 19.917 49.402 20.483C50.25 20.956 51.099 21.239 52.042 21.239C52.795 21.239 53.644 21.05 54.304 20.672C54.964 20.389 55.435 19.917 55.907 19.351V21.05H58.829V9.345H55.907V10.1ZM55.435 16.991C55.152 17.463 54.775 17.935 54.304 18.218C53.833 18.501 53.267 18.596 52.795 18.596C52.23 18.596 51.758 18.407 51.287 18.218C50.816 17.935 50.438 17.463 50.156 16.991C49.873 16.425 49.684 15.764 49.684 15.198C49.684 14.537 49.779 13.97 50.156 13.404C51.004 11.894 52.796 11.422 54.304 12.177H54.398C54.869 12.46 55.247 12.837 55.529 13.404C56.001 14.537 56.001 15.858 55.435 16.991ZM126.708 5.477H123.785V21.052H126.708V5.477ZM140.191 14.914C140.191 13.876 140.002 12.837 139.436 11.894C138.965 11.044 138.305 10.289 137.362 9.911C136.425 9.44532 135.392 9.203 134.346 9.203C133.299 9.203 132.266 9.44532 131.329 9.911C130.461 10.4019 129.744 11.12 129.254 11.988C128.689 13.026 128.5 14.065 128.5 15.198C128.5 16.33 128.689 17.368 129.254 18.312C129.744 19.18 130.461 19.8981 131.329 20.389C132.271 20.861 133.308 21.144 134.345 21.144C135.583 21.1341 136.792 20.7742 137.834 20.106C138.777 19.445 139.436 18.406 139.719 17.368H136.703C136.326 18.312 135.382 18.878 134.345 18.784C133.686 18.784 132.931 18.501 132.46 18.029C131.894 17.557 131.612 16.802 131.612 16.047H140.096C140.191 15.669 140.191 15.292 140.191 14.914ZM131.612 14.064C131.705 13.309 131.989 12.649 132.554 12.177C133.12 11.705 133.78 11.516 134.44 11.516C135.194 11.516 135.854 11.705 136.419 12.176C136.985 12.649 137.268 13.309 137.268 13.97L131.612 14.064ZM67.692 9.159C67.0054 9.16981 66.3296 9.33092 65.712 9.631C65.335 9.819 64.958 10.008 64.675 10.291C64.6228 10.3367 64.5559 10.3619 64.4865 10.3619C64.4172 10.3619 64.3502 10.3367 64.298 10.291C64.204 10.197 64.204 10.197 64.204 10.103V9.347H61.28V21.052H64.203V14.634C64.109 13.879 64.391 13.124 64.957 12.463C65.428 11.991 66.183 11.707 66.843 11.707C67.503 11.707 68.257 11.991 68.728 12.462C69.2 13.029 69.482 13.784 69.388 14.634V21.052H72.311V14.162C72.405 12.84 72.028 11.518 71.085 10.48C70.237 9.63 68.918 9.064 67.692 9.159Z" fill="black"/>
</svg>
