<svg width="744" height="388" viewBox="0 0 744 388" fill="none" xmlns="http://www.w3.org/2000/svg">
<path d="M16.7823 366H2.11754L24.4624 301.273H42.098L64.4112 366H49.7464L33.533 316.064H33.0273L16.7823 366ZM15.8658 340.558H50.505V351.24H15.8658V340.558ZM71.949 366V317.455H84.7807V326.02H85.3496C86.361 323.175 88.0466 320.931 90.4064 319.288C92.7663 317.644 95.5897 316.822 98.8766 316.822C102.206 316.822 105.04 317.655 107.378 319.319C109.717 320.963 111.276 323.196 112.056 326.02H112.562C113.552 323.238 115.343 321.015 117.934 319.351C120.547 317.665 123.634 316.822 127.195 316.822C131.725 316.822 135.402 318.266 138.225 321.152C141.069 324.018 142.492 328.084 142.492 333.352V366H129.059V336.007C129.059 333.31 128.343 331.287 126.91 329.939C125.478 328.59 123.687 327.916 121.537 327.916C119.093 327.916 117.186 328.695 115.817 330.255C114.447 331.793 113.763 333.826 113.763 336.354V366H100.71V335.722C100.71 333.341 100.025 331.445 98.6554 330.033C97.3069 328.622 95.5265 327.916 93.3141 327.916C91.8181 327.916 90.4696 328.295 89.2686 329.054C88.0887 329.791 87.1511 330.834 86.4558 332.183C85.7605 333.51 85.4128 335.069 85.4128 336.86V366H71.949ZM166.97 366.917C163.873 366.917 161.112 366.379 158.689 365.305C156.266 364.209 154.349 362.597 152.937 360.469C151.547 358.32 150.851 355.644 150.851 352.441C150.851 349.744 151.346 347.479 152.337 345.646C153.327 343.813 154.675 342.338 156.382 341.222C158.089 340.105 160.027 339.262 162.197 338.693C164.389 338.124 166.685 337.724 169.087 337.492C171.911 337.197 174.186 336.923 175.914 336.67C177.642 336.397 178.895 335.996 179.675 335.469C180.455 334.943 180.844 334.163 180.844 333.131V332.941C180.844 330.939 180.212 329.391 178.948 328.295C177.705 327.199 175.935 326.652 173.638 326.652C171.215 326.652 169.288 327.189 167.855 328.263C166.422 329.317 165.474 330.644 165.01 332.246L152.558 331.234C153.19 328.285 154.433 325.735 156.287 323.586C158.141 321.416 160.533 319.751 163.462 318.592C166.411 317.412 169.825 316.822 173.702 316.822C176.399 316.822 178.98 317.138 181.445 317.771C183.931 318.403 186.133 319.382 188.05 320.71C189.989 322.037 191.516 323.744 192.633 325.83C193.75 327.895 194.308 330.371 194.308 333.257V366H181.54V359.268H181.161C180.381 360.785 179.338 362.123 178.032 363.282C176.725 364.42 175.156 365.315 173.322 365.968C171.489 366.6 169.372 366.917 166.97 366.917ZM170.826 357.625C172.806 357.625 174.555 357.235 176.072 356.455C177.589 355.655 178.78 354.58 179.643 353.232C180.507 351.883 180.939 350.355 180.939 348.649V343.497C180.518 343.771 179.938 344.024 179.201 344.256C178.485 344.466 177.673 344.667 176.767 344.856C175.861 345.025 174.955 345.183 174.049 345.33C173.143 345.457 172.322 345.573 171.584 345.678C170.004 345.91 168.624 346.278 167.444 346.784C166.264 347.29 165.347 347.975 164.694 348.838C164.041 349.681 163.714 350.735 163.714 351.999C163.714 353.832 164.378 355.233 165.706 356.202C167.054 357.151 168.761 357.625 170.826 357.625ZM204.501 366V357.972L228.268 328.548V328.2H205.323V317.455H244.481V326.209L222.168 354.907V355.254H245.303V366H204.501ZM276.142 366.948C271.232 366.948 266.987 365.905 263.405 363.819C259.844 361.712 257.094 358.783 255.156 355.033C253.218 351.261 252.248 346.889 252.248 341.917C252.248 336.902 253.218 332.52 255.156 328.769C257.094 324.998 259.844 322.069 263.405 319.983C266.987 317.876 271.232 316.822 276.142 316.822C281.051 316.822 285.286 317.876 288.847 319.983C292.429 322.069 295.189 324.998 297.128 328.769C299.066 332.52 300.035 336.902 300.035 341.917C300.035 346.889 299.066 351.261 297.128 355.033C295.189 358.783 292.429 361.712 288.847 363.819C285.286 365.905 281.051 366.948 276.142 366.948ZM276.205 356.518C278.438 356.518 280.303 355.886 281.799 354.622C283.295 353.337 284.422 351.588 285.181 349.376C285.96 347.163 286.35 344.645 286.35 341.822C286.35 338.999 285.96 336.481 285.181 334.268C284.422 332.056 283.295 330.307 281.799 329.022C280.303 327.737 278.438 327.094 276.205 327.094C273.95 327.094 272.054 327.737 270.516 329.022C268.999 330.307 267.851 332.056 267.071 334.268C266.313 336.481 265.933 338.999 265.933 341.822C265.933 344.645 266.313 347.163 267.071 349.376C267.851 351.588 268.999 353.337 270.516 354.622C272.054 355.886 273.95 356.518 276.205 356.518ZM322.254 337.935V366H308.79V317.455H321.622V326.02H322.19C323.265 323.196 325.066 320.963 327.595 319.319C330.123 317.655 333.189 316.822 336.792 316.822C340.163 316.822 343.102 317.56 345.61 319.035C348.117 320.51 350.066 322.617 351.457 325.356C352.847 328.074 353.543 331.319 353.543 335.09V366H340.079V337.492C340.1 334.521 339.341 332.204 337.803 330.539C336.265 328.853 334.148 328.011 331.451 328.011C329.639 328.011 328.037 328.4 326.647 329.18C325.277 329.96 324.203 331.097 323.423 332.593C322.665 334.068 322.275 335.849 322.254 337.935ZM382.54 312.556V301.273H435.7V312.556H415.884V366H402.357V312.556H382.54ZM459.286 366.948C454.292 366.948 449.994 365.937 446.391 363.914C442.809 361.87 440.049 358.984 438.11 355.254C436.172 351.504 435.202 347.069 435.202 341.949C435.202 336.955 436.172 332.572 438.11 328.801C440.049 325.029 442.777 322.09 446.296 319.983C449.836 317.876 453.986 316.822 458.748 316.822C461.951 316.822 464.932 317.339 467.692 318.371C470.474 319.382 472.897 320.91 474.962 322.954C477.048 324.998 478.67 327.568 479.829 330.665C480.988 333.742 481.567 337.345 481.567 341.474V345.172H440.575V336.828H468.893C468.893 334.89 468.472 333.173 467.629 331.677C466.786 330.181 465.617 329.011 464.121 328.169C462.646 327.305 460.929 326.873 458.969 326.873C456.926 326.873 455.114 327.347 453.533 328.295C451.974 329.222 450.752 330.476 449.867 332.056C448.982 333.615 448.529 335.354 448.508 337.271V345.204C448.508 347.606 448.951 349.681 449.836 351.43C450.742 353.179 452.016 354.527 453.66 355.475C455.303 356.424 457.252 356.898 459.507 356.898C461.003 356.898 462.372 356.687 463.615 356.266C464.859 355.844 465.923 355.212 466.808 354.369C467.692 353.527 468.367 352.494 468.83 351.272L481.283 352.094C480.651 355.086 479.355 357.698 477.395 359.932C475.457 362.144 472.949 363.872 469.873 365.115C466.818 366.337 463.289 366.948 459.286 366.948ZM500.736 317.455L509.648 334.426L518.782 317.455H532.594L518.529 341.727L532.973 366H519.225L509.648 349.218L500.23 366H486.324L500.736 341.727L486.829 317.455H500.736ZM566.411 317.455V327.568H537.176V317.455H566.411ZM543.813 305.824H557.277V351.082C557.277 352.326 557.467 353.295 557.846 353.99C558.225 354.664 558.752 355.138 559.426 355.412C560.122 355.686 560.922 355.823 561.828 355.823C562.46 355.823 563.093 355.77 563.725 355.665C564.357 355.539 564.841 355.444 565.178 355.381L567.296 365.4C566.622 365.61 565.674 365.853 564.452 366.126C563.229 366.421 561.744 366.6 559.995 366.664C556.75 366.79 553.906 366.358 551.462 365.368C549.039 364.378 547.153 362.839 545.805 360.754C544.456 358.668 543.792 356.034 543.813 352.852V305.824ZM575.181 366V317.455H588.234V325.925H588.74C589.625 322.912 591.11 320.636 593.196 319.098C595.282 317.539 597.684 316.759 600.402 316.759C601.077 316.759 601.804 316.801 602.583 316.886C603.363 316.97 604.047 317.086 604.637 317.233V329.18C604.005 328.99 603.131 328.822 602.014 328.674C600.897 328.527 599.876 328.453 598.949 328.453C596.968 328.453 595.198 328.885 593.639 329.749C592.101 330.592 590.879 331.772 589.973 333.289C589.088 334.806 588.645 336.555 588.645 338.535V366H575.181ZM624.051 366.917C620.954 366.917 618.193 366.379 615.77 365.305C613.347 364.209 611.43 362.597 610.018 360.469C608.628 358.32 607.932 355.644 607.932 352.441C607.932 349.744 608.427 347.479 609.418 345.646C610.408 343.813 611.756 342.338 613.463 341.222C615.17 340.105 617.108 339.262 619.278 338.693C621.47 338.124 623.766 337.724 626.168 337.492C628.992 337.197 631.267 336.923 632.995 336.67C634.723 336.397 635.977 335.996 636.756 335.469C637.536 334.943 637.926 334.163 637.926 333.131V332.941C637.926 330.939 637.293 329.391 636.029 328.295C634.786 327.199 633.016 326.652 630.72 326.652C628.296 326.652 626.369 327.189 624.936 328.263C623.503 329.317 622.555 330.644 622.091 332.246L609.639 331.234C610.271 328.285 611.514 325.735 613.368 323.586C615.223 321.416 617.614 319.751 620.543 318.592C623.493 317.412 626.906 316.822 630.783 316.822C633.48 316.822 636.061 317.138 638.526 317.771C641.012 318.403 643.214 319.382 645.131 320.71C647.07 322.037 648.598 323.744 649.714 325.83C650.831 327.895 651.389 330.371 651.389 333.257V366H638.621V359.268H638.242C637.462 360.785 636.419 362.123 635.113 363.282C633.806 364.42 632.237 365.315 630.403 365.968C628.57 366.6 626.453 366.917 624.051 366.917ZM627.907 357.625C629.887 357.625 631.636 357.235 633.153 356.455C634.67 355.655 635.861 354.58 636.725 353.232C637.588 351.883 638.02 350.355 638.02 348.649V343.497C637.599 343.771 637.02 344.024 636.282 344.256C635.566 344.466 634.754 344.667 633.848 344.856C632.942 345.025 632.036 345.183 631.13 345.33C630.224 345.457 629.403 345.573 628.665 345.678C627.085 345.91 625.705 346.278 624.525 346.784C623.345 347.29 622.428 347.975 621.775 348.838C621.122 349.681 620.796 350.735 620.796 351.999C620.796 353.832 621.459 355.233 622.787 356.202C624.135 357.151 625.842 357.625 627.907 357.625ZM683.769 366.948C678.796 366.948 674.519 365.895 670.937 363.788C667.376 361.66 664.637 358.71 662.72 354.938C660.823 351.167 659.875 346.826 659.875 341.917C659.875 336.944 660.834 332.583 662.751 328.832C664.69 325.061 667.439 322.122 671 320.015C674.561 317.886 678.796 316.822 683.706 316.822C687.941 316.822 691.649 317.592 694.831 319.13C698.012 320.668 700.53 322.827 702.384 325.609C704.238 328.39 705.26 331.656 705.45 335.406H692.745C692.386 332.983 691.438 331.034 689.9 329.559C688.383 328.063 686.392 327.315 683.927 327.315C681.841 327.315 680.018 327.884 678.459 329.022C676.921 330.139 675.72 331.772 674.856 333.921C673.992 336.07 673.56 338.672 673.56 341.727C673.56 344.825 673.982 347.458 674.824 349.629C675.688 351.799 676.9 353.453 678.459 354.591C680.018 355.728 681.841 356.297 683.927 356.297C685.465 356.297 686.845 355.981 688.067 355.349C689.31 354.717 690.332 353.8 691.133 352.599C691.954 351.377 692.492 349.913 692.745 348.206H705.45C705.239 351.915 704.228 355.181 702.416 358.004C700.625 360.806 698.149 362.998 694.989 364.578C691.828 366.158 688.088 366.948 683.769 366.948ZM739.892 317.455V327.568H710.657V317.455H739.892ZM717.294 305.824H730.758V351.082C730.758 352.326 730.947 353.295 731.327 353.99C731.706 354.664 732.233 355.138 732.907 355.412C733.602 355.686 734.403 355.823 735.309 355.823C735.941 355.823 736.573 355.77 737.205 355.665C737.837 355.539 738.322 355.444 738.659 355.381L740.776 365.4C740.102 365.61 739.154 365.853 737.932 366.126C736.71 366.421 735.224 366.6 733.476 366.664C730.231 366.79 727.386 366.358 724.942 365.368C722.519 364.378 720.633 362.839 719.285 360.754C717.936 358.668 717.273 356.034 717.294 352.852V305.824Z" fill="black"/>
<path fill-rule="evenodd" clip-rule="evenodd" d="M290.184 151.024C290.184 151.45 290.296 151.836 290.316 152.273H312.864V162.478H291.777C296.889 182.461 314.801 197.348 336.244 197.348C357.686 197.348 375.599 182.461 380.711 162.478H358.893V152.273H382.171C382.181 151.846 382.303 151.45 382.303 151.024C382.303 125.486 361.642 104.69 336.244 104.69C310.846 104.69 290.184 125.486 290.184 151.024ZM280.041 151.024C280.041 119.85 305.247 94.4852 336.234 94.4852C367.241 94.4852 392.456 119.85 392.456 151.024C392.456 182.197 367.241 207.553 336.244 207.553C305.247 207.553 280.031 182.187 280.031 151.024H280.041ZM269.726 151.024C269.726 187.904 299.577 217.91 336.244 217.91C372.921 217.91 402.772 187.904 402.772 151.024C402.772 114.134 372.921 84.1279 336.234 84.1279C299.577 84.1279 269.726 114.134 269.726 151.024ZM260.516 162.468H244.115L251.458 174.551L242.786 179.862L230.746 160.031C230.258 159.228 230 158.305 230 157.365C230 156.425 230.258 155.503 230.746 154.7L242.786 134.869L251.458 140.189L244.115 152.273H259.634C259.634 151.846 259.573 151.44 259.573 151.014C259.573 108.498 293.968 73.9127 336.244 73.9127C378.52 73.9127 412.925 108.498 412.925 151.014C412.925 151.44 412.854 151.846 412.854 152.263H463.376V162.468H411.971C406.433 199.551 374.635 228.105 336.244 228.105C297.853 228.105 266.054 199.551 260.516 162.468ZM326.365 137.387H331.162V152.263H321.293V162.468H351.742V152.263H341.315V137.387H346.661V142.484H356.804V132.279C356.806 131.611 356.677 130.948 356.423 130.33C356.17 129.712 355.797 129.15 355.325 128.676C354.854 128.202 354.294 127.827 353.678 127.57C353.061 127.314 352.4 127.182 351.732 127.182H321.293C318.494 127.182 316.222 129.456 316.222 132.279V142.484H326.365V137.387ZM422.784 132.919H463.376V122.714H422.784V132.919ZM412.641 193.672H463.376V183.467H412.631L412.641 193.672ZM452.604 70.968H475.862L452.594 48.4256V70.968H452.604ZM491.959 72.3997C492.451 72.8771 492.841 73.4485 493.108 74.08C493.374 74.7114 493.512 75.39 493.511 76.0755V258.892C493.514 259.561 493.385 260.224 493.131 260.843C492.878 261.462 492.505 262.025 492.034 262.499C491.562 262.974 491.003 263.35 490.386 263.608C489.769 263.865 489.108 263.999 488.44 264H326.862C326.193 263.999 325.531 263.865 324.914 263.608C324.296 263.351 323.736 262.974 323.264 262.5C322.792 262.026 322.418 261.463 322.164 260.844C321.909 260.225 321.779 259.562 321.78 258.892V234.36H331.923V253.815H483.358V81.1933H447.523C446.855 81.1919 446.195 81.059 445.579 80.8022C444.963 80.5453 444.403 80.1694 443.932 79.6961C443.461 79.2227 443.088 78.6612 442.834 78.0434C442.58 77.4257 442.45 76.7639 442.451 76.0959V41.5308H331.923V60.8543H321.78V36.4232C321.78 33.6105 324.052 31.3258 326.851 31.3258H447.523C448.841 31.3258 450.099 31.8335 451.042 32.7576L491.959 72.42V72.3997ZM514 49.6542V244.565H503.857V51.5429L468.336 10.2152H350.829V20.0242H340.676V5.09743C340.676 2.2847 342.938 0 345.748 0H470.649C472.14 0 473.529 0.639715 474.493 1.76684L512.763 46.3033C513.563 47.2316 514.002 48.4177 514 49.6441V49.6542Z" fill="#1C7B68"/>
</svg>
