<svg width="872" height="453" viewBox="0 0 872 453" fill="none" xmlns="http://www.w3.org/2000/svg">
<path d="M16.7823 431H2.11754L24.4624 366.273H42.098L64.4112 431H49.7464L33.533 381.064H33.0273L16.7823 431ZM15.8658 405.558H50.505V416.24H15.8658V405.558ZM71.949 431V382.455H84.7807V391.02H85.3496C86.361 388.175 88.0466 385.931 90.4064 384.288C92.7663 382.644 95.5897 381.822 98.8766 381.822C102.206 381.822 105.04 382.655 107.378 384.319C109.717 385.963 111.276 388.196 112.056 391.02H112.562C113.552 388.238 115.343 386.015 117.934 384.351C120.547 382.665 123.634 381.822 127.195 381.822C131.725 381.822 135.402 383.266 138.225 386.152C141.069 389.018 142.492 393.084 142.492 398.352V431H129.059V401.007C129.059 398.31 128.343 396.287 126.91 394.939C125.478 393.59 123.687 392.916 121.537 392.916C119.093 392.916 117.186 393.695 115.817 395.255C114.447 396.793 113.763 398.826 113.763 401.354V431H100.71V400.722C100.71 398.341 100.025 396.445 98.6554 395.033C97.3069 393.622 95.5265 392.916 93.3141 392.916C91.8181 392.916 90.4696 393.295 89.2686 394.054C88.0887 394.791 87.1511 395.834 86.4558 397.183C85.7605 398.51 85.4128 400.069 85.4128 401.86V431H71.949ZM166.97 431.917C163.873 431.917 161.112 431.379 158.689 430.305C156.266 429.209 154.349 427.597 152.937 425.469C151.547 423.32 150.851 420.644 150.851 417.441C150.851 414.744 151.346 412.479 152.337 410.646C153.327 408.813 154.675 407.338 156.382 406.222C158.089 405.105 160.027 404.262 162.197 403.693C164.389 403.124 166.685 402.724 169.087 402.492C171.911 402.197 174.186 401.923 175.914 401.67C177.642 401.397 178.895 400.996 179.675 400.469C180.455 399.943 180.844 399.163 180.844 398.131V397.941C180.844 395.939 180.212 394.391 178.948 393.295C177.705 392.199 175.935 391.652 173.638 391.652C171.215 391.652 169.288 392.189 167.855 393.263C166.422 394.317 165.474 395.644 165.01 397.246L152.558 396.234C153.19 393.285 154.433 390.735 156.287 388.586C158.141 386.416 160.533 384.751 163.462 383.592C166.411 382.412 169.825 381.822 173.702 381.822C176.399 381.822 178.98 382.138 181.445 382.771C183.931 383.403 186.133 384.382 188.05 385.71C189.989 387.037 191.516 388.744 192.633 390.83C193.75 392.895 194.308 395.371 194.308 398.257V431H181.54V424.268H181.161C180.381 425.785 179.338 427.123 178.032 428.282C176.725 429.42 175.156 430.315 173.322 430.968C171.489 431.6 169.372 431.917 166.97 431.917ZM170.826 422.625C172.806 422.625 174.555 422.235 176.072 421.455C177.589 420.655 178.78 419.58 179.643 418.232C180.507 416.883 180.939 415.355 180.939 413.649V408.497C180.518 408.771 179.938 409.024 179.201 409.256C178.485 409.466 177.673 409.667 176.767 409.856C175.861 410.025 174.955 410.183 174.049 410.33C173.143 410.457 172.322 410.573 171.584 410.678C170.004 410.91 168.624 411.278 167.444 411.784C166.264 412.29 165.347 412.975 164.694 413.838C164.041 414.681 163.714 415.735 163.714 416.999C163.714 418.832 164.378 420.233 165.706 421.202C167.054 422.151 168.761 422.625 170.826 422.625ZM204.501 431V422.972L228.268 393.548V393.2H205.323V382.455H244.481V391.209L222.168 419.907V420.254H245.303V431H204.501ZM276.142 431.948C271.232 431.948 266.987 430.905 263.405 428.819C259.844 426.712 257.094 423.783 255.156 420.033C253.218 416.261 252.248 411.889 252.248 406.917C252.248 401.902 253.218 397.52 255.156 393.769C257.094 389.998 259.844 387.069 263.405 384.983C266.987 382.876 271.232 381.822 276.142 381.822C281.051 381.822 285.286 382.876 288.847 384.983C292.429 387.069 295.189 389.998 297.128 393.769C299.066 397.52 300.035 401.902 300.035 406.917C300.035 411.889 299.066 416.261 297.128 420.033C295.189 423.783 292.429 426.712 288.847 428.819C285.286 430.905 281.051 431.948 276.142 431.948ZM276.205 421.518C278.438 421.518 280.303 420.886 281.799 419.622C283.295 418.337 284.422 416.588 285.181 414.376C285.96 412.163 286.35 409.645 286.35 406.822C286.35 403.999 285.96 401.481 285.181 399.268C284.422 397.056 283.295 395.307 281.799 394.022C280.303 392.737 278.438 392.094 276.205 392.094C273.95 392.094 272.054 392.737 270.516 394.022C268.999 395.307 267.851 397.056 267.071 399.268C266.313 401.481 265.933 403.999 265.933 406.822C265.933 409.645 266.313 412.163 267.071 414.376C267.851 416.588 268.999 418.337 270.516 419.622C272.054 420.886 273.95 421.518 276.205 421.518ZM322.254 402.935V431H308.79V382.455H321.622V391.02H322.19C323.265 388.196 325.066 385.963 327.595 384.319C330.123 382.655 333.189 381.822 336.792 381.822C340.163 381.822 343.102 382.56 345.61 384.035C348.117 385.51 350.066 387.617 351.457 390.356C352.847 393.074 353.543 396.319 353.543 400.09V431H340.079V402.492C340.1 399.521 339.341 397.204 337.803 395.539C336.265 393.853 334.148 393.011 331.451 393.011C329.639 393.011 328.037 393.4 326.647 394.18C325.277 394.96 324.203 396.097 323.423 397.593C322.665 399.068 322.275 400.849 322.254 402.935ZM420.119 384.888C419.866 382.339 418.781 380.358 416.864 378.946C414.946 377.535 412.344 376.829 409.057 376.829C406.824 376.829 404.938 377.145 403.4 377.777C401.862 378.388 400.682 379.241 399.86 380.337C399.059 381.433 398.659 382.676 398.659 384.066C398.617 385.225 398.859 386.237 399.386 387.1C399.934 387.964 400.682 388.712 401.63 389.344C402.578 389.955 403.674 390.493 404.917 390.956C406.16 391.399 407.487 391.778 408.899 392.094L414.714 393.485C417.538 394.117 420.129 394.96 422.489 396.013C424.849 397.067 426.893 398.362 428.621 399.901C430.348 401.439 431.686 403.251 432.635 405.337C433.604 407.423 434.099 409.814 434.12 412.511C434.099 416.472 433.088 419.907 431.086 422.814C429.105 425.701 426.24 427.945 422.489 429.546C418.76 431.126 414.261 431.917 408.994 431.917C403.768 431.917 399.217 431.116 395.34 429.515C391.485 427.913 388.472 425.543 386.301 422.403C384.152 419.243 383.025 415.334 382.92 410.678H396.162C396.31 412.848 396.931 414.66 398.027 416.114C399.144 417.547 400.629 418.632 402.483 419.369C404.358 420.086 406.476 420.444 408.836 420.444C411.154 420.444 413.166 420.107 414.872 419.433C416.6 418.758 417.938 417.821 418.886 416.62C419.834 415.419 420.309 414.039 420.309 412.479C420.309 411.026 419.877 409.804 419.013 408.813C418.17 407.823 416.927 406.98 415.283 406.285C413.661 405.589 411.67 404.957 409.31 404.388L402.262 402.619C396.805 401.291 392.496 399.216 389.335 396.392C386.175 393.569 384.605 389.766 384.626 384.983C384.605 381.064 385.648 377.64 387.755 374.711C389.883 371.783 392.802 369.496 396.51 367.853C400.218 366.21 404.432 365.388 409.152 365.388C413.956 365.388 418.149 366.21 421.731 367.853C425.334 369.496 428.136 371.783 430.138 374.711C432.139 377.64 433.172 381.032 433.235 384.888H420.119ZM456.915 431.917C453.818 431.917 451.058 431.379 448.635 430.305C446.212 429.209 444.294 427.597 442.882 425.469C441.492 423.32 440.797 420.644 440.797 417.441C440.797 414.744 441.292 412.479 442.282 410.646C443.272 408.813 444.621 407.338 446.327 406.222C448.034 405.105 449.973 404.262 452.143 403.693C454.334 403.124 456.631 402.724 459.033 402.492C461.856 402.197 464.132 401.923 465.859 401.67C467.587 401.397 468.841 400.996 469.62 400.469C470.4 399.943 470.79 399.163 470.79 398.131V397.941C470.79 395.939 470.158 394.391 468.893 393.295C467.65 392.199 465.88 391.652 463.584 391.652C461.161 391.652 459.233 392.189 457.8 393.263C456.367 394.317 455.419 395.644 454.956 397.246L442.503 396.234C443.135 393.285 444.378 390.735 446.233 388.586C448.087 386.416 450.478 384.751 453.407 383.592C456.357 382.412 459.77 381.822 463.647 381.822C466.344 381.822 468.925 382.138 471.39 382.771C473.877 383.403 476.078 384.382 477.996 385.71C479.934 387.037 481.462 388.744 482.578 390.83C483.695 392.895 484.254 395.371 484.254 398.257V431H471.485V424.268H471.106C470.326 425.785 469.283 427.123 467.977 428.282C466.671 429.42 465.101 430.315 463.268 430.968C461.435 431.6 459.317 431.917 456.915 431.917ZM460.771 422.625C462.752 422.625 464.5 422.235 466.017 421.455C467.534 420.655 468.725 419.58 469.589 418.232C470.453 416.883 470.885 415.355 470.885 413.649V408.497C470.463 408.771 469.884 409.024 469.146 409.256C468.43 409.466 467.619 409.667 466.713 409.856C465.807 410.025 464.901 410.183 463.995 410.33C463.089 410.457 462.267 410.573 461.529 410.678C459.949 410.91 458.569 411.278 457.389 411.784C456.209 412.29 455.293 412.975 454.64 413.838C453.986 414.681 453.66 415.735 453.66 416.999C453.66 418.832 454.324 420.233 455.651 421.202C456.999 422.151 458.706 422.625 460.771 422.625ZM516.57 450.216C512.208 450.216 508.468 449.615 505.35 448.414C502.253 447.234 499.787 445.623 497.954 443.579C496.121 441.535 494.931 439.238 494.383 436.689L506.835 435.014C507.215 435.983 507.815 436.889 508.637 437.732C509.459 438.575 510.544 439.249 511.892 439.755C513.262 440.281 514.926 440.545 516.886 440.545C519.815 440.545 522.227 439.828 524.123 438.396C526.041 436.984 526.999 434.614 526.999 431.284V422.403H526.431C525.841 423.752 524.956 425.027 523.776 426.228C522.596 427.429 521.079 428.408 519.225 429.167C517.37 429.925 515.158 430.305 512.588 430.305C508.942 430.305 505.624 429.462 502.632 427.776C499.661 426.07 497.291 423.467 495.521 419.97C493.772 416.451 492.898 412.005 492.898 406.632C492.898 401.133 493.793 396.54 495.584 392.853C497.375 389.165 499.756 386.405 502.727 384.572C505.719 382.739 508.995 381.822 512.556 381.822C515.274 381.822 517.55 382.286 519.383 383.213C521.216 384.119 522.691 385.257 523.807 386.626C524.945 387.975 525.82 389.302 526.431 390.609H526.936V382.455H540.305V431.474C540.305 435.604 539.294 439.059 537.271 441.841C535.248 444.622 532.446 446.708 528.864 448.098C525.303 449.51 521.205 450.216 516.57 450.216ZM516.854 420.191C519.024 420.191 520.858 419.654 522.354 418.579C523.871 417.484 525.029 415.924 525.83 413.902C526.652 411.858 527.063 409.414 527.063 406.569C527.063 403.725 526.662 401.26 525.862 399.174C525.061 397.067 523.902 395.434 522.385 394.275C520.868 393.116 519.024 392.537 516.854 392.537C514.642 392.537 512.777 393.137 511.26 394.338C509.743 395.518 508.595 397.161 507.815 399.268C507.036 401.375 506.646 403.809 506.646 406.569C506.646 409.372 507.036 411.795 507.815 413.838C508.616 415.861 509.764 417.431 511.26 418.548C512.777 419.643 514.642 420.191 516.854 420.191ZM573.143 431.948C568.149 431.948 563.851 430.937 560.248 428.914C556.666 426.87 553.906 423.984 551.968 420.254C550.029 416.504 549.06 412.069 549.06 406.949C549.06 401.955 550.029 397.572 551.968 393.801C553.906 390.029 556.635 387.09 560.153 384.983C563.693 382.876 567.844 381.822 572.606 381.822C575.808 381.822 578.79 382.339 581.55 383.371C584.331 384.382 586.754 385.91 588.819 387.954C590.905 389.998 592.527 392.568 593.686 395.665C594.845 398.742 595.425 402.345 595.425 406.474V410.172H554.433V401.828H582.751C582.751 399.89 582.329 398.173 581.487 396.677C580.644 395.181 579.474 394.011 577.979 393.169C576.504 392.305 574.786 391.873 572.827 391.873C570.783 391.873 568.971 392.347 567.391 393.295C565.832 394.222 564.61 395.476 563.725 397.056C562.84 398.615 562.387 400.354 562.366 402.271V410.204C562.366 412.606 562.808 414.681 563.693 416.43C564.599 418.179 565.874 419.527 567.517 420.475C569.161 421.424 571.11 421.898 573.364 421.898C574.86 421.898 576.23 421.687 577.473 421.266C578.716 420.844 579.78 420.212 580.665 419.369C581.55 418.527 582.224 417.494 582.688 416.272L595.14 417.094C594.508 420.086 593.212 422.698 591.253 424.932C589.314 427.144 586.807 428.872 583.731 430.115C580.675 431.337 577.146 431.948 573.143 431.948ZM604.464 366.273H621.341L639.166 409.761H639.925L657.75 366.273H674.627V431H661.353V388.87H660.816L644.065 430.684H635.026L618.275 388.712H617.738V431H604.464V366.273ZM699.492 431.917C696.395 431.917 693.635 431.379 691.212 430.305C688.789 429.209 686.871 427.597 685.46 425.469C684.069 423.32 683.374 420.644 683.374 417.441C683.374 414.744 683.869 412.479 684.859 410.646C685.849 408.813 687.198 407.338 688.905 406.222C690.611 405.105 692.55 404.262 694.72 403.693C696.911 403.124 699.208 402.724 701.61 402.492C704.433 402.197 706.709 401.923 708.437 401.67C710.164 401.397 711.418 400.996 712.198 400.469C712.977 399.943 713.367 399.163 713.367 398.131V397.941C713.367 395.939 712.735 394.391 711.471 393.295C710.227 392.199 708.458 391.652 706.161 391.652C703.738 391.652 701.81 392.189 700.377 393.263C698.944 394.317 697.996 395.644 697.533 397.246L685.08 396.234C685.712 393.285 686.956 390.735 688.81 388.586C690.664 386.416 693.055 384.751 695.984 383.592C698.934 382.412 702.347 381.822 706.224 381.822C708.921 381.822 711.502 382.138 713.967 382.771C716.454 383.403 718.656 384.382 720.573 385.71C722.511 387.037 724.039 388.744 725.156 390.83C726.272 392.895 726.831 395.371 726.831 398.257V431H714.062V424.268H713.683C712.903 425.785 711.86 427.123 710.554 428.282C709.248 429.42 707.678 430.315 705.845 430.968C704.012 431.6 701.894 431.917 699.492 431.917ZM703.348 422.625C705.329 422.625 707.078 422.235 708.595 421.455C710.112 420.655 711.302 419.58 712.166 418.232C713.03 416.883 713.462 415.355 713.462 413.649V408.497C713.04 408.771 712.461 409.024 711.723 409.256C711.007 409.466 710.196 409.667 709.29 409.856C708.384 410.025 707.478 410.183 706.572 410.33C705.666 410.457 704.844 410.573 704.107 410.678C702.526 410.91 701.146 411.278 699.966 411.784C698.786 412.29 697.87 412.975 697.217 413.838C696.564 414.681 696.237 415.735 696.237 416.999C696.237 418.832 696.901 420.233 698.228 421.202C699.577 422.151 701.283 422.625 703.348 422.625ZM749.476 417.031L749.507 400.88H751.467L767.017 382.455H782.472L761.581 406.854H758.388L749.476 417.031ZM737.276 431V366.273H750.74V431H737.276ZM767.617 431L753.332 409.856L762.307 400.343L783.388 431H767.617ZM809.202 431.948C804.208 431.948 799.91 430.937 796.307 428.914C792.725 426.87 789.965 423.984 788.026 420.254C786.088 416.504 785.118 412.069 785.118 406.949C785.118 401.955 786.088 397.572 788.026 393.801C789.965 390.029 792.693 387.09 796.212 384.983C799.752 382.876 803.902 381.822 808.664 381.822C811.867 381.822 814.848 382.339 817.608 383.371C820.39 384.382 822.813 385.91 824.878 387.954C826.964 389.998 828.586 392.568 829.745 395.665C830.904 398.742 831.483 402.345 831.483 406.474V410.172H790.491V401.828H818.809C818.809 399.89 818.388 398.173 817.545 396.677C816.702 395.181 815.533 394.011 814.037 393.169C812.562 392.305 810.845 391.873 808.885 391.873C806.842 391.873 805.03 392.347 803.449 393.295C801.89 394.222 800.668 395.476 799.783 397.056C798.898 398.615 798.445 400.354 798.424 402.271V410.204C798.424 412.606 798.867 414.681 799.752 416.43C800.658 418.179 801.932 419.527 803.576 420.475C805.219 421.424 807.168 421.898 809.423 421.898C810.919 421.898 812.288 421.687 813.531 421.266C814.775 420.844 815.839 420.212 816.724 419.369C817.608 418.527 818.283 417.494 818.746 416.272L831.199 417.094C830.567 420.086 829.271 422.698 827.311 424.932C825.373 427.144 822.865 428.872 819.789 430.115C816.734 431.337 813.205 431.948 809.202 431.948ZM840.269 431V382.455H853.322V390.925H853.828C854.713 387.912 856.198 385.636 858.284 384.098C860.37 382.539 862.772 381.759 865.49 381.759C866.164 381.759 866.891 381.801 867.671 381.886C868.451 381.97 869.135 382.086 869.725 382.233V394.18C869.093 393.99 868.219 393.822 867.102 393.674C865.985 393.527 864.963 393.453 864.036 393.453C862.056 393.453 860.286 393.885 858.727 394.749C857.189 395.592 855.967 396.772 855.061 398.289C854.176 399.806 853.733 401.555 853.733 403.535V431H840.269Z" fill="black"/>
<path fill-rule="evenodd" clip-rule="evenodd" d="M482.252 217.39C482.25 219.215 481.525 220.965 480.236 222.256C478.947 223.548 477.198 224.275 475.374 224.279C473.549 224.277 471.798 223.551 470.507 222.259C469.217 220.967 468.49 219.216 468.488 217.39C468.488 213.601 471.58 210.508 475.374 210.508C479.161 210.508 482.244 213.601 482.244 217.382L482.252 217.39ZM504.752 77.2917C503.828 77.3223 502.907 77.1665 502.044 76.8336C501.181 76.5007 500.394 75.9975 499.729 75.3539C499.065 74.7103 498.537 73.9395 498.176 73.0874C497.815 72.2354 497.63 71.3194 497.63 70.3941C497.631 69.4687 497.817 68.553 498.179 67.7013C498.541 66.8496 499.07 66.0795 499.735 65.4366C500.4 64.7938 501.188 64.2915 502.051 63.9595C502.914 63.6276 503.835 63.4729 504.76 63.5045C506.547 63.5657 508.24 64.3193 509.482 65.6063C510.725 66.8932 511.418 68.6127 511.417 70.4019C511.416 72.191 510.721 73.9098 509.477 75.1953C508.233 76.4808 506.539 77.2325 504.752 77.2917ZM478.052 146.001C477.95 147.758 477.18 149.409 475.9 150.616C474.621 151.824 472.929 152.497 471.17 152.497C469.411 152.497 467.719 151.824 466.44 150.616C465.16 149.409 464.391 147.758 464.288 146.001C464.288 142.205 467.38 139.111 471.174 139.111C474.968 139.111 478.06 142.205 478.06 146.001H478.052ZM514.651 267.781C514.735 266.01 515.498 264.34 516.78 263.117C518.062 261.894 519.765 261.212 521.537 261.212C523.308 261.212 525.012 261.894 526.294 263.117C527.576 264.34 528.338 266.01 528.423 267.781C528.338 269.552 527.576 271.222 526.294 272.445C525.012 273.668 523.308 274.35 521.537 274.35C519.765 274.35 518.062 273.668 516.78 272.445C515.498 271.222 514.735 269.552 514.651 267.781ZM549.189 228.896C547.982 229.572 546.976 230.558 546.276 231.753C545.577 232.947 545.208 234.307 545.208 235.692V284.06L489.466 317.04V277.694H501.442C503.283 281.46 506.14 284.636 509.692 286.861C513.243 289.087 517.346 290.273 521.537 290.286C527.501 290.28 533.219 287.907 537.437 283.688C541.655 279.469 544.028 273.748 544.037 267.781C544.03 261.812 541.658 256.09 537.44 251.869C533.222 247.649 527.502 245.275 521.537 245.268C516.579 245.286 511.767 246.942 507.847 249.979C503.928 253.016 501.121 257.265 499.865 262.063H481.659C479.588 262.063 477.603 262.886 476.138 264.351C474.674 265.816 473.852 267.803 473.852 269.874V326.265L470.69 328.14L443.303 312.259V109.709H465.459V124.309C460.662 125.563 456.413 128.37 453.376 132.292C450.338 136.214 448.683 141.031 448.666 145.993C448.677 151.959 451.051 157.678 455.269 161.895C459.487 166.112 465.204 168.484 471.166 168.49C477.129 168.484 482.846 166.112 487.064 161.895C491.281 157.678 493.656 151.959 493.666 145.993C493.653 141.8 492.466 137.693 490.24 134.14C488.015 130.586 484.839 127.727 481.073 125.887V109.709H506.836C508.907 109.709 510.893 108.886 512.357 107.421C513.821 105.956 514.643 103.969 514.643 101.898V90.5086C518.411 88.6689 521.588 85.8103 523.815 82.2567C526.042 78.7031 527.23 74.5964 527.244 70.402C527.238 64.4332 524.865 58.7107 520.647 54.4901C516.429 50.2695 510.709 47.8957 504.744 47.8895C498.779 47.8957 493.059 50.2695 488.841 54.4901C484.623 58.7107 482.251 64.4332 482.244 70.402C482.244 80.8302 489.403 89.54 499.029 92.0865V94.0862H443.303V37.5237L477.638 16.9484L549.4 60.7237V108.873C549.4 110.255 549.766 111.612 550.462 112.806C551.157 114 552.157 114.988 553.358 115.669L591.37 137.229V161.28H519.445C517.374 161.28 515.388 162.103 513.924 163.568C512.46 165.033 511.638 167.02 511.638 169.092V207.477H495.469C493.629 203.71 490.772 200.533 487.22 198.308C483.668 196.082 479.565 194.897 475.374 194.885C469.411 194.891 463.695 197.263 459.477 201.48C455.259 205.697 452.885 211.416 452.874 217.382C452.879 223.352 455.25 229.076 459.469 233.299C463.687 237.521 469.407 239.896 475.374 239.902C480.333 239.884 485.146 238.227 489.066 235.188C492.986 232.15 495.791 227.9 497.046 223.1H519.445C521.515 223.1 523.501 222.277 524.965 220.812C526.429 219.347 527.252 217.36 527.252 215.288V176.903H591.386V205.126L549.189 228.896ZM383.033 206.297C386.827 206.297 389.919 209.391 389.919 213.187C389.917 215.014 389.191 216.765 387.9 218.056C386.609 219.348 384.859 220.075 383.033 220.077C381.208 220.075 379.457 219.348 378.166 218.056C376.876 216.765 376.149 215.014 376.147 213.187C376.147 209.391 379.239 206.297 383.033 206.297ZM371.947 83.0018C371.946 81.637 372.349 80.3023 373.106 79.1669C373.863 78.0314 374.939 77.1461 376.199 76.6231C377.459 76.1 378.846 75.9628 380.184 76.2287C381.522 76.4946 382.751 77.1517 383.715 78.1168C384.68 79.0819 385.337 80.3116 385.602 81.6503C385.868 82.989 385.731 84.3765 385.208 85.6372C384.685 86.8978 383.801 87.975 382.666 88.7323C381.531 89.4896 380.197 89.893 378.833 89.8915C377.009 89.8874 375.261 89.1599 373.971 87.8685C372.682 86.5771 371.957 84.8271 371.955 83.0018H371.947ZM343.748 145.993C343.646 147.75 342.876 149.401 341.597 150.609C340.318 151.816 338.625 152.489 336.867 152.489C335.108 152.489 333.416 151.816 332.136 150.609C330.857 149.401 330.087 147.75 329.985 145.993C329.985 142.197 333.076 139.103 336.855 139.103C340.657 139.103 343.748 142.197 343.748 145.993ZM384.54 280.373C384.51 279.448 384.667 278.527 385.001 277.664C385.335 276.801 385.838 276.014 386.482 275.35C387.126 274.686 387.897 274.158 388.749 273.798C389.601 273.439 390.517 273.254 391.442 273.255C392.366 273.257 393.281 273.445 394.132 273.808C394.983 274.17 395.752 274.701 396.394 275.367C397.035 276.033 397.537 276.822 397.867 277.686C398.198 278.55 398.352 279.472 398.319 280.396C398.256 282.185 397.501 283.878 396.213 285.12C394.926 286.361 393.206 287.053 391.418 287.05C389.63 287.047 387.913 286.349 386.63 285.103C385.346 283.857 384.597 282.161 384.54 280.373ZM396.032 328.093L321.584 284.037V235.684C321.585 234.286 321.211 232.914 320.501 231.711C319.791 230.507 318.771 229.516 317.548 228.841L314.745 227.31H335.348V282.482C335.348 284.554 336.171 286.541 337.635 288.006C339.099 289.471 341.085 290.294 343.155 290.294H371.323C373.162 294.062 376.02 297.239 379.571 299.466C383.123 301.693 387.227 302.88 391.418 302.893C397.383 302.887 403.103 300.513 407.321 296.293C411.539 292.072 413.911 286.35 413.918 280.381C413.909 274.413 411.536 268.693 407.318 264.474C403.1 260.255 397.382 257.882 391.418 257.876C386.46 257.893 381.647 259.549 377.728 262.587C373.809 265.624 371.002 269.872 369.746 274.671H350.97V219.499C350.97 217.427 350.147 215.44 348.683 213.975C347.219 212.51 345.233 211.687 343.163 211.687H286.359L279.614 207.977V137.229L317.626 115.661C318.829 114.979 319.829 113.99 320.525 112.795C321.22 111.6 321.586 110.241 321.584 108.858V88.7042H331.156V124.316C326.359 125.573 322.113 128.38 319.077 132.302C316.041 136.224 314.386 141.04 314.371 146.001C314.379 151.965 316.75 157.682 320.965 161.9C325.18 166.117 330.894 168.49 336.855 168.498C342.819 168.494 348.538 166.123 352.757 161.906C356.977 157.688 359.352 151.968 359.362 146.001C359.348 141.808 358.161 137.702 355.935 134.148C353.71 130.595 350.535 127.736 346.77 125.894V88.712H357.169C358.42 93.5146 361.224 97.7679 365.145 100.809C369.065 103.849 373.881 105.507 378.841 105.522C384.803 105.512 390.519 103.136 394.734 98.916C398.948 94.6959 401.319 88.9757 401.325 83.0096C401.319 77.0436 398.948 71.3234 394.734 67.1032C390.519 62.8831 384.803 60.5075 378.841 60.4971C374.65 60.5098 370.547 61.6961 366.996 63.9215C363.444 66.1469 360.586 69.3226 358.746 73.0891H321.584V60.708L393.346 16.9406L427.697 37.5159V127.691H380.933C378.863 127.691 376.877 128.514 375.413 129.979C373.949 131.444 373.126 133.431 373.126 135.502V193.088C369.36 194.928 366.184 197.787 363.958 201.341C361.732 204.895 360.546 209.001 360.533 213.195C360.54 219.164 362.912 224.886 367.13 229.107C371.348 233.327 377.068 235.701 383.033 235.707C388.999 235.701 394.718 233.327 398.936 229.107C403.154 224.886 405.527 219.164 405.533 213.195C405.533 202.767 398.374 194.057 388.74 191.51V143.314H427.697V309.252L396.032 328.093ZM606.992 132.682C606.992 129.87 605.478 127.277 603.034 125.887L565.03 104.319L565.022 56.3336C565.022 54.9934 564.677 53.6759 564.02 52.5076C563.364 51.3393 562.419 50.3596 561.274 49.6627L481.752 1.15374C480.537 0.412021 479.142 0.0163926 477.718 0.00950985C476.294 0.00262715 474.895 0.38475 473.672 1.11469L435.512 23.9787L397.32 1.11469C396.1 0.380098 394.703 -0.00545142 393.279 5.82341e-05C391.856 0.00556789 390.461 0.401926 389.247 1.14593L309.718 49.6549C308.575 50.3529 307.63 51.3328 306.974 52.5009C306.318 53.6689 305.972 54.9859 305.97 56.3258V104.311L267.95 125.887C266.75 126.569 265.752 127.557 265.058 128.751C264.364 129.945 263.999 131.301 264 132.682V212.593C264 213.992 264.376 215.364 265.087 216.568C265.798 217.772 266.82 218.762 268.044 219.436L305.978 240.308L305.97 288.505C305.97 291.262 307.422 293.816 309.796 295.223L392.074 343.903C393.279 344.62 394.655 344.997 396.056 344.995C397.458 344.994 398.833 344.614 400.037 343.896L432.943 324.312L466.818 343.95C468.017 344.644 469.38 345.007 470.766 345C472.151 344.993 473.51 344.617 474.703 343.911L556.988 295.238C558.156 294.547 559.123 293.563 559.794 292.384C560.465 291.204 560.817 289.87 560.814 288.513V240.269L603.018 216.499C604.225 215.82 605.23 214.832 605.93 213.637C606.63 212.441 606.999 211.081 607 209.695L606.992 132.682Z" fill="#067F68"/>
</svg>
