<svg width="53" height="32" viewBox="0 0 53 32" fill="none" xmlns="http://www.w3.org/2000/svg">
<rect width="53" height="32" fill="white"/>
<path d="M36.3571 12.5893C35.9041 12.5893 35.5357 12.2209 35.5357 11.7678C35.5357 11.3148 35.9041 10.9464 36.3571 10.9464C36.8102 10.9464 37.1786 11.3148 37.1786 11.7678C37.1786 12.2209 36.8102 12.5893 36.3571 12.5893ZM23.2607 23.6408L21.9267 22.8629L24.6641 21.1519L24.2288 20.4553L21.125 22.3951L18.6964 20.9785V17.3269L20.978 15.806L20.522 15.1226L18.2689 16.6245L15.8214 15.2261V13.2382L18.4894 11.7136L18.082 11.0006L15.8214 12.2923V10.7739L18.2857 9.36597L20.75 10.7739V12.3568L18.8956 13.4694L19.3187 14.1734L21.1607 13.0682L23.0028 14.1734L23.4258 13.4694L21.5714 12.3568V10.7554L23.8529 9.23454C23.9671 9.15815 24.0357 9.03001 24.0357 8.89283V6.01782H23.2143V8.67309L21.1439 10.0531L18.6964 8.65461V5.02143L20.75 3.82378V7.24997H21.5714V3.34448L23.2607 2.35917L26.5 3.43894V15.2318L20.5385 18.8087L20.9615 19.5127L26.5 16.1896V22.561L23.2607 23.6408ZM35.5357 17.1071C35.5357 17.5601 35.1673 17.9286 34.7143 17.9286C34.2613 17.9286 33.8929 17.5601 33.8929 17.1071C33.8929 16.6541 34.2613 16.2857 34.7143 16.2857C35.1673 16.2857 35.5357 16.6541 35.5357 17.1071ZM31.4286 21.2143C31.4286 21.6673 31.0602 22.0357 30.6071 22.0357C30.1541 22.0357 29.7857 21.6673 29.7857 21.2143C29.7857 20.7613 30.1541 20.3928 30.6071 20.3928C31.0602 20.3928 31.4286 20.7613 31.4286 21.2143ZM31.0179 4.78568C31.0179 4.33266 31.3863 3.96425 31.8393 3.96425C32.2923 3.96425 32.6607 4.33266 32.6607 4.78568C32.6607 5.23869 32.2923 5.60711 31.8393 5.60711C31.3863 5.60711 31.0179 5.23869 31.0179 4.78568ZM36.3571 10.125C35.5936 10.125 34.9562 10.6507 34.7726 11.3571H27.3214V9.30354H31.8393C32.0664 9.30354 32.25 9.11954 32.25 8.89283V6.37021C32.9564 6.18663 33.4821 5.54878 33.4821 4.78568C33.4821 3.87964 32.7453 3.14282 31.8393 3.14282C30.9333 3.14282 30.1964 3.87964 30.1964 4.78568C30.1964 5.54878 30.7221 6.18663 31.4286 6.37021V8.48211H27.3214V3.14282C27.3214 2.9658 27.2085 2.80932 27.0405 2.75305L23.3441 1.5209C23.2315 1.48394 23.1091 1.49626 23.0073 1.55581L18.0787 4.43082C17.9522 4.50434 17.875 4.63987 17.875 4.78568V8.65461L15.207 10.1792C15.0789 10.2523 15 10.3882 15 10.5357V15.4643C15 15.6117 15.0789 15.7477 15.207 15.8208L17.875 17.3453V21.2143C17.875 21.3601 17.9522 21.4956 18.0787 21.5691L23.0073 24.4441C23.0705 24.4811 23.1424 24.5 23.2143 24.5C23.2578 24.5 23.3018 24.493 23.3441 24.4791L27.0405 23.2469C27.2085 23.1906 27.3214 23.0342 27.3214 22.8571V17.9286H30.1964V19.6297C29.49 19.8133 28.9643 20.4512 28.9643 21.2143C28.9643 22.1203 29.7011 22.8571 30.6071 22.8571C31.5132 22.8571 32.25 22.1203 32.25 21.2143C32.25 20.4512 31.7243 19.8133 31.0179 19.6297V17.5178C31.0179 17.2911 30.8343 17.1071 30.6071 17.1071H27.3214V15.0536H32.4554L33.3335 16.2241C33.1696 16.4796 33.0714 16.7814 33.0714 17.1071C33.0714 18.0132 33.8083 18.75 34.7143 18.75C35.6203 18.75 36.3571 18.0132 36.3571 17.1071C36.3571 16.2011 35.6203 15.4643 34.7143 15.4643C34.4334 15.4643 34.173 15.5415 33.9417 15.6663L32.9893 14.3964C32.9117 14.2929 32.7897 14.2321 32.6607 14.2321H27.3214V12.1785H34.7726C34.9562 12.885 35.5936 13.4107 36.3571 13.4107C37.2632 13.4107 38 12.6739 38 11.7678C38 10.8618 37.2632 10.125 36.3571 10.125Z" fill="#067F68"/>
<path d="M6.10498 30.165C6.13232 30.2471 6.14941 30.312 6.15625 30.3599C6.16309 30.4077 6.15397 30.4442 6.12891 30.4692C6.10384 30.492 6.05941 30.5057 5.99561 30.5103C5.9318 30.5171 5.84408 30.5205 5.73242 30.5205C5.61621 30.5205 5.52507 30.5182 5.45898 30.5137C5.39518 30.5114 5.34619 30.5057 5.31201 30.4966C5.27783 30.4852 5.25391 30.4704 5.24023 30.4521C5.22656 30.4339 5.21517 30.41 5.20605 30.3804L4.90869 29.4917H3.24756L2.96729 30.3564C2.95817 30.3883 2.94564 30.4157 2.92969 30.4385C2.91602 30.459 2.89209 30.4761 2.85791 30.4897C2.82601 30.5011 2.7793 30.5091 2.71777 30.5137C2.65853 30.5182 2.57992 30.5205 2.48193 30.5205C2.37712 30.5205 2.29508 30.5171 2.23584 30.5103C2.1766 30.5034 2.13558 30.4875 2.11279 30.4624C2.09001 30.4351 2.08203 30.3975 2.08887 30.3496C2.0957 30.3018 2.11279 30.238 2.14014 30.1582L3.50391 26.2344C3.51758 26.1956 3.53353 26.1649 3.55176 26.1421C3.56999 26.117 3.59847 26.0988 3.63721 26.0874C3.67822 26.0737 3.73405 26.0658 3.80469 26.0635C3.87533 26.0589 3.96875 26.0566 4.08496 26.0566C4.2194 26.0566 4.3265 26.0589 4.40625 26.0635C4.486 26.0658 4.54753 26.0737 4.59082 26.0874C4.63639 26.0988 4.66829 26.117 4.68652 26.1421C4.70703 26.1672 4.72412 26.2013 4.73779 26.2446L6.10498 30.165ZM4.07471 26.9214H4.07129L3.4458 28.8013H4.7002L4.07471 26.9214ZM11.5259 30.3838C11.5259 30.4066 11.519 30.4271 11.5054 30.4453C11.4917 30.4613 11.4689 30.4749 11.437 30.4863C11.4051 30.4977 11.3618 30.5057 11.3071 30.5103C11.2524 30.5171 11.1829 30.5205 11.0986 30.5205C11.012 30.5205 10.9414 30.5171 10.8867 30.5103C10.832 30.5057 10.7876 30.4977 10.7534 30.4863C10.7215 30.4749 10.6987 30.4613 10.6851 30.4453C10.6737 30.4271 10.668 30.4066 10.668 30.3838V28.5757C10.668 28.4731 10.6577 28.3797 10.6372 28.2954C10.619 28.2111 10.5894 28.1393 10.5483 28.0801C10.5096 28.0186 10.4595 27.9718 10.3979 27.9399C10.3387 27.9058 10.2669 27.8887 10.1826 27.8887C10.0801 27.8887 9.9764 27.9285 9.87158 28.0083C9.76676 28.0881 9.65283 28.2043 9.52979 28.3569V30.3838C9.52979 30.4066 9.52295 30.4271 9.50928 30.4453C9.49561 30.4613 9.47168 30.4749 9.4375 30.4863C9.4056 30.4977 9.3623 30.5057 9.30762 30.5103C9.25293 30.5171 9.18457 30.5205 9.10254 30.5205C9.01823 30.5205 8.94873 30.5171 8.89404 30.5103C8.83936 30.5057 8.79492 30.4977 8.76074 30.4863C8.72884 30.4749 8.70605 30.4613 8.69238 30.4453C8.67871 30.4271 8.67188 30.4066 8.67188 30.3838V28.5757C8.67188 28.4731 8.66162 28.3797 8.64111 28.2954C8.62288 28.2111 8.5944 28.1393 8.55566 28.0801C8.51693 28.0186 8.4668 27.9718 8.40527 27.9399C8.34375 27.9058 8.27197 27.8887 8.18994 27.8887C8.08512 27.8887 7.98031 27.9285 7.87549 28.0083C7.77067 28.0881 7.65788 28.2043 7.53711 28.3569V30.3838C7.53711 30.4066 7.53027 30.4271 7.5166 30.4453C7.50293 30.4613 7.479 30.4749 7.44482 30.4863C7.41292 30.4977 7.36963 30.5057 7.31494 30.5103C7.26025 30.5171 7.19076 30.5205 7.10645 30.5205C7.02214 30.5205 6.95264 30.5171 6.89795 30.5103C6.84326 30.5057 6.79883 30.4977 6.76465 30.4863C6.73275 30.4749 6.70996 30.4613 6.69629 30.4453C6.68262 30.4271 6.67578 30.4066 6.67578 30.3838V27.335C6.67578 27.3122 6.68148 27.2928 6.69287 27.2769C6.70426 27.2586 6.72477 27.2438 6.75439 27.2324C6.78402 27.221 6.82161 27.2131 6.86719 27.2085C6.91504 27.2017 6.97428 27.1982 7.04492 27.1982C7.11784 27.1982 7.17822 27.2017 7.22607 27.2085C7.27393 27.2131 7.31038 27.221 7.33545 27.2324C7.36279 27.2438 7.38216 27.2586 7.39355 27.2769C7.40495 27.2928 7.41064 27.3122 7.41064 27.335V27.687C7.57926 27.5047 7.74674 27.368 7.91309 27.2769C8.08171 27.1857 8.25716 27.1401 8.43945 27.1401C8.56478 27.1401 8.67757 27.1538 8.77783 27.1812C8.87809 27.2062 8.96696 27.2438 9.04443 27.2939C9.12419 27.3418 9.19255 27.3999 9.24951 27.4683C9.30648 27.5366 9.35433 27.613 9.39307 27.6973C9.48421 27.5993 9.57308 27.515 9.65967 27.4443C9.74854 27.3737 9.83512 27.3167 9.91943 27.2734C10.006 27.2279 10.0915 27.1948 10.1758 27.1743C10.2624 27.1515 10.3501 27.1401 10.439 27.1401C10.6418 27.1401 10.8127 27.1743 10.9517 27.2427C11.0907 27.311 11.2023 27.4045 11.2866 27.5229C11.3732 27.6392 11.4347 27.7759 11.4712 27.9331C11.5076 28.0903 11.5259 28.2567 11.5259 28.4321V30.3838ZM14.9678 30.394C14.9678 30.4259 14.9564 30.451 14.9336 30.4692C14.9108 30.4875 14.8743 30.5 14.8242 30.5068C14.7764 30.516 14.7046 30.5205 14.6089 30.5205C14.5063 30.5205 14.4312 30.516 14.3833 30.5068C14.3377 30.5 14.3047 30.4875 14.2842 30.4692C14.266 30.451 14.2568 30.4259 14.2568 30.394V30.1514C14.1315 30.2858 13.988 30.3906 13.8262 30.4658C13.6667 30.541 13.4889 30.5786 13.293 30.5786C13.1312 30.5786 12.9819 30.557 12.8452 30.5137C12.7108 30.4727 12.5934 30.4111 12.4932 30.3291C12.3952 30.2448 12.3188 30.1411 12.2642 30.0181C12.2095 29.895 12.1821 29.7515 12.1821 29.5874C12.1821 29.4097 12.2163 29.2559 12.2847 29.126C12.3553 28.9938 12.459 28.8856 12.5957 28.8013C12.7347 28.7147 12.9067 28.6509 13.1118 28.6099C13.3169 28.5688 13.555 28.5483 13.8262 28.5483H14.1235V28.3638C14.1235 28.2681 14.1133 28.1849 14.0928 28.1143C14.0745 28.0413 14.0426 27.981 13.9971 27.9331C13.9538 27.8853 13.8945 27.8499 13.8193 27.8271C13.7464 27.8044 13.6553 27.793 13.5459 27.793C13.4023 27.793 13.2736 27.8089 13.1597 27.8408C13.048 27.8727 12.9489 27.908 12.8623 27.9468C12.7757 27.9855 12.7028 28.0208 12.6436 28.0527C12.5866 28.0846 12.5399 28.1006 12.5034 28.1006C12.4784 28.1006 12.4556 28.0926 12.4351 28.0767C12.4168 28.0607 12.4009 28.0379 12.3872 28.0083C12.3758 27.9787 12.3667 27.9422 12.3599 27.8989C12.353 27.8556 12.3496 27.8078 12.3496 27.7554C12.3496 27.6847 12.3553 27.6289 12.3667 27.5879C12.3781 27.5469 12.3997 27.5104 12.4316 27.4785C12.4635 27.4443 12.5194 27.4079 12.5991 27.3691C12.6789 27.3281 12.7723 27.2905 12.8794 27.2563C12.9865 27.2222 13.1027 27.1948 13.228 27.1743C13.3556 27.1515 13.4867 27.1401 13.6211 27.1401C13.8604 27.1401 14.0643 27.1641 14.2329 27.2119C14.4038 27.2575 14.5439 27.3293 14.6533 27.4272C14.7627 27.5229 14.8424 27.6471 14.8926 27.7998C14.9427 27.9525 14.9678 28.1336 14.9678 28.3433V30.394ZM14.1235 29.0884H13.7954C13.6564 29.0884 13.5379 29.0986 13.4399 29.1191C13.342 29.1396 13.2622 29.1704 13.2007 29.2114C13.1392 29.2524 13.0936 29.3026 13.064 29.3618C13.0366 29.4188 13.0229 29.4849 13.0229 29.5601C13.0229 29.6877 13.0628 29.7879 13.1426 29.8608C13.2246 29.9338 13.3374 29.9702 13.481 29.9702C13.6017 29.9702 13.7122 29.9395 13.8125 29.8779C13.915 29.8164 14.0187 29.7264 14.1235 29.6079V29.0884ZM17.9619 30.1479C17.9619 30.214 17.9585 30.271 17.9517 30.3188C17.9448 30.3644 17.9357 30.4009 17.9243 30.4282C17.9129 30.4556 17.8981 30.4749 17.8799 30.4863C17.8617 30.4954 17.8411 30.5 17.8184 30.5H15.8257C15.7642 30.5 15.7163 30.4795 15.6821 30.4385C15.6502 30.3975 15.6343 30.3302 15.6343 30.2368V30.0796C15.6343 30.0386 15.6354 30.0021 15.6377 29.9702C15.6423 29.936 15.6491 29.9041 15.6582 29.8745C15.6696 29.8426 15.6833 29.8107 15.6992 29.7788C15.7174 29.7469 15.7402 29.7116 15.7676 29.6729L16.9092 27.9092H15.8291C15.7858 27.9092 15.7505 27.8818 15.7231 27.8271C15.6981 27.7725 15.6855 27.6847 15.6855 27.564C15.6855 27.4979 15.6878 27.4432 15.6924 27.3999C15.6992 27.3543 15.7083 27.319 15.7197 27.2939C15.7311 27.2666 15.7459 27.2472 15.7642 27.2358C15.7824 27.2244 15.804 27.2188 15.8291 27.2188H17.6919C17.7238 27.2188 17.7511 27.2222 17.7739 27.229C17.7967 27.2358 17.8149 27.2484 17.8286 27.2666C17.8446 27.2848 17.856 27.3099 17.8628 27.3418C17.8719 27.3737 17.8765 27.4136 17.8765 27.4614V27.6289C17.8765 27.6745 17.8742 27.7155 17.8696 27.752C17.8651 27.7861 17.8582 27.8192 17.8491 27.8511C17.84 27.883 17.8263 27.9149 17.8081 27.9468C17.7922 27.9787 17.7728 28.0129 17.75 28.0493L16.6152 29.8096H17.8184C17.8389 29.8096 17.8582 29.8141 17.8765 29.8232C17.8947 29.8324 17.9095 29.8494 17.9209 29.8745C17.9346 29.8996 17.9448 29.9349 17.9517 29.9805C17.9585 30.0238 17.9619 30.0796 17.9619 30.1479ZM21.5713 28.8286C21.5713 29.0884 21.5371 29.3254 21.4688 29.5396C21.4004 29.7537 21.2967 29.9383 21.1577 30.0933C21.0187 30.2482 20.8444 30.3678 20.6348 30.4521C20.4251 30.5365 20.1802 30.5786 19.8999 30.5786C19.6287 30.5786 19.3929 30.541 19.1924 30.4658C18.9919 30.3906 18.8255 30.2812 18.6934 30.1377C18.5612 29.9941 18.4632 29.8175 18.3994 29.6079C18.3356 29.3983 18.3037 29.159 18.3037 28.8901C18.3037 28.6304 18.3379 28.3934 18.4062 28.1792C18.4769 27.9627 18.5817 27.7782 18.7207 27.6255C18.8597 27.4705 19.0329 27.3509 19.2402 27.2666C19.4499 27.1823 19.6948 27.1401 19.9751 27.1401C20.2485 27.1401 20.4855 27.1777 20.686 27.2529C20.8866 27.3258 21.0518 27.4341 21.1816 27.5776C21.3138 27.7212 21.4118 27.8978 21.4756 28.1074C21.5394 28.3171 21.5713 28.5575 21.5713 28.8286ZM20.686 28.8628C20.686 28.7124 20.6735 28.5745 20.6484 28.4492C20.6257 28.3216 20.5858 28.2111 20.5288 28.1177C20.4718 28.0243 20.3955 27.9513 20.2998 27.8989C20.2064 27.8465 20.0879 27.8203 19.9443 27.8203C19.8167 27.8203 19.7051 27.8442 19.6094 27.8921C19.5137 27.9377 19.4351 28.006 19.3735 28.0972C19.312 28.186 19.2653 28.2943 19.2334 28.4219C19.2038 28.5472 19.189 28.6908 19.189 28.8525C19.189 29.0029 19.2015 29.1419 19.2266 29.2695C19.2516 29.3949 19.2915 29.5042 19.3462 29.5977C19.4032 29.6911 19.4795 29.764 19.5752 29.8164C19.6709 29.8665 19.7894 29.8916 19.9307 29.8916C20.0605 29.8916 20.1733 29.8688 20.269 29.8232C20.3647 29.7754 20.4434 29.707 20.5049 29.6182C20.5664 29.5293 20.612 29.4222 20.6416 29.2969C20.6712 29.1693 20.686 29.0246 20.686 28.8628ZM25.167 30.3838C25.167 30.4066 25.1602 30.4271 25.1465 30.4453C25.1328 30.4613 25.11 30.4749 25.0781 30.4863C25.0462 30.4977 25.0018 30.5057 24.9448 30.5103C24.8901 30.5171 24.8218 30.5205 24.7397 30.5205C24.6554 30.5205 24.5848 30.5171 24.5278 30.5103C24.4731 30.5057 24.4299 30.4977 24.3979 30.4863C24.366 30.4749 24.3433 30.4613 24.3296 30.4453C24.3159 30.4271 24.3091 30.4066 24.3091 30.3838V28.644C24.3091 28.4959 24.2977 28.3797 24.2749 28.2954C24.2544 28.2111 24.2236 28.1393 24.1826 28.0801C24.1416 28.0186 24.0881 27.9718 24.022 27.9399C23.9582 27.9058 23.883 27.8887 23.7964 27.8887C23.687 27.8887 23.5765 27.9285 23.4648 28.0083C23.3532 28.0881 23.237 28.2043 23.1162 28.3569V30.3838C23.1162 30.4066 23.1094 30.4271 23.0957 30.4453C23.082 30.4613 23.0581 30.4749 23.0239 30.4863C22.992 30.4977 22.9487 30.5057 22.894 30.5103C22.8394 30.5171 22.7699 30.5205 22.6855 30.5205C22.6012 30.5205 22.5317 30.5171 22.4771 30.5103C22.4224 30.5057 22.3779 30.4977 22.3438 30.4863C22.3118 30.4749 22.2891 30.4613 22.2754 30.4453C22.2617 30.4271 22.2549 30.4066 22.2549 30.3838V27.335C22.2549 27.3122 22.2606 27.2928 22.272 27.2769C22.2834 27.2586 22.3039 27.2438 22.3335 27.2324C22.3631 27.221 22.4007 27.2131 22.4463 27.2085C22.4941 27.2017 22.5534 27.1982 22.624 27.1982C22.6969 27.1982 22.7573 27.2017 22.8052 27.2085C22.853 27.2131 22.8895 27.221 22.9146 27.2324C22.9419 27.2438 22.9613 27.2586 22.9727 27.2769C22.984 27.2928 22.9897 27.3122 22.9897 27.335V27.687C23.1584 27.5047 23.3293 27.368 23.5024 27.2769C23.6779 27.1857 23.8602 27.1401 24.0493 27.1401C24.2567 27.1401 24.431 27.1743 24.5723 27.2427C24.7158 27.311 24.8309 27.4045 24.9175 27.5229C25.0063 27.6392 25.0701 27.7759 25.1089 27.9331C25.1476 28.0903 25.167 28.2795 25.167 28.5005V30.3838ZM30.8545 29.1738C30.8545 29.3311 30.8328 29.4735 30.7896 29.6011C30.7463 29.7287 30.6859 29.8415 30.6084 29.9395C30.5332 30.0374 30.4421 30.1217 30.335 30.1924C30.2301 30.263 30.1139 30.3211 29.9863 30.3667C29.8587 30.4123 29.722 30.4465 29.5762 30.4692C29.4326 30.4897 29.272 30.5 29.0942 30.5H27.9185C27.8433 30.5 27.7795 30.4784 27.7271 30.4351C27.6769 30.3895 27.6519 30.3166 27.6519 30.2163V26.3608C27.6519 26.2606 27.6769 26.1888 27.7271 26.1455C27.7795 26.0999 27.8433 26.0771 27.9185 26.0771H29.0293C29.3005 26.0771 29.5295 26.0999 29.7163 26.1455C29.9054 26.1911 30.0638 26.2606 30.1914 26.354C30.3213 26.4451 30.4204 26.5614 30.4888 26.7026C30.5571 26.8439 30.5913 27.0103 30.5913 27.2017C30.5913 27.3088 30.5776 27.4102 30.5503 27.5059C30.5229 27.5993 30.4831 27.6847 30.4307 27.7622C30.3783 27.8397 30.3133 27.908 30.2358 27.9673C30.1606 28.0265 30.0741 28.0744 29.9761 28.1108C30.1014 28.1336 30.2165 28.1735 30.3213 28.2305C30.4284 28.2874 30.5207 28.3615 30.5981 28.4526C30.6779 28.5415 30.7406 28.6463 30.7861 28.7671C30.8317 28.8879 30.8545 29.0234 30.8545 29.1738ZM29.6924 27.311C29.6924 27.2222 29.6787 27.1424 29.6514 27.0718C29.624 27.0011 29.583 26.943 29.5283 26.8975C29.4736 26.8496 29.4041 26.8132 29.3198 26.7881C29.2378 26.763 29.1273 26.7505 28.9883 26.7505H28.5337V27.8989H29.0361C29.166 27.8989 29.2697 27.8841 29.3472 27.8545C29.4246 27.8226 29.4884 27.7804 29.5386 27.728C29.591 27.6733 29.6297 27.6107 29.6548 27.54C29.6799 27.4671 29.6924 27.3908 29.6924 27.311ZM29.9214 29.2046C29.9214 29.1021 29.9043 29.0109 29.8701 28.9312C29.8359 28.8491 29.7858 28.7808 29.7197 28.7261C29.6536 28.6714 29.5693 28.6292 29.4668 28.5996C29.3643 28.57 29.231 28.5552 29.0669 28.5552H28.5337V29.813H29.1831C29.3084 29.813 29.4132 29.8005 29.4976 29.7754C29.5841 29.748 29.6582 29.7093 29.7197 29.6592C29.7835 29.6068 29.8325 29.543 29.8667 29.4678C29.9032 29.3903 29.9214 29.3026 29.9214 29.2046ZM34.3408 28.7705C34.3408 28.8753 34.3169 28.9528 34.269 29.0029C34.2235 29.0531 34.1597 29.0781 34.0776 29.0781H32.2217C32.2217 29.208 32.2365 29.3265 32.2661 29.4336C32.298 29.5384 32.347 29.6284 32.4131 29.7036C32.4814 29.7765 32.568 29.8324 32.6729 29.8711C32.7799 29.9098 32.9076 29.9292 33.0557 29.9292C33.2061 29.9292 33.3382 29.9189 33.4521 29.8984C33.5661 29.8757 33.6641 29.8517 33.7461 29.8267C33.8304 29.7993 33.8999 29.7754 33.9546 29.7549C34.0093 29.7321 34.0537 29.7207 34.0879 29.7207C34.1084 29.7207 34.1255 29.7253 34.1392 29.7344C34.1528 29.7412 34.1642 29.7549 34.1733 29.7754C34.1825 29.7959 34.1882 29.8255 34.1904 29.8643C34.195 29.9007 34.1973 29.9474 34.1973 30.0044C34.1973 30.0545 34.1961 30.0978 34.1938 30.1343C34.1916 30.1685 34.1882 30.1981 34.1836 30.2231C34.179 30.2482 34.1722 30.2699 34.1631 30.2881C34.154 30.304 34.1414 30.32 34.1255 30.3359C34.1118 30.3519 34.0719 30.3735 34.0059 30.4009C33.9398 30.4282 33.8555 30.4556 33.7529 30.4829C33.6504 30.508 33.533 30.5296 33.4009 30.5479C33.2687 30.5684 33.1274 30.5786 32.9771 30.5786C32.7059 30.5786 32.4678 30.5444 32.2627 30.4761C32.0599 30.4077 31.8901 30.304 31.7534 30.165C31.6167 30.026 31.5142 29.8506 31.4458 29.6387C31.3797 29.4268 31.3467 29.1784 31.3467 28.8936C31.3467 28.6224 31.382 28.3786 31.4526 28.1621C31.5233 27.9434 31.6258 27.7588 31.7603 27.6084C31.8947 27.4557 32.0576 27.3395 32.249 27.2598C32.4427 27.18 32.6603 27.1401 32.9019 27.1401C33.1571 27.1401 33.3747 27.1777 33.5547 27.2529C33.737 27.3281 33.8862 27.4329 34.0024 27.5674C34.1187 27.6995 34.2041 27.8568 34.2588 28.0391C34.3135 28.2214 34.3408 28.4196 34.3408 28.6338V28.7705ZM33.5068 28.5244C33.5137 28.2829 33.4647 28.0938 33.3599 27.957C33.2573 27.818 33.0978 27.7485 32.8813 27.7485C32.772 27.7485 32.6763 27.769 32.5942 27.8101C32.5145 27.8511 32.4473 27.9069 32.3926 27.9775C32.3402 28.0459 32.2992 28.1279 32.2695 28.2236C32.2422 28.3171 32.2262 28.4173 32.2217 28.5244H33.5068ZM37.9434 30.3838C37.9434 30.4089 37.9377 30.4305 37.9263 30.4487C37.9149 30.4647 37.8955 30.4784 37.8682 30.4897C37.8408 30.5011 37.8032 30.5091 37.7554 30.5137C37.7098 30.5182 37.6528 30.5205 37.5845 30.5205C37.5116 30.5205 37.4523 30.5182 37.4067 30.5137C37.3612 30.5091 37.3236 30.5011 37.2939 30.4897C37.2666 30.4784 37.2461 30.4647 37.2324 30.4487C37.221 30.4305 37.2153 30.4089 37.2153 30.3838V30.0454C37.0581 30.214 36.8929 30.3451 36.7197 30.4385C36.5488 30.5319 36.3586 30.5786 36.1489 30.5786C35.9165 30.5786 35.7194 30.5342 35.5576 30.4453C35.3981 30.3542 35.2671 30.2323 35.1646 30.0796C35.0643 29.9269 34.9914 29.7492 34.9458 29.5464C34.9002 29.3413 34.8774 29.126 34.8774 28.9004C34.8774 28.6292 34.9059 28.3854 34.9629 28.1689C35.0221 27.9525 35.1076 27.7679 35.2192 27.6152C35.3309 27.4626 35.4699 27.3452 35.6362 27.2632C35.8026 27.1812 35.994 27.1401 36.2104 27.1401C36.3813 27.1401 36.5363 27.1755 36.6753 27.2461C36.8143 27.3145 36.9521 27.4159 37.0889 27.5503V25.8994C37.0889 25.8766 37.0946 25.8561 37.106 25.8379C37.1196 25.8197 37.1424 25.8049 37.1743 25.7935C37.2085 25.7798 37.2529 25.7695 37.3076 25.7627C37.3623 25.7559 37.4318 25.7524 37.5161 25.7524C37.6004 25.7524 37.6699 25.7559 37.7246 25.7627C37.7793 25.7695 37.8226 25.7798 37.8545 25.7935C37.8864 25.8049 37.9092 25.8197 37.9229 25.8379C37.9365 25.8561 37.9434 25.8766 37.9434 25.8994V30.3838ZM37.0889 28.3467C36.9658 28.1917 36.8473 28.0732 36.7334 27.9912C36.6217 27.9092 36.5044 27.8682 36.3813 27.8682C36.2697 27.8682 36.1729 27.8966 36.0908 27.9536C36.0111 28.0083 35.9461 28.0824 35.896 28.1758C35.8481 28.2692 35.8117 28.374 35.7866 28.4902C35.7638 28.6042 35.7524 28.7215 35.7524 28.8423C35.7524 28.9699 35.7627 29.0941 35.7832 29.2148C35.8037 29.3356 35.8368 29.4438 35.8823 29.5396C35.9302 29.633 35.9928 29.7082 36.0703 29.7651C36.1478 29.8221 36.2458 29.8506 36.3643 29.8506C36.4235 29.8506 36.4805 29.8426 36.5352 29.8267C36.5921 29.8084 36.6491 29.7799 36.7061 29.7412C36.7653 29.7025 36.8257 29.6523 36.8872 29.5908C36.9487 29.527 37.016 29.4495 37.0889 29.3584V28.3467ZM40.77 27.6187C40.77 27.7007 40.7677 27.7679 40.7632 27.8203C40.7586 27.8727 40.7518 27.9137 40.7427 27.9434C40.7336 27.973 40.721 27.9935 40.7051 28.0049C40.6914 28.0163 40.6732 28.022 40.6504 28.022C40.6322 28.022 40.6117 28.0186 40.5889 28.0117C40.5661 28.0026 40.5399 27.9935 40.5103 27.9844C40.4829 27.9753 40.4521 27.9673 40.418 27.9604C40.3838 27.9513 40.3462 27.9468 40.3052 27.9468C40.2573 27.9468 40.2095 27.957 40.1616 27.9775C40.1138 27.9958 40.0636 28.0254 40.0112 28.0664C39.9611 28.1074 39.9076 28.1621 39.8506 28.2305C39.7959 28.2988 39.7367 28.3831 39.6729 28.4834V30.3838C39.6729 30.4066 39.666 30.4271 39.6523 30.4453C39.6387 30.4613 39.6147 30.4749 39.5806 30.4863C39.5487 30.4977 39.5054 30.5057 39.4507 30.5103C39.396 30.5171 39.3265 30.5205 39.2422 30.5205C39.1579 30.5205 39.0884 30.5171 39.0337 30.5103C38.979 30.5057 38.9346 30.4977 38.9004 30.4863C38.8685 30.4749 38.8457 30.4613 38.832 30.4453C38.8184 30.4271 38.8115 30.4066 38.8115 30.3838V27.335C38.8115 27.3122 38.8172 27.2928 38.8286 27.2769C38.84 27.2586 38.8605 27.2438 38.8901 27.2324C38.9198 27.221 38.9574 27.2131 39.0029 27.2085C39.0508 27.2017 39.11 27.1982 39.1807 27.1982C39.2536 27.1982 39.314 27.2017 39.3618 27.2085C39.4097 27.2131 39.4461 27.221 39.4712 27.2324C39.4985 27.2438 39.5179 27.2586 39.5293 27.2769C39.5407 27.2928 39.5464 27.3122 39.5464 27.335V27.7144C39.6261 27.6004 39.7013 27.507 39.772 27.4341C39.8426 27.3589 39.9098 27.2996 39.9736 27.2563C40.0374 27.2131 40.1012 27.1834 40.165 27.1675C40.2288 27.1493 40.2926 27.1401 40.3564 27.1401C40.3861 27.1401 40.418 27.1424 40.4521 27.147C40.4863 27.1493 40.5216 27.1549 40.5581 27.1641C40.5946 27.1709 40.6265 27.18 40.6538 27.1914C40.6812 27.2005 40.7005 27.2108 40.7119 27.2222C40.7256 27.2336 40.7347 27.2461 40.7393 27.2598C40.7461 27.2734 40.7518 27.2928 40.7563 27.3179C40.7609 27.3407 40.7643 27.376 40.7666 27.4238C40.7689 27.4717 40.77 27.5366 40.77 27.6187ZM44.2939 28.8286C44.2939 29.0884 44.2598 29.3254 44.1914 29.5396C44.123 29.7537 44.0194 29.9383 43.8804 30.0933C43.7414 30.2482 43.5671 30.3678 43.3574 30.4521C43.1478 30.5365 42.9028 30.5786 42.6226 30.5786C42.3514 30.5786 42.1156 30.541 41.915 30.4658C41.7145 30.3906 41.5482 30.2812 41.416 30.1377C41.2839 29.9941 41.1859 29.8175 41.1221 29.6079C41.0583 29.3983 41.0264 29.159 41.0264 28.8901C41.0264 28.6304 41.0605 28.3934 41.1289 28.1792C41.1995 27.9627 41.3044 27.7782 41.4434 27.6255C41.5824 27.4705 41.7555 27.3509 41.9629 27.2666C42.1725 27.1823 42.4175 27.1401 42.6978 27.1401C42.9712 27.1401 43.2082 27.1777 43.4087 27.2529C43.6092 27.3258 43.7744 27.4341 43.9043 27.5776C44.0365 27.7212 44.1344 27.8978 44.1982 28.1074C44.262 28.3171 44.2939 28.5575 44.2939 28.8286ZM43.4087 28.8628C43.4087 28.7124 43.3962 28.5745 43.3711 28.4492C43.3483 28.3216 43.3084 28.2111 43.2515 28.1177C43.1945 28.0243 43.1182 27.9513 43.0225 27.8989C42.929 27.8465 42.8105 27.8203 42.667 27.8203C42.5394 27.8203 42.4277 27.8442 42.332 27.8921C42.2363 27.9377 42.1577 28.006 42.0962 28.0972C42.0347 28.186 41.988 28.2943 41.9561 28.4219C41.9264 28.5472 41.9116 28.6908 41.9116 28.8525C41.9116 29.0029 41.9242 29.1419 41.9492 29.2695C41.9743 29.3949 42.0142 29.5042 42.0688 29.5977C42.1258 29.6911 42.2021 29.764 42.2979 29.8164C42.3936 29.8665 42.512 29.8916 42.6533 29.8916C42.7832 29.8916 42.896 29.8688 42.9917 29.8232C43.0874 29.7754 43.166 29.707 43.2275 29.6182C43.2891 29.5293 43.3346 29.4222 43.3643 29.2969C43.3939 29.1693 43.4087 29.0246 43.4087 28.8628ZM47.2847 29.8984C47.2847 29.9577 47.2824 30.0078 47.2778 30.0488C47.2756 30.0876 47.271 30.1206 47.2642 30.1479C47.2596 30.1753 47.2528 30.1981 47.2437 30.2163C47.2368 30.2323 47.2197 30.2539 47.1924 30.2812C47.165 30.3063 47.1183 30.3382 47.0522 30.377C46.9862 30.4134 46.911 30.4465 46.8267 30.4761C46.7424 30.5057 46.6501 30.5296 46.5498 30.5479C46.4518 30.5661 46.3504 30.5752 46.2456 30.5752C46.0109 30.5752 45.8024 30.5387 45.6201 30.4658C45.4401 30.3929 45.2886 30.2858 45.1655 30.1445C45.0425 30.001 44.9491 29.8267 44.8853 29.6216C44.8237 29.4165 44.793 29.1818 44.793 28.9175C44.793 28.6121 44.8306 28.349 44.9058 28.1279C44.9832 27.9046 45.0903 27.7201 45.2271 27.5742C45.3638 27.4284 45.5256 27.3201 45.7124 27.2495C45.8993 27.1789 46.1043 27.1436 46.3276 27.1436C46.4188 27.1436 46.5076 27.1515 46.5942 27.1675C46.6831 27.1834 46.7651 27.2051 46.8403 27.2324C46.9178 27.2598 46.9862 27.2905 47.0454 27.3247C47.1069 27.3589 47.1502 27.3885 47.1753 27.4136C47.2004 27.4386 47.2174 27.4603 47.2266 27.4785C47.238 27.4945 47.2459 27.5161 47.2505 27.5435C47.2573 27.5708 47.2619 27.605 47.2642 27.646C47.2687 27.6847 47.271 27.7326 47.271 27.7896C47.271 27.9217 47.2596 28.0151 47.2368 28.0698C47.214 28.1222 47.1844 28.1484 47.1479 28.1484C47.1092 28.1484 47.0682 28.1325 47.0249 28.1006C46.9816 28.0687 46.9303 28.0334 46.8711 27.9946C46.8118 27.9559 46.7412 27.9206 46.6592 27.8887C46.5771 27.8568 46.4792 27.8408 46.3652 27.8408C46.1419 27.8408 45.971 27.9274 45.8525 28.1006C45.734 28.2715 45.6748 28.5233 45.6748 28.856C45.6748 29.02 45.6896 29.1647 45.7192 29.29C45.7489 29.4154 45.7922 29.5202 45.8491 29.6045C45.9084 29.6888 45.9813 29.7526 46.0679 29.7959C46.1567 29.8369 46.2593 29.8574 46.3755 29.8574C46.494 29.8574 46.5954 29.8403 46.6797 29.8062C46.7663 29.7697 46.8415 29.7298 46.9053 29.6865C46.9691 29.6432 47.0226 29.6045 47.0659 29.5703C47.1092 29.5339 47.1457 29.5156 47.1753 29.5156C47.1958 29.5156 47.2129 29.5213 47.2266 29.5327C47.2402 29.5441 47.2505 29.5658 47.2573 29.5977C47.2664 29.6273 47.2733 29.666 47.2778 29.7139C47.2824 29.7617 47.2847 29.8232 47.2847 29.8984ZM50.7437 30.3872C50.7437 30.41 50.7368 30.4305 50.7231 30.4487C50.7118 30.4647 50.689 30.4784 50.6548 30.4897C50.6229 30.4989 50.5785 30.5057 50.5215 30.5103C50.4645 30.5171 50.3905 30.5205 50.2993 30.5205C50.2059 30.5205 50.1296 30.5182 50.0703 30.5137C50.0133 30.5091 49.9655 30.5023 49.9268 30.4932C49.8903 30.4818 49.8618 30.467 49.8413 30.4487C49.8208 30.4305 49.8026 30.4066 49.7866 30.377L48.7715 28.7705V30.3838C48.7715 30.4066 48.7646 30.4271 48.751 30.4453C48.7373 30.4613 48.7134 30.4749 48.6792 30.4863C48.6473 30.4977 48.604 30.5057 48.5493 30.5103C48.4946 30.5171 48.4251 30.5205 48.3408 30.5205C48.2565 30.5205 48.187 30.5171 48.1323 30.5103C48.0776 30.5057 48.0332 30.4977 47.999 30.4863C47.9671 30.4749 47.9443 30.4613 47.9307 30.4453C47.917 30.4271 47.9102 30.4066 47.9102 30.3838V25.8892C47.9102 25.8664 47.917 25.8459 47.9307 25.8276C47.9443 25.8094 47.9671 25.7946 47.999 25.7832C48.0332 25.7695 48.0776 25.7593 48.1323 25.7524C48.187 25.7456 48.2565 25.7422 48.3408 25.7422C48.4251 25.7422 48.4946 25.7456 48.5493 25.7524C48.604 25.7593 48.6473 25.7695 48.6792 25.7832C48.7134 25.7946 48.7373 25.8094 48.751 25.8276C48.7646 25.8459 48.7715 25.8664 48.7715 25.8892V28.5654L49.6738 27.3521C49.6921 27.3247 49.7126 27.3008 49.7354 27.2803C49.7581 27.2598 49.7878 27.2438 49.8242 27.2324C49.863 27.221 49.9097 27.2131 49.9644 27.2085C50.0213 27.2017 50.0931 27.1982 50.1797 27.1982C50.264 27.1982 50.3346 27.2017 50.3916 27.2085C50.4508 27.2131 50.4976 27.221 50.5317 27.2324C50.5682 27.2438 50.5933 27.2586 50.6069 27.2769C50.6206 27.2928 50.6274 27.3133 50.6274 27.3384C50.6274 27.3726 50.6183 27.409 50.6001 27.4478C50.5841 27.4865 50.5591 27.5275 50.5249 27.5708L49.6328 28.5825L50.665 30.1787C50.6924 30.2243 50.7118 30.2642 50.7231 30.2983C50.7368 30.3302 50.7437 30.3599 50.7437 30.3872Z" fill="black"/>
</svg>
