<svg width="889" height="197" viewBox="0 0 889 197" fill="none" xmlns="http://www.w3.org/2000/svg">
<path d="M251.304 134.402V63.6645H270.016V90.0006H291.122V63.6645H309.834V134.402H291.122V106.325H270.016V134.402H251.304ZM340.474 135.708C334.526 135.708 330.211 133.713 327.527 129.723C324.844 125.66 323.502 120.255 323.502 113.507V79.9891H342.214V111.113C342.214 114.596 342.65 116.917 343.52 118.078C344.462 119.239 345.841 119.819 347.654 119.819C349.394 119.819 350.845 119.457 352.006 118.731C353.166 118.006 354.327 116.772 355.487 115.031V79.9891H374.199V134.402H358.968L357.662 127.22H357.227C355.052 129.832 352.622 131.9 349.938 133.423C347.328 134.947 344.173 135.708 340.474 135.708ZM406.632 156.821C402.498 156.821 398.69 156.35 395.208 155.406C391.728 154.535 388.936 153.121 386.832 151.161C384.801 149.203 383.786 146.591 383.786 143.326C383.786 139.046 386.324 135.563 391.401 132.879V132.443C390.011 131.415 388.798 130.165 387.811 128.744C386.868 127.22 386.397 125.333 386.397 123.084C386.397 121.198 386.941 119.348 388.029 117.534C389.189 115.72 390.676 114.161 392.489 112.855V112.419C390.53 111.114 388.791 109.263 387.268 106.869C385.817 104.402 385.091 101.609 385.091 98.4895C385.091 93.9908 386.179 90.2913 388.355 87.389C390.603 84.4139 393.505 82.2379 397.058 80.8593C400.613 79.4086 404.384 78.6823 408.373 78.6823C411.563 78.6823 414.465 79.1179 417.075 79.9891H437.311V93.4832H429.478C429.695 94.1366 429.877 94.9708 430.022 95.9859C430.239 97.0019 430.348 98.0539 430.348 99.1419C430.348 103.423 429.37 106.906 427.411 109.59C425.453 112.201 422.806 114.125 419.469 115.357C416.133 116.591 412.434 117.208 408.373 117.208C406.56 117.208 404.528 116.954 402.28 116.445C401.409 117.244 400.975 118.296 400.975 119.601C400.975 120.762 401.555 121.597 402.716 122.105C403.948 122.613 405.907 122.866 408.59 122.866H416.75C423.567 122.866 428.825 123.991 432.524 126.24C436.296 128.417 438.181 132.008 438.181 137.014C438.181 140.932 436.876 144.378 434.265 147.353C431.726 150.327 428.1 152.649 423.385 154.317C418.671 155.987 413.086 156.821 406.632 156.821ZM408.373 106.107C410.113 106.107 411.527 105.491 412.615 104.257C413.704 103.024 414.247 101.101 414.247 98.4895C414.247 95.9499 413.704 94.0997 412.615 92.9388C411.527 91.7059 410.113 91.0895 408.373 91.0895C406.632 91.0895 405.218 91.7059 404.13 92.9388C403.041 94.0997 402.498 95.9499 402.498 98.4895C402.498 101.101 403.041 103.024 404.13 104.257C405.218 105.491 406.632 106.107 408.373 106.107ZM409.678 145.285C412.724 145.285 415.263 144.813 417.293 143.87C419.324 142.999 420.339 141.802 420.339 140.279C420.339 138.828 419.687 137.921 418.382 137.558C417.148 137.196 415.372 137.014 413.051 137.014H408.808C406.632 137.014 404.964 136.942 403.803 136.796C402.716 136.724 401.773 136.579 400.975 136.361C399.67 137.667 399.017 138.973 399.017 140.279C399.017 142.02 399.995 143.29 401.954 144.088C403.985 144.886 406.56 145.285 409.678 145.285ZM466.021 156.821C461.886 156.821 458.079 156.35 454.598 155.406C451.116 154.535 448.324 153.121 446.221 151.161C444.19 149.203 443.174 146.591 443.174 143.326C443.174 139.046 445.713 135.563 450.79 132.879V132.443C449.399 131.415 448.186 130.165 447.2 128.744C446.256 127.22 445.785 125.333 445.785 123.084C445.785 121.198 446.329 119.348 447.417 117.534C448.577 115.72 450.065 114.161 451.878 112.855V112.419C449.92 111.114 448.179 109.263 446.656 106.869C445.205 104.402 444.48 101.609 444.48 98.4895C444.48 93.9908 445.568 90.2913 447.744 87.389C449.992 84.4139 452.893 82.2379 456.447 80.8593C460.001 79.4086 463.772 78.6823 467.761 78.6823C470.953 78.6823 473.854 79.1179 476.465 79.9891H496.7V93.4832H488.867C489.084 94.1366 489.265 94.9708 489.411 95.9859C489.628 97.0019 489.737 98.0539 489.737 99.1419C489.737 103.423 488.758 106.906 486.799 109.59C484.842 112.201 482.194 114.125 478.858 115.357C475.522 116.591 471.823 117.208 467.761 117.208C465.948 117.208 463.918 116.954 461.669 116.445C460.799 117.244 460.363 118.296 460.363 119.601C460.363 120.762 460.944 121.597 462.104 122.105C463.338 122.613 465.295 122.866 467.979 122.866H476.138C482.955 122.866 488.213 123.991 491.913 126.24C495.684 128.417 497.569 132.008 497.569 137.014C497.569 140.932 496.264 144.378 493.653 147.353C491.115 150.327 487.488 152.649 482.775 154.317C478.061 155.987 472.476 156.821 466.021 156.821ZM467.761 106.107C469.502 106.107 470.916 105.491 472.004 104.257C473.092 103.024 473.636 101.101 473.636 98.4895C473.636 95.9499 473.092 94.0997 472.004 92.9388C470.916 91.7059 469.502 91.0895 467.761 91.0895C466.021 91.0895 464.606 91.7059 463.518 92.9388C462.431 94.0997 461.886 95.9499 461.886 98.4895C461.886 101.101 462.431 103.024 463.518 104.257C464.606 105.491 466.021 106.107 467.761 106.107ZM469.067 145.285C472.113 145.285 474.651 144.813 476.682 143.87C478.713 142.999 479.728 141.802 479.728 140.279C479.728 138.828 479.075 137.921 477.77 137.558C476.538 137.196 474.76 137.014 472.439 137.014H468.196C466.021 137.014 464.352 136.942 463.192 136.796C462.104 136.724 461.161 136.579 460.363 136.361C459.058 137.667 458.405 138.973 458.405 140.279C458.405 142.02 459.385 143.29 461.343 144.088C463.373 144.886 465.948 145.285 469.067 145.285ZM505.61 134.402V79.9891H524.322V134.402H505.61ZM514.966 73.2415C511.92 73.2415 509.453 72.4073 507.567 70.7388C505.682 68.9974 504.739 66.7116 504.739 63.8823C504.739 61.053 505.682 58.8031 507.567 57.1347C509.453 55.3934 511.92 54.5232 514.966 54.5232C518.012 54.5232 520.478 55.3934 522.363 57.1347C524.249 58.8031 525.192 61.053 525.192 63.8823C525.192 66.7116 524.249 68.9974 522.363 70.7388C520.478 72.4073 518.012 73.2415 514.966 73.2415ZM536.951 134.402V79.9891H552.181L553.486 86.5179H553.922C556.097 84.4139 558.564 82.6006 561.319 81.077C564.148 79.4806 567.412 78.6823 571.111 78.6823C577.13 78.6823 581.445 80.7144 584.057 84.7775C586.741 88.7677 588.082 94.1366 588.082 100.883V134.402H569.37V103.278C569.37 99.7952 568.935 97.4735 568.065 96.3126C567.194 95.1517 565.817 94.5712 563.93 94.5712C562.19 94.5712 560.739 94.9339 559.579 95.6602C558.418 96.3855 557.113 97.4015 555.663 98.7073V134.402H536.951ZM620.07 156.821C615.936 156.821 612.128 156.35 608.647 155.406C605.166 154.535 602.374 153.121 600.27 151.161C598.239 149.203 597.224 146.591 597.224 143.326C597.224 139.046 599.762 135.563 604.839 132.879V132.443C603.449 131.415 602.236 130.165 601.249 128.744C600.306 127.22 599.835 125.333 599.835 123.084C599.835 121.198 600.379 119.348 601.467 117.534C602.627 115.72 604.114 114.161 605.927 112.855V112.419C603.969 111.114 602.228 109.263 600.705 106.869C599.255 104.402 598.53 101.609 598.53 98.4895C598.53 93.9908 599.617 90.2913 601.793 87.389C604.041 84.4139 606.943 82.2379 610.496 80.8593C614.051 79.4086 617.822 78.6823 621.811 78.6823C625.002 78.6823 627.903 79.1179 630.513 79.9891H650.748V93.4832H642.915C643.133 94.1366 643.315 94.9708 643.46 95.9859C643.677 97.0019 643.786 98.0539 643.786 99.1419C643.786 103.423 642.808 106.906 640.849 109.59C638.891 112.201 636.243 114.125 632.907 115.357C629.571 116.591 625.872 117.208 621.811 117.208C619.997 117.208 617.967 116.954 615.718 116.445C614.848 117.244 614.413 118.296 614.413 119.601C614.413 120.762 614.993 121.597 616.154 122.105C617.386 122.613 619.345 122.866 622.028 122.866H630.188C637.005 122.866 642.263 123.991 645.963 126.24C649.734 128.417 651.619 132.008 651.619 137.014C651.619 140.932 650.314 144.378 647.702 147.353C645.165 150.327 641.538 152.649 636.823 154.317C632.109 155.987 626.525 156.821 620.07 156.821ZM621.811 106.107C623.551 106.107 624.966 105.491 626.053 104.257C627.142 103.024 627.685 101.101 627.685 98.4895C627.685 95.9499 627.142 94.0997 626.053 92.9388C624.966 91.7059 623.551 91.0895 621.811 91.0895C620.07 91.0895 618.656 91.7059 617.568 92.9388C616.479 94.0997 615.936 95.9499 615.936 98.4895C615.936 101.101 616.479 103.024 617.568 104.257C618.656 105.491 620.07 106.107 621.811 106.107ZM623.116 145.285C626.162 145.285 628.701 144.813 630.731 143.87C632.763 142.999 633.777 141.802 633.777 140.279C633.777 138.828 633.125 137.921 631.82 137.558C630.586 137.196 628.81 137.014 626.489 137.014H622.246C620.07 137.014 618.402 136.942 617.241 136.796C616.154 136.724 615.21 136.579 614.413 136.361C613.107 137.667 612.455 138.973 612.455 140.279C612.455 142.02 613.433 143.29 615.392 144.088C617.422 144.886 619.997 145.285 623.116 145.285ZM682.961 134.402V63.6645H729.088V79.3357H701.673V92.8299H725.172V108.501H701.673V134.402H682.961ZM749.551 135.708C746.142 135.708 743.205 134.947 740.739 133.423C738.385 131.87 736.473 129.733 735.191 127.22C733.885 124.681 733.233 121.923 733.233 118.949C733.233 113.289 735.554 108.865 740.195 105.672C744.837 102.407 752.38 100.231 762.824 99.1419C762.388 95.3695 759.85 93.4832 755.209 93.4832C753.25 93.4832 751.183 93.8819 749.007 94.6801C746.831 95.4054 744.33 96.5304 741.5 98.0539L734.974 85.8655C738.818 83.5437 742.698 81.7664 746.614 80.5326C750.595 79.3008 754.739 78.6772 758.907 78.6823C766.015 78.6823 771.564 80.7144 775.552 84.7775C779.541 88.7677 781.536 95.2246 781.536 104.148V134.402H766.305L765 129.178H764.564C762.388 131.137 760.067 132.734 757.601 133.967C755.209 135.128 752.525 135.708 749.551 135.708ZM756.078 121.343C757.601 121.343 758.871 121.016 759.886 120.364C760.901 119.638 761.881 118.731 762.824 117.643V110.242C758.399 110.896 755.317 111.875 753.577 113.181C751.909 114.487 751.074 115.902 751.074 117.426C751.074 120.037 752.743 121.343 756.078 121.343ZM818.322 135.708C813.172 135.708 808.53 134.583 804.397 132.334C800.262 130.085 796.962 126.857 794.496 122.649C792.102 118.369 790.906 113.217 790.906 107.195C790.906 101.174 792.248 96.0588 794.932 91.8508C797.687 87.5699 801.278 84.306 805.702 82.0561C810.125 79.8072 814.912 78.6823 820.061 78.6823C823.325 78.6823 826.263 79.1908 828.874 80.2059C831.558 81.2219 833.915 82.6006 835.945 84.3419L827.242 96.3126C826.082 95.2975 825.03 94.6082 824.087 94.2455C823.151 93.8829 822.154 93.699 821.15 93.7011C817.669 93.7011 814.949 94.9339 812.991 97.4015C811.032 99.7953 810.053 103.06 810.053 107.195C810.053 111.331 811.069 114.632 813.099 117.099C815.13 119.493 817.596 120.69 820.497 120.69C822.02 120.69 823.507 120.364 824.957 119.71C826.444 119.007 827.865 118.168 829.201 117.208L836.381 129.396C833.697 131.791 830.724 133.459 827.46 134.402C824.196 135.273 821.15 135.708 818.322 135.708ZM866.995 135.708C861.7 135.708 856.913 134.583 852.635 132.334C848.428 130.085 845.091 126.857 842.626 122.649C840.16 118.369 838.927 113.217 838.927 107.195C838.927 101.319 840.16 96.2766 842.626 92.0686C845.164 87.7877 848.428 84.4868 852.417 82.165C856.406 79.8432 860.613 78.6823 865.037 78.6823C870.404 78.6823 874.828 79.8802 878.309 82.2739C881.863 84.5957 884.474 87.7517 886.142 91.7419C887.882 95.7321 888.753 100.158 888.753 105.019C888.753 106.615 888.644 108.175 888.427 109.699C888.282 111.149 888.136 112.201 887.991 112.855H856.986C857.856 116.12 859.416 118.405 861.664 119.71C863.912 120.944 866.56 121.561 869.606 121.561C873.087 121.561 876.786 120.473 880.703 118.296L886.795 129.396C883.894 131.427 880.63 132.988 877.003 134.076C873.377 135.164 870.041 135.708 866.995 135.708ZM856.768 100.665H872.87C872.87 98.5614 872.325 96.7481 871.238 95.2246C870.222 93.6281 868.301 92.8299 865.472 92.8299C863.441 92.8299 861.628 93.4473 860.032 94.6801C858.436 95.9139 857.349 97.909 856.768 100.665Z" fill="#000B1B"/>
<path d="M211.084 144.769C210.532 142.687 209.639 140.711 208.44 138.922C208.697 137.979 208.892 137.021 209.024 136.054C209.874 129.915 207.747 124.294 203.737 119.945C201.565 117.569 199.236 116.002 196.771 115.039C198.389 108.112 199.209 101.022 199.213 93.9075C199.213 90.6591 199.029 87.4764 198.721 84.3409C198.56 82.7752 198.366 81.2126 198.139 79.6552C197.432 75.0599 196.385 70.5236 195.004 66.084C194.099 63.1671 193.053 60.2959 191.869 57.481C190.093 53.3125 188.02 49.2769 185.665 45.4056C184.119 42.8307 182.437 40.3405 180.624 37.9461C179.736 36.7369 178.811 35.5563 177.847 34.4058C174.994 30.9369 171.895 27.6795 168.57 24.6594C167.467 23.6442 166.332 22.664 165.167 21.7202C164.02 20.7629 162.847 19.8363 161.65 18.9412C159.242 17.1483 156.753 15.4661 154.191 13.9001C140.038 5.3012 123.441 0.370972 105.702 0.370972C54.0528 0.370972 12.1913 42.2476 12.1913 93.9116C12.19 101.115 13.0243 108.294 14.6777 115.305C12.4594 116.269 10.3325 117.77 8.36164 119.942C4.35224 124.289 2.2243 129.89 3.07568 136.029C3.20406 137.005 3.39919 137.97 3.65799 138.92C2.4602 140.71 1.56702 142.687 1.01449 144.769C-0.217905 149.455 0.18776 153.68 1.75393 157.382C0.0521966 162.222 0.477371 167.375 2.69466 171.855C4.30705 175.127 6.61472 177.658 9.45848 179.921C12.8404 182.609 17.0737 184.895 22.1809 187.087C28.2731 189.686 35.7086 192.128 39.0905 193.024C47.8261 195.287 56.2023 196.721 64.6924 196.79C76.7864 196.903 87.2022 194.057 94.6603 186.776C98.3236 187.225 102.011 187.45 105.702 187.449C109.601 187.441 113.496 187.194 117.366 186.714C124.806 194.041 135.262 196.912 147.401 196.796C155.889 196.729 164.265 195.295 172.978 193.029C176.383 192.133 183.816 189.691 189.911 187.093C195.019 184.896 199.251 182.611 202.656 179.926C205.479 177.664 207.784 175.132 209.398 171.86C211.638 167.38 212.041 162.227 210.361 157.387C211.913 153.686 212.315 149.451 211.084 144.769ZM202.417 157.069C204.133 160.326 204.243 164.007 202.728 167.436C200.432 172.632 194.728 176.724 183.65 181.118C176.762 183.851 170.453 185.598 170.397 185.614C161.286 187.978 153.045 189.178 145.912 189.178C134.099 189.178 125.31 185.919 119.735 179.479C110.309 181.085 100.683 181.139 91.2383 179.64C85.6576 185.973 76.9168 189.178 65.2039 189.178C58.0694 189.178 49.8298 187.978 40.7183 185.614C40.6618 185.598 34.357 183.851 27.4659 181.118C16.3876 176.724 10.6827 172.634 8.38732 167.436C6.8725 164.007 6.98238 160.326 8.6985 157.069C8.85768 156.767 9.02714 156.471 9.20892 156.186C8.18028 154.641 7.49044 152.895 7.1845 151.064C6.87866 149.233 6.9638 147.357 7.43426 145.561C8.11619 142.97 9.52523 140.815 11.4375 139.267C10.5167 137.753 9.91231 136.068 9.6608 134.313C9.11032 130.497 10.3756 126.687 13.2245 123.581C15.4418 121.164 18.5772 119.834 22.0495 119.834H22.1419C19.5244 111.441 18.1971 102.7 18.2054 93.9086C18.2054 45.9604 57.064 7.08775 105.001 7.08775C152.939 7.08775 191.797 45.9573 191.797 93.9086C191.803 102.723 190.467 111.487 187.834 119.899C188.253 119.858 188.664 119.837 189.066 119.837C192.537 119.837 195.674 121.166 197.891 123.583C200.738 126.687 202.006 130.5 201.455 134.315C201.203 136.07 200.599 137.756 199.678 139.27C201.59 140.817 202.999 142.972 203.681 145.564C204.151 147.36 204.236 149.235 203.93 151.067C203.624 152.898 202.935 154.643 201.907 156.189C202.088 156.471 202.26 156.767 202.417 157.069Z" fill="white"/>
<path d="M201.907 156.189C202.935 154.643 203.624 152.898 203.93 151.067C204.236 149.235 204.151 147.36 203.681 145.564C202.999 142.973 201.59 140.818 199.678 139.27C200.598 137.756 201.203 136.071 201.455 134.316C202.005 130.501 200.74 126.69 197.891 123.584C195.674 121.167 192.537 119.837 189.066 119.837C188.662 119.837 188.253 119.857 187.834 119.899C190.464 111.487 191.798 102.723 191.79 93.9096C191.79 45.9623 152.931 7.08878 104.998 7.08878C57.0649 7.08878 18.2022 45.9582 18.2022 93.9096C18.1939 102.701 19.5212 111.442 22.1387 119.835H22.0463C18.575 119.835 15.4396 121.165 13.2223 123.582C10.3755 126.686 9.10814 130.498 9.65861 134.314C9.90992 136.069 10.5143 137.754 11.4353 139.268C9.52305 140.816 8.114 142.971 7.4331 145.563C6.96294 147.359 6.87811 149.235 7.18436 151.067C7.49061 152.898 8.18086 154.644 9.20981 156.189C9.02598 156.474 8.85755 156.77 8.69939 157.072C6.9843 160.329 6.87339 164.01 8.38821 167.439C10.6836 172.634 16.3885 176.728 27.4668 181.121C34.3549 183.855 40.6637 185.601 40.7192 185.617C49.8307 187.981 58.0703 189.182 65.2039 189.182C76.9178 189.182 85.6576 185.977 91.2393 179.643C100.684 181.142 110.31 181.088 119.736 179.482C125.31 185.922 134.1 189.182 145.913 189.182C153.046 189.182 161.287 187.981 170.398 185.617C170.454 185.601 176.76 183.855 183.651 181.121C194.729 176.728 200.434 172.634 202.729 167.439C204.244 164.01 204.134 160.329 202.418 157.072C202.261 156.767 202.088 156.472 201.907 156.189ZM87.2453 169.73C86.7647 170.571 86.2501 171.392 85.7017 172.19C84.2588 174.303 82.3609 175.917 80.159 177.118C75.9473 179.414 70.6182 180.218 65.2028 180.218C56.65 180.218 47.8815 178.215 42.9662 176.94C42.7249 176.877 12.8403 168.433 16.6237 161.246C17.2605 160.038 18.309 159.555 19.6277 159.555C24.9547 159.555 34.6548 167.49 38.8245 167.49C39.7549 167.49 40.4121 167.092 40.6801 166.126C42.4569 159.751 13.6773 157.072 16.101 147.842C16.5292 146.209 17.6887 145.546 19.3206 145.546C26.3627 145.545 42.1703 157.935 45.4762 157.935C45.7299 157.935 45.9117 157.861 46.0103 157.705L46.0534 157.634C47.6042 155.07 46.7148 153.207 36.0833 146.693L35.0625 146.072C23.3649 138.988 15.1531 134.727 19.8238 129.642C20.361 129.054 21.122 128.794 22.0473 128.794C23.1452 128.794 24.4731 129.162 25.9355 129.777C32.1139 132.384 40.6771 139.492 44.2541 142.592C45.3088 143.511 45.9302 144.072 45.9302 144.072C45.9302 144.072 50.4592 148.783 53.1982 148.783C53.8288 148.783 54.3628 148.536 54.7254 147.92C56.6685 144.645 36.6882 129.5 35.5616 123.252C34.7985 119.017 36.0977 116.873 38.5019 116.873C39.6439 116.873 41.0386 117.359 42.578 118.336C47.3536 121.368 56.574 137.218 59.9497 143.383C61.0815 145.45 63.0133 146.324 64.754 146.324C68.2078 146.324 70.9078 142.889 65.0703 138.525C56.2967 131.957 59.3756 121.224 63.5627 120.563C63.7414 120.535 63.9222 120.521 64.1019 120.52C67.91 120.52 69.5902 127.085 69.5902 127.085C69.5902 127.085 74.5126 139.452 82.9699 147.905C90.6447 155.578 91.7158 161.876 87.2453 169.73ZM114.593 171.178L114.155 171.231L113.406 171.317C113.013 171.357 112.619 171.396 112.224 171.433L111.838 171.468L111.487 171.498L110.986 171.538C110.803 171.551 110.619 171.565 110.435 171.577L109.884 171.614L109.763 171.621L109.33 171.647L109.146 171.656L108.633 171.682L108.036 171.706L107.494 171.725L107.132 171.735H106.949C106.836 171.735 106.724 171.741 106.611 171.742H106.432C106.319 171.742 106.207 171.742 106.094 171.748L105.635 171.753H104.992C104.488 171.753 103.985 171.748 103.483 171.739L103.077 171.73C102.961 171.73 102.845 171.724 102.73 171.721L102.3 171.707L101.764 171.687L101.282 171.666L101.157 171.661L100.698 171.636C100.571 171.629 100.443 171.623 100.317 171.615L100.02 171.597C99.6473 171.574 99.2745 171.547 98.9017 171.518L98.5115 171.487L98.0185 171.445L97.4424 171.392C97.1209 171.362 96.7995 171.329 96.478 171.293H96.4626C101.156 160.819 98.7826 151.038 89.2983 141.558C83.0788 135.344 78.94 126.167 78.0824 124.153C76.3447 118.189 71.7448 111.559 64.107 111.559C63.461 111.56 62.8171 111.612 62.1793 111.712C58.8324 112.238 55.9075 114.166 53.8206 117.065C51.5663 114.259 49.3737 112.029 47.3916 110.768C44.403 108.874 41.4216 107.912 38.5152 107.912C34.8899 107.912 31.6477 109.402 29.3883 112.104L29.3318 112.173L29.2045 111.637L29.1993 111.615C28.7696 109.776 28.4086 107.921 28.1169 106.055C28.1169 106.041 28.1169 106.029 28.1107 106.017L28.047 105.595C28.0126 105.367 27.979 105.137 27.9464 104.909C27.9197 104.719 27.893 104.529 27.8683 104.34C27.8437 104.151 27.817 103.961 27.7944 103.771C27.7697 103.58 27.7471 103.39 27.7245 103.2C27.7029 103.019 27.682 102.838 27.6619 102.657L27.6558 102.611C27.5632 101.777 27.4838 100.942 27.4175 100.106L27.3815 99.6216C27.3713 99.4891 27.362 99.3555 27.3538 99.221C27.3538 99.1901 27.3497 99.1583 27.3476 99.1295L27.3139 98.5933C27.3015 98.3991 27.2922 98.2049 27.2819 98.0108C27.2716 97.8176 27.2614 97.6234 27.2532 97.4282L27.2326 96.9197L27.2265 96.7656L27.211 96.2951L27.1999 95.8965C27.1999 95.7372 27.1926 95.577 27.1895 95.4177L27.1813 94.9154C27.1792 94.7479 27.1813 94.5815 27.1772 94.414C27.172 94.2455 27.1772 94.0781 27.1772 93.9096C27.1772 50.9131 62.0243 16.0543 105.01 16.0543C147.996 16.0543 182.842 50.911 182.842 93.9096V94.9154C182.842 95.0828 182.838 95.2513 182.834 95.4177C182.834 95.5575 182.829 95.6941 182.825 95.8338C182.825 95.9581 182.82 96.0814 182.815 96.2016C182.815 96.3588 182.805 96.5149 182.8 96.6721V96.6855C182.787 97.0266 182.773 97.3676 182.758 97.7087L182.752 97.8217L182.725 98.3313L182.701 98.735C182.643 99.6915 182.568 100.648 182.477 101.602V101.616C182.46 101.794 182.442 101.974 182.422 102.153C182.377 102.569 182.331 102.985 182.285 103.401L182.232 103.819L182.168 104.31C182.145 104.49 182.12 104.669 182.095 104.848C182.067 105.048 182.037 105.247 182.009 105.447L181.937 105.917L181.852 106.451C181.824 106.629 181.795 106.806 181.761 106.984C181.726 107.16 181.699 107.337 181.669 107.515C181.607 107.868 181.543 108.22 181.475 108.573C181.338 109.275 181.195 109.974 181.044 110.673C181.006 110.846 180.967 111.021 180.927 111.195C178.737 109.065 175.836 107.905 172.636 107.905C169.733 107.905 166.748 108.866 163.761 110.761C161.778 112.021 159.587 114.252 157.331 117.058C155.241 114.158 152.316 112.231 148.973 111.704C148.335 111.605 147.69 111.553 147.044 111.552C139.405 111.552 134.808 118.182 133.069 124.145C132.207 126.16 128.069 135.336 121.842 141.56C112.365 151.009 109.973 160.748 114.593 171.178ZM194.946 150.212L194.915 150.304C194.893 150.362 194.872 150.421 194.848 150.478C194.811 150.566 194.772 150.651 194.731 150.736C194.631 150.94 194.518 151.137 194.394 151.326C194.223 151.582 194.035 151.826 193.83 152.056C193.783 152.11 193.738 152.162 193.685 152.214C193.613 152.294 193.536 152.371 193.46 152.448C192.076 153.819 189.969 155.02 187.586 156.123C187.316 156.246 187.043 156.368 186.766 156.49L186.49 156.613C186.307 156.694 186.124 156.775 185.931 156.854C185.743 156.934 185.554 157.013 185.365 157.091L184.792 157.329C183.451 157.88 182.078 158.405 180.738 158.925L180.166 159.147L179.599 159.369C179.223 159.516 178.852 159.663 178.485 159.81L177.94 160.029L177.405 160.249L177.141 160.359C176.966 160.433 176.793 160.505 176.623 160.579C172.681 162.27 169.847 163.991 170.442 166.127C170.459 166.187 170.477 166.245 170.498 166.3C170.551 166.459 170.624 166.609 170.715 166.748C170.768 166.833 170.83 166.912 170.898 166.984C171.599 167.711 172.873 167.596 174.481 167.018C174.611 166.971 174.745 166.921 174.879 166.867C174.972 166.833 175.063 166.796 175.155 166.759L175.294 166.7C175.662 166.544 176.051 166.37 176.449 166.18C176.549 166.134 176.65 166.089 176.75 166.035C178.715 165.075 180.943 163.779 183.153 162.601C183.492 162.417 183.831 162.241 184.169 162.067C184.722 161.78 185.28 161.504 185.842 161.24C187.935 160.255 189.902 159.557 191.485 159.557C192.226 159.557 192.882 159.709 193.428 160.058L193.519 160.119C193.795 160.314 194.036 160.553 194.232 160.829C194.277 160.893 194.324 160.96 194.364 161.029C194.408 161.1 194.449 161.173 194.488 161.247C195.269 162.73 194.615 164.268 193.085 165.775C191.615 167.222 189.329 168.641 186.73 169.955C186.538 170.052 186.344 170.15 186.148 170.244C178.414 174.043 168.288 176.905 168.146 176.941C165.447 177.64 161.588 178.56 157.24 179.247L156.596 179.347L156.492 179.362C155.506 179.51 154.517 179.64 153.526 179.753L153.434 179.763C151.632 179.968 149.783 180.117 147.932 180.18H147.904C147.238 180.204 146.574 180.216 145.909 180.216H145.142C144.128 180.201 143.114 180.156 142.102 180.078C142.079 180.078 142.054 180.078 142.03 180.073C141.668 180.045 141.305 180.011 140.945 179.971C140.325 179.904 139.705 179.822 139.088 179.726C138.848 179.686 138.591 179.643 138.344 179.6C138.231 179.58 138.119 179.559 138.007 179.537L137.98 179.532C137.624 179.464 137.269 179.389 136.916 179.308C136.712 179.261 136.506 179.215 136.304 179.161L136.183 179.129C136.082 179.104 135.984 179.077 135.885 179.051L135.831 179.036L135.513 178.945C135.398 178.912 135.284 178.878 135.169 178.844L135.128 178.832L134.829 178.74C134.716 178.706 134.604 178.669 134.492 178.633C134.4 178.602 134.309 178.57 134.216 178.54L134.014 178.469C133.819 178.401 133.626 178.33 133.433 178.256L133.25 178.185L133.099 178.124C132.808 178.007 132.519 177.885 132.232 177.756L132.041 177.665L132.009 177.65C131.941 177.619 131.875 177.587 131.807 177.558C131.674 177.494 131.543 177.429 131.412 177.362L131.373 177.342L131.184 177.243C130.849 177.068 130.519 176.881 130.196 176.682L130.02 176.574C129.928 176.518 129.845 176.462 129.758 176.405L129.528 176.252C129.445 176.197 129.362 176.14 129.28 176.082L129.132 175.977C128.976 175.865 128.823 175.751 128.672 175.633C128.592 175.571 128.513 175.507 128.434 175.449C128.259 175.308 128.087 175.163 127.918 175.014L127.91 175.008C127.745 174.865 127.584 174.717 127.427 174.566L127.418 174.556C127.336 174.478 127.256 174.4 127.176 174.319C127.097 174.238 127.017 174.157 126.94 174.076C126.862 173.994 126.784 173.911 126.708 173.826C126.634 173.746 126.562 173.664 126.49 173.582L126.465 173.554C126.095 173.124 125.747 172.673 125.426 172.203L125.299 172.015C125.214 171.891 125.131 171.766 125.049 171.64L124.807 171.268C124.688 171.086 124.572 170.902 124.459 170.717C124.377 170.585 124.297 170.454 124.218 170.321C124.152 170.208 124.085 170.096 124.021 169.985C123.985 169.925 123.951 169.863 123.917 169.802C123.884 169.738 123.843 169.673 123.807 169.608L123.75 169.507C123.73 169.473 123.724 169.463 123.714 169.44C123.644 169.318 123.576 169.193 123.511 169.067C123.481 169.013 123.451 168.957 123.419 168.903L123.327 168.726L123.235 168.55L123.059 168.194C123.03 168.135 123.002 168.077 122.975 168.018C122.914 167.892 122.856 167.767 122.799 167.643C122.776 167.593 122.753 167.542 122.732 167.492C122.653 167.321 122.578 167.147 122.507 166.971C122.459 166.855 122.415 166.74 122.368 166.625C122.235 166.286 122.111 165.944 121.997 165.598C121.963 165.495 121.929 165.393 121.899 165.29C121.825 165.057 121.759 164.822 121.699 164.585C121.626 164.308 121.561 164.029 121.507 163.748C121.472 163.583 121.441 163.417 121.416 163.249C121.388 163.084 121.364 162.918 121.345 162.754C121.303 162.426 121.273 162.097 121.255 161.768C121.255 161.713 121.25 161.658 121.249 161.603C121.244 161.494 121.241 161.386 121.24 161.277C121.182 156.888 123.404 152.666 128.152 147.919C136.608 139.467 141.531 127.099 141.531 127.099C141.531 127.099 141.664 126.58 141.94 125.834C142.033 125.587 142.129 125.34 142.231 125.097C142.347 124.821 142.471 124.549 142.605 124.282L142.644 124.204C142.815 123.863 143.001 123.531 143.203 123.207C143.25 123.132 143.295 123.057 143.348 122.983C143.498 122.759 143.657 122.543 143.825 122.332C143.954 122.171 144.092 122.015 144.237 121.867C144.727 121.361 145.287 120.948 145.921 120.727L146.001 120.702C146.054 120.684 146.107 120.668 146.161 120.652C146.225 120.636 146.289 120.621 146.352 120.607L146.381 120.602C146.515 120.575 146.65 120.557 146.787 120.548H146.799C146.87 120.548 146.941 120.54 147.014 120.54C147.195 120.541 147.376 120.556 147.556 120.584C148.318 120.704 149.044 121.158 149.668 121.858L149.753 121.957C149.956 122.195 150.141 122.45 150.305 122.717C150.428 122.916 150.544 123.124 150.654 123.343C150.698 123.435 150.741 123.52 150.783 123.61C150.803 123.656 150.824 123.702 150.843 123.749C150.884 123.84 150.922 123.933 150.96 124.029C151.175 124.58 151.341 125.148 151.458 125.727C151.583 126.353 151.655 126.988 151.675 127.626C151.682 127.906 151.682 128.19 151.675 128.478C151.67 128.587 151.665 128.696 151.657 128.806C151.572 130.028 151.306 131.23 150.867 132.373C150.823 132.486 150.774 132.601 150.729 132.716C150.508 133.245 150.252 133.756 149.962 134.249C149.797 134.531 149.618 134.81 149.427 135.088L149.31 135.254C148.857 135.887 148.352 136.481 147.799 137.029C147.255 137.575 146.672 138.079 146.054 138.54C145.435 138.998 144.855 139.505 144.319 140.057C142.775 141.678 142.416 143.107 142.763 144.191C142.804 144.313 142.852 144.433 142.908 144.549C143.036 144.801 143.202 145.032 143.402 145.234L143.456 145.288C143.513 145.343 143.572 145.395 143.633 145.445L143.694 145.496C143.844 145.611 144.002 145.713 144.168 145.803C144.215 145.828 144.259 145.854 144.314 145.879C144.541 145.992 144.778 146.082 145.022 146.151L145.09 146.169L145.181 146.193L145.261 146.213L145.347 146.231L145.432 146.249L145.513 146.262C145.574 146.273 145.635 146.283 145.696 146.291L145.755 146.299L145.861 146.31L145.927 146.316L146.036 146.325H146.098L146.211 146.33H146.568L146.67 146.325L146.787 146.317L146.929 146.304L147.063 146.288C147.093 146.288 147.123 146.279 147.154 146.274C147.625 146.206 148.083 146.073 148.516 145.88C148.608 145.841 148.7 145.798 148.784 145.752C148.965 145.662 149.14 145.56 149.309 145.448C149.544 145.294 149.766 145.121 149.974 144.932L150.119 144.794C150.142 144.771 150.165 144.75 150.187 144.726C150.329 144.584 150.462 144.434 150.586 144.277C150.806 144 151.001 143.705 151.171 143.395C153.181 139.739 155.287 136.138 157.488 132.594L157.79 132.11L158.095 131.625C158.248 131.381 158.401 131.138 158.554 130.899L158.709 130.658L159.018 130.176C159.433 129.534 159.849 128.899 160.268 128.27L160.581 127.802C161.21 126.871 161.837 125.965 162.458 125.103L162.768 124.678C163.442 123.745 164.146 122.833 164.876 121.944L165.167 121.597C165.214 121.538 165.258 121.481 165.311 121.425L165.595 121.095C165.642 121.041 165.687 120.987 165.737 120.935L166.012 120.624L166.151 120.474C166.284 120.329 166.42 120.186 166.557 120.044C166.65 119.953 166.735 119.86 166.824 119.775C167.345 119.242 167.919 118.764 168.538 118.35L168.681 118.259L168.826 118.166C168.918 118.109 169.012 118.053 169.107 118.001C171.535 116.623 173.546 116.521 174.702 117.678C175.404 118.38 175.791 119.542 175.771 121.158C175.771 121.23 175.771 121.301 175.764 121.375V121.455C175.764 121.528 175.758 121.603 175.753 121.678C175.753 121.769 175.742 121.862 175.733 121.953C175.723 122.045 175.719 122.115 175.71 122.196C175.71 122.22 175.705 122.244 175.702 122.267C175.695 122.339 175.685 122.412 175.676 122.484C175.676 122.507 175.676 122.528 175.667 122.551C175.657 122.649 175.642 122.746 175.625 122.843C175.613 122.932 175.599 123.021 175.582 123.111C175.574 123.162 175.564 123.213 175.556 123.264C175.529 123.41 175.494 123.555 175.452 123.696C175.373 123.961 175.277 124.221 175.163 124.474C175.113 124.584 175.061 124.694 175.007 124.802C174.897 125.025 174.771 125.253 174.634 125.489C174.565 125.605 174.494 125.725 174.418 125.846L174.303 126.028C174.186 126.212 174.064 126.398 173.936 126.586C173.809 126.774 173.672 126.966 173.526 127.161C173.336 127.42 173.135 127.684 172.924 127.951L172.764 128.153C172.311 128.717 171.846 129.272 171.372 129.817L170.995 130.244L170.803 130.459C170.541 130.752 170.278 131.043 170.013 131.332L169.81 131.551C169.675 131.697 169.535 131.845 169.4 131.992C169.262 132.141 169.123 132.289 168.983 132.437L168.56 132.883L168.132 133.33C167.989 133.479 167.845 133.63 167.7 133.779L166.828 134.678C162.664 138.95 158.276 143.209 156.791 145.863C156.692 146.037 156.603 146.215 156.522 146.397C156.311 146.879 156.223 147.292 156.282 147.626C156.302 147.736 156.341 147.842 156.397 147.938C156.481 148.082 156.583 148.216 156.7 148.335C156.755 148.389 156.811 148.439 156.873 148.484C157.178 148.702 157.547 148.814 157.922 148.803H158.039L158.16 148.794L158.281 148.78L158.38 148.766C158.394 148.765 158.407 148.762 158.42 148.758L158.512 148.741L158.536 148.735L158.637 148.713L158.673 148.704L158.781 148.676L158.909 148.638C158.993 148.613 159.078 148.584 159.164 148.552C159.35 148.486 159.532 148.41 159.709 148.325C159.755 148.303 159.801 148.283 159.845 148.259L159.981 148.191C160.16 148.101 160.338 148.003 160.517 147.898C160.659 147.813 160.801 147.727 160.943 147.636L161.08 147.544C161.126 147.515 161.172 147.486 161.217 147.452L161.354 147.36L161.425 147.31L161.623 147.172C161.806 147.045 161.978 146.914 162.153 146.782L162.168 146.771L162.443 146.557C162.82 146.259 163.179 145.959 163.502 145.676L163.718 145.486L163.738 145.468L163.85 145.368C164.115 145.131 164.351 144.909 164.549 144.725L164.629 144.647L164.823 144.463L164.939 144.35L164.979 144.309L164.99 144.298C165.089 144.199 165.089 144.199 165.187 144.099L165.196 144.091L165.233 144.058C165.244 144.046 165.259 144.034 165.277 144.018L165.291 144.005L165.33 143.97L165.539 143.786L165.656 143.68C165.713 143.631 165.776 143.574 165.839 143.514L165.98 143.391C166.005 143.37 166.029 143.346 166.055 143.324L166.202 143.195L166.419 143.006L166.533 142.907C166.979 142.517 167.524 142.048 168.147 141.519L168.403 141.303L168.826 140.949L169.257 140.587C169.822 140.118 170.43 139.62 171.073 139.102L171.495 138.763C171.855 138.478 172.224 138.185 172.598 137.891C172.748 137.773 172.901 137.655 173.057 137.538C173.44 137.242 173.825 136.947 174.212 136.656C175.093 135.991 176.002 135.324 176.921 134.674L177.316 134.399C177.591 134.208 177.867 134.018 178.143 133.832L178.392 133.663C178.886 133.33 179.385 133.004 179.887 132.686L180.136 132.528L180.384 132.374C180.631 132.221 180.879 132.069 181.123 131.922L181.369 131.776L181.861 131.49C182.022 131.396 182.182 131.305 182.342 131.215L182.439 131.16L182.821 130.952C182.979 130.865 183.138 130.782 183.295 130.701L183.532 130.58L183.76 130.464C184.281 130.202 184.812 129.959 185.352 129.737C185.426 129.706 185.499 129.677 185.572 129.645C185.717 129.584 185.861 129.529 186.004 129.479C186.146 129.431 186.287 129.381 186.426 129.331C186.552 129.289 186.674 129.25 186.793 129.213L186.833 129.201C186.897 129.181 186.961 129.163 187.024 129.146L187.043 129.141C187.172 129.104 187.302 129.07 187.432 129.04H187.442C187.634 128.993 187.821 128.954 188.004 128.924C188.067 128.913 188.128 128.903 188.188 128.895C188.366 128.868 188.544 128.85 188.723 128.837C188.836 128.829 188.95 128.826 189.063 128.826H189.149C189.264 128.826 189.375 128.833 189.485 128.844C189.535 128.844 189.586 128.854 189.635 128.861H189.656C189.705 128.866 189.755 128.874 189.803 128.884C189.852 128.895 189.901 128.902 189.948 128.913H189.965C190.012 128.924 190.056 128.937 190.105 128.95C190.498 129.056 190.858 129.255 191.157 129.531L191.184 129.557L191.236 129.609L191.287 129.663C191.699 130.097 192.04 130.593 192.297 131.133L192.337 131.225C192.424 131.43 192.493 131.643 192.541 131.861C192.675 132.468 192.639 133.101 192.437 133.688C192.349 133.944 192.243 134.193 192.116 134.431L192.032 134.583C191.712 135.12 191.334 135.621 190.903 136.075L190.811 136.172C190.609 136.387 190.398 136.596 190.181 136.796C190.113 136.861 190.042 136.926 189.97 136.99L189.861 137.089C189.635 137.289 189.404 137.484 189.17 137.675C189.129 137.708 189.087 137.741 189.047 137.776C188.883 137.908 188.715 138.041 188.54 138.175C187.938 138.635 187.325 139.079 186.701 139.507C186.333 139.759 185.953 140.013 185.561 140.271C184.83 140.75 184.093 141.22 183.35 141.68C183.135 141.813 182.92 141.947 182.7 142.081C180.68 143.324 178.44 144.653 176.051 146.099L175.433 146.475C174.756 146.888 174.117 147.282 173.516 147.657L173.213 147.848L172.64 148.216C172.413 148.36 172.192 148.502 171.978 148.641C171.816 148.745 171.657 148.848 171.502 148.95L171.196 149.151C171.047 149.249 170.9 149.346 170.752 149.446L170.608 149.537C170.456 149.639 170.308 149.739 170.164 149.837L169.929 149.997L169.653 150.19L169.398 150.367C168.995 150.65 168.598 150.938 168.204 151.232L168.066 151.337C167.911 151.454 167.761 151.571 167.616 151.685L167.427 151.836C167.109 152.092 166.82 152.338 166.559 152.572L166.432 152.689C166.359 152.756 166.287 152.823 166.219 152.888C166.171 152.934 166.127 152.98 166.079 153.025L166.012 153.091C165.865 153.238 165.722 153.389 165.584 153.544L165.516 153.622C165.365 153.797 165.234 153.964 165.117 154.127L165.066 154.201C164.933 154.397 164.815 154.603 164.714 154.818L164.679 154.893L164.657 154.945L164.64 154.99L164.616 155.053C164.609 155.075 164.595 155.113 164.587 155.145C164.544 155.268 164.514 155.394 164.493 155.522L164.483 155.591L164.475 155.654L164.469 155.715V156.037C164.469 156.064 164.469 156.092 164.476 156.119C164.477 156.136 164.479 156.152 164.481 156.169C164.481 156.195 164.488 156.222 164.491 156.25L164.511 156.363V156.368C164.518 156.404 164.525 156.44 164.534 156.476C164.543 156.512 164.553 156.552 164.564 156.59C164.597 156.706 164.637 156.821 164.683 156.933C164.683 156.941 164.69 156.95 164.693 156.959C164.706 156.986 164.717 157.015 164.73 157.043C164.781 157.16 164.837 157.274 164.899 157.386L164.963 157.502L165.031 157.619L165.102 157.736C165.114 157.756 165.128 157.773 165.143 157.791L165.167 157.816L165.191 157.838L165.219 157.86C165.238 157.873 165.257 157.884 165.278 157.896C165.298 157.905 165.321 157.915 165.343 157.923C165.368 157.932 165.393 157.939 165.417 157.945C166.01 158.079 167.228 157.587 168.846 156.733L169.136 156.579L169.628 156.31L169.869 156.177C170.04 156.084 170.216 155.982 170.393 155.88L170.719 155.696C172.858 154.464 175.414 152.881 178.056 151.336C178.302 151.191 178.551 151.047 178.799 150.904L179.298 150.585C179.548 150.441 179.796 150.299 180.046 150.16C181.108 149.556 182.184 148.975 183.272 148.419L183.76 148.172C184.084 148.012 184.406 147.855 184.723 147.703C185.338 147.412 185.959 147.135 186.587 146.873L186.931 146.734L186.973 146.717C188.795 145.995 190.447 145.548 191.785 145.548C192.074 145.546 192.363 145.57 192.648 145.619H192.656C192.749 145.635 192.832 145.654 192.916 145.675H192.932C193.055 145.705 193.176 145.743 193.293 145.79C193.387 145.824 193.477 145.864 193.564 145.912C193.947 146.106 194.275 146.392 194.519 146.746C194.54 146.776 194.56 146.806 194.578 146.838C194.668 146.976 194.746 147.121 194.81 147.273C194.848 147.36 194.883 147.451 194.916 147.548C194.949 147.647 194.977 147.741 195.007 147.843C195.225 148.622 195.203 149.446 194.946 150.212Z" fill="#FF9D00"/>
<path fill-rule="evenodd" clip-rule="evenodd" d="M182.83 94.413V93.9096C182.83 50.9111 147.996 16.0544 105.009 16.0544C62.0243 16.0544 27.1773 50.9132 27.1773 93.9096L27.1763 94.0781C27.1753 94.1901 27.1742 94.301 27.1763 94.413C27.1812 94.5804 27.183 94.7479 27.1814 94.9154L27.1876 95.2852L27.1896 95.4188L27.1948 95.6016C27.1968 95.7003 27.1999 95.7978 27.1999 95.8965L27.2102 96.2961L27.2266 96.7656L27.2317 96.9197L27.2523 97.4056V97.4282L27.281 97.9964V98.0108C27.2913 98.2049 27.3016 98.3991 27.3139 98.5922C27.3242 98.772 27.3355 98.9508 27.3478 99.1295L27.3509 99.1614C27.3599 99.3144 27.3702 99.4685 27.3817 99.6216L27.3848 99.6617C27.395 99.8096 27.4063 99.9586 27.4187 100.105L27.4207 100.134L27.4413 100.391C27.5028 101.132 27.5747 101.873 27.6569 102.611L27.6621 102.657L27.7237 103.2L27.7945 103.771C27.8421 104.151 27.8928 104.53 27.9465 104.909C27.9786 105.138 28.0119 105.367 28.0462 105.595L28.0513 105.622C28.128 106.138 28.2108 106.654 28.2998 107.167C28.5552 108.658 28.8552 110.142 29.1995 111.615L29.2046 111.638L29.2375 111.777C29.2683 111.909 29.2991 112.04 29.332 112.173L29.3884 112.104C31.6478 109.402 34.889 107.912 38.5154 107.912C41.4218 107.912 44.4042 108.873 47.3917 110.768C49.3738 112.028 51.5655 114.259 53.8207 117.065C55.9076 114.165 58.8324 112.238 62.1784 111.712C62.8172 111.612 63.4621 111.56 64.1071 111.559C71.7449 111.559 76.3448 118.19 78.0825 124.153C78.94 126.168 83.0788 135.343 89.3189 141.551C98.8032 151.03 101.177 160.812 96.4832 171.286H96.4986C96.819 171.321 97.1405 171.354 97.463 171.384C97.655 171.402 97.8471 171.421 98.0391 171.437L98.1069 171.443C98.2476 171.457 98.3893 171.469 98.531 171.479L98.9213 171.511C99.2931 171.54 99.6659 171.565 100.041 171.59L100.337 171.608L100.572 171.621L100.719 171.629L101.177 171.654L101.302 171.659L101.785 171.68L102.32 171.7L102.751 171.712L102.823 171.715C102.913 171.719 103.006 171.723 103.097 171.723L103.195 171.725C103.801 171.739 104.405 171.746 105.011 171.746H105.654L106.114 171.741C106.227 171.735 106.339 171.735 106.452 171.735H106.631L106.786 171.732C106.847 171.73 106.908 171.728 106.969 171.728H107.153L107.513 171.718L108.055 171.699L108.653 171.673C108.825 171.666 108.995 171.658 109.167 171.649L109.35 171.638L109.623 171.623L109.784 171.614L109.904 171.607L110.456 171.57C110.639 171.558 110.823 171.544 111.007 171.53L111.506 171.49L111.858 171.461L112.244 171.426C112.639 171.389 113.033 171.35 113.426 171.309C113.676 171.281 113.925 171.253 114.174 171.223L114.613 171.171C109.992 160.74 112.384 151.002 121.831 141.56C128.056 135.337 132.195 126.16 133.058 124.145C134.796 118.182 139.392 111.552 147.032 111.552C147.678 111.553 148.323 111.604 148.961 111.705C152.304 112.231 155.23 114.159 157.32 117.058C159.576 114.252 161.766 112.021 163.749 110.761C166.736 108.866 169.721 107.905 172.624 107.905C175.824 107.905 178.725 109.066 180.916 111.195C181.036 110.658 181.152 110.122 181.263 109.584C181.331 109.248 181.398 108.911 181.463 108.573C181.543 108.158 181.619 107.741 181.689 107.324C181.708 107.211 181.727 107.098 181.749 106.984C181.783 106.806 181.812 106.63 181.84 106.451L181.851 106.384L181.924 105.918L181.996 105.447L181.997 105.442C182.026 105.244 182.056 105.046 182.083 104.848C182.104 104.698 182.125 104.548 182.144 104.397L182.156 104.31L182.22 103.819L182.273 103.401C182.304 103.126 182.335 102.851 182.365 102.574C182.378 102.464 182.39 102.353 182.401 102.242L182.411 102.153C182.431 101.969 182.448 101.786 182.465 101.602L182.506 101.175C182.591 100.228 182.66 99.2805 182.713 98.3313V98.3251L182.741 97.8217L182.746 97.7087L182.767 97.231C182.775 97.0512 182.782 96.8694 182.788 96.6855V96.6721L182.793 96.5396C182.798 96.4266 182.802 96.3136 182.802 96.2016L182.805 96.1554C182.809 96.0506 182.813 95.9417 182.813 95.8338L182.816 95.7413C182.819 95.6335 182.822 95.5266 182.822 95.4188L182.824 95.3273C182.827 95.1897 182.83 95.053 182.83 94.9154V94.413ZM85.7059 172.19C91.8689 163.147 91.4324 156.361 82.9751 147.906C74.5178 139.451 69.5953 127.086 69.5953 127.086C69.5953 127.086 67.758 119.902 63.5679 120.563C59.3777 121.223 56.304 131.955 65.0766 138.525C73.8492 145.095 63.3317 149.549 59.9549 143.384C56.5772 137.218 47.3589 121.369 42.5782 118.338C37.7985 115.306 34.4372 117.005 35.5638 123.254C36.1235 126.355 41.3283 131.648 46.1912 136.594C51.1249 141.612 55.7063 146.271 54.7276 147.92C52.7835 151.195 45.9365 144.073 45.9365 144.073C45.9365 144.073 24.4968 124.556 19.8291 129.643C15.527 134.33 22.1614 138.315 32.3862 144.457C33.2561 144.98 34.1517 145.518 35.0688 146.073C46.7663 153.158 47.6762 155.026 46.0166 157.707C45.4035 158.697 41.4875 156.345 36.6709 153.452C28.46 148.521 17.6324 142.019 16.1042 147.839C14.7804 152.876 22.7458 155.962 29.9697 158.762C35.9879 161.094 41.4926 163.227 40.6834 166.122C39.8443 169.122 35.2957 166.62 30.323 163.883C24.7413 160.81 18.6255 157.444 16.6249 161.243C12.8414 168.424 42.7209 176.878 42.9664 176.94C52.6202 179.444 77.1366 184.751 85.7059 172.19ZM125.414 172.19C119.25 163.147 119.687 156.361 128.145 147.906C136.602 139.451 141.525 127.086 141.525 127.086C141.525 127.086 143.362 119.902 147.552 120.563C151.742 121.223 154.817 131.955 146.043 138.525C137.269 145.095 147.788 149.549 151.166 143.384C154.543 137.218 163.757 121.369 168.536 118.338C173.316 115.306 176.678 117.005 175.552 123.254C174.992 126.355 169.787 131.649 164.923 136.595C159.991 141.612 155.409 146.271 156.388 147.92C158.331 151.195 165.184 144.069 165.184 144.069C165.184 144.069 186.623 124.552 191.291 129.639C195.593 134.326 188.957 138.312 178.732 144.455C177.863 144.977 176.968 145.514 176.051 146.07C164.352 153.153 163.444 155.023 165.103 157.702C165.716 158.693 169.632 156.341 174.448 153.449C182.66 148.518 193.487 142.015 195.016 147.835C196.339 152.872 188.374 155.959 181.149 158.759C175.131 161.091 169.627 163.222 170.435 166.118C171.274 169.119 175.821 166.616 180.792 163.879C186.373 160.806 192.49 157.438 194.492 161.239C198.275 168.425 168.392 176.87 168.149 176.932C158.495 179.444 133.979 184.751 125.414 172.19Z" fill="#FFD21E"/>
<path fill-rule="evenodd" clip-rule="evenodd" d="M130.287 72.7176C131.5 73.147 132.402 74.4548 133.261 75.6979C134.422 77.3796 135.502 78.9433 137.16 78.0618C139.116 77.0221 140.719 75.4256 141.768 73.4737C142.816 71.5222 143.262 69.3034 143.049 67.098C142.891 65.449 142.369 63.8555 141.521 62.4326C140.673 61.0096 139.52 59.7926 138.145 58.8692C136.77 57.9458 135.207 57.339 133.57 57.0926C131.932 56.8461 130.26 56.9662 128.674 57.444C126.554 58.0829 124.67 59.3362 123.261 61.0456C121.853 62.7549 120.982 64.8436 120.759 67.0476C120.538 69.2522 120.974 71.473 122.013 73.4295C122.782 74.875 124.486 74.1938 126.286 73.4737C127.697 72.9097 129.165 72.322 130.287 72.7176ZM77.5237 72.7186C76.3109 73.148 75.4071 74.4558 74.5485 75.6989C73.388 77.3796 72.3076 78.9443 70.65 78.0628C69.1886 77.2851 67.9182 76.192 66.9292 74.8637C65.9402 73.5353 65.2583 72.0046 64.9317 70.3805C64.6051 68.7568 64.6421 67.081 65.0406 65.4735C65.4401 63.8661 66.1898 62.3669 67.2363 61.0839C68.2848 59.8017 69.6035 58.7678 71.0988 58.0565C72.5941 57.3453 74.2291 56.9746 75.8846 56.9709C77.5402 56.9673 79.1762 57.3309 80.6746 58.0355C82.173 58.7401 83.4968 59.7683 84.5505 61.0459C85.9595 62.7552 86.8304 64.8443 87.0533 67.0489C87.2751 69.2535 86.8386 71.4744 85.7983 73.4305C85.028 74.876 83.3232 74.1938 81.5239 73.4737C80.1138 72.9097 78.6452 72.322 77.5237 72.7186ZM122.124 120.748C130.487 114.156 133.559 103.397 133.559 96.7687C133.559 91.5292 130.034 93.1781 124.393 95.9715L124.076 96.1297C118.896 98.695 112.003 102.11 104.436 102.11C96.8683 102.11 89.9751 98.6939 84.798 96.1287C78.9739 93.2429 75.3208 91.4327 75.3208 96.7697C75.3208 103.607 78.5887 114.835 87.5596 121.358C88.7427 118.954 90.4085 116.82 92.4543 115.09C94.499 113.36 96.8796 112.072 99.4461 111.305C100.342 111.037 101.264 112.58 102.209 114.158C103.12 115.681 104.05 117.239 104.998 117.239C106.007 117.239 106.999 115.704 107.967 114.205C108.979 112.639 109.965 111.112 110.919 111.418C115.721 112.96 119.738 116.304 122.124 120.748Z" fill="#32343D"/>
<path d="M122.121 120.747C117.766 124.18 111.976 126.483 104.438 126.483C97.3551 126.483 91.8144 124.45 87.5596 121.357C88.7437 118.954 90.4105 116.82 92.4553 115.091C94.5 113.361 96.8806 112.072 99.4461 111.304C101.205 110.779 103.068 117.237 104.997 117.237C107.062 117.237 109.052 110.82 110.919 111.417C115.719 112.96 119.734 116.304 122.121 120.747Z" fill="#FF323D"/>
<path fill-rule="evenodd" clip-rule="evenodd" d="M57.5271 82.0397C56.7324 82.5749 55.84 82.9478 54.901 83.1369C53.9619 83.3259 52.9948 83.328 52.055 83.143C51.1152 82.9571 50.2212 82.5883 49.4242 82.0571C48.6273 81.525 47.9431 80.8418 47.4108 80.0446C46.8785 79.2484 46.5087 78.3536 46.3225 77.4146C46.1363 76.4745 46.1373 75.5068 46.3256 74.5668C46.5138 73.6278 46.8857 72.735 47.4196 71.9388C47.9537 71.1435 48.6394 70.4612 49.4375 69.9313C51.0427 68.8656 53.0047 68.4799 54.8937 68.8586C56.7827 69.2374 58.4446 70.3498 59.5153 71.9522C60.5854 73.5548 60.9778 75.516 60.605 77.4064C60.2322 79.2977 59.125 80.964 57.5271 82.0397ZM161.677 82.0397C160.882 82.5749 159.99 82.9478 159.051 83.1369C158.112 83.3259 157.145 83.328 156.205 83.143C155.266 82.9571 154.371 82.5883 153.574 82.0571C152.777 81.525 152.093 80.8418 151.561 80.0446C151.028 79.2484 150.658 78.3536 150.473 77.4146C150.287 76.4745 150.288 75.5068 150.476 74.5668C150.664 73.6278 151.035 72.735 151.569 71.9388C152.103 71.1435 152.789 70.4612 153.587 69.9313C155.193 68.8656 157.155 68.4799 159.044 68.8586C160.932 69.2374 162.594 70.3498 163.665 71.9522C164.735 73.5548 165.128 75.516 164.755 77.4064C164.382 79.2977 163.275 80.964 161.677 82.0397Z" fill="#FFAD03"/>
</svg>
