<svg width="401" height="108" viewBox="0 0 401 108" fill="none" xmlns="http://www.w3.org/2000/svg">
<g clip-path="url(#clip0_503_384)">
<path d="M194.858 64.9712V32.1082H201.256L202.314 36.2852C205.185 33.467 208.258 32.1082 211.482 32.1082V38.8015C208.409 38.8015 205.638 40.11 203.17 42.6767V64.9712H194.858Z" fill="white"/>
<path d="M213.951 54.7046C213.951 48.1622 218.736 44.891 228.258 44.891C230.474 44.891 232.741 45.0923 234.958 45.4949V43.0289C234.958 40.11 232.842 38.6002 228.61 38.6002C225.034 38.6002 221.003 39.1035 216.621 40.1603V33.6683C221.003 32.6114 224.983 32.1082 228.61 32.1082C238.383 32.1082 243.27 35.7316 243.27 42.9283V64.9712H238.434L235.512 62.0522C232.64 64.015 229.517 64.9712 226.041 64.9712C217.981 64.9712 213.951 61.549 213.951 54.7046ZM228.207 50.5779C224.228 50.5779 222.212 51.9367 222.212 54.6543C222.212 57.5732 223.875 59.0327 227.25 59.0327C230.021 59.0327 232.54 58.1771 234.907 56.466V51.1818C232.842 50.7792 230.625 50.5779 228.207 50.5779Z" fill="white"/>
<path d="M279.592 63.0085C274.554 64.317 269.617 64.9712 264.831 64.9712C254.202 64.9712 248.862 59.2844 248.862 47.8603C248.862 37.3421 254.051 32.0579 264.479 32.0579C266.695 32.0579 268.962 32.5612 271.28 33.618V20.1809H279.592V63.0085ZM271.28 40.6637C269.567 39.5565 267.401 38.9526 264.831 38.9526C259.693 38.9526 257.073 41.8212 257.073 47.6087C257.073 54.453 259.743 57.9255 265.134 57.9255C267.3 57.9255 269.365 57.6236 271.28 57.0197V40.6637Z" fill="white"/>
<path d="M300.649 32.1082C310.624 32.1082 315.611 37.1911 315.611 47.4073C315.611 48.7661 315.51 50.1249 315.309 51.4837H293.445C293.445 56.1137 296.871 58.4287 303.672 58.4287C306.997 58.4287 310.322 58.1268 313.646 57.4726V64.0653C310.725 64.6692 307.198 65.0215 303.067 65.0215C291.128 65.0215 285.184 59.4353 285.184 48.2125C285.184 37.4427 290.372 32.1082 300.649 32.1082ZM293.496 45.6962H307.551V45.4446C307.551 40.9152 305.234 38.6002 300.649 38.6002C296.266 38.6002 293.899 40.9656 293.496 45.6962Z" fill="white"/>
<path d="M194.606 19.8286V27.0756H181.659V64.9209H173.296V27.0756H160.35V19.8286H194.606Z" fill="white"/>
<path d="M105.388 14.7959H113.549V28.9879C116.018 27.3271 118.738 26.5219 121.711 26.5219C130.93 26.5219 135.564 31.7055 135.564 42.0727C135.564 53.2954 130.275 58.932 119.746 58.932C115.313 58.932 110.527 58.479 105.388 57.6235V14.7959ZM113.6 51.4334C115.464 52.0373 117.63 52.3392 120.098 52.3392C125.035 52.3392 127.504 48.8667 127.504 41.8714C127.504 36.1845 125.388 33.3159 121.106 33.3159C118.335 33.3159 115.816 33.8695 113.549 34.9767V51.4334H113.6Z" fill="#4FAD26"/>
<path d="M117.882 0C97.2274 0 80.5023 16.7083 80.5023 37.342C80.5023 57.9758 97.2274 74.684 117.882 74.684C138.536 74.684 155.262 57.9758 155.262 37.342C155.262 16.7083 138.536 0 117.882 0ZM117.882 66.7325C101.61 66.7325 88.4618 53.5974 88.4618 37.342C88.4618 21.0867 101.61 7.95154 117.882 7.95154C134.154 7.95154 147.302 21.137 147.302 37.342C147.302 53.5471 134.154 66.7325 117.882 66.7325Z" fill="#4FAD26"/>
<path d="M318.533 59.8379C318.986 59.8379 319.44 59.9385 319.843 60.1902C320.246 60.3915 320.599 60.7438 320.8 61.1464C321.052 61.549 321.153 62.0019 321.153 62.4549C321.153 62.9078 321.052 63.3607 320.8 63.7633C320.548 64.1659 320.246 64.5182 319.843 64.7195C319.44 64.9712 318.986 65.0718 318.533 65.0718C318.08 65.0718 317.626 64.9712 317.223 64.7195C316.82 64.4679 316.468 64.1659 316.266 63.7633C316.014 63.3607 315.913 62.9078 315.913 62.4549C315.913 62.0019 316.014 61.549 316.266 61.1464C316.518 60.7438 316.82 60.3915 317.223 60.1902C317.677 59.9385 318.13 59.8379 318.533 59.8379ZM318.583 60.3412C318.231 60.3412 317.878 60.4418 317.526 60.5928C317.173 60.7941 316.921 61.0457 316.72 61.3477C316.518 61.7 316.417 62.0522 316.417 62.4045C316.417 62.7568 316.518 63.1091 316.72 63.4614C316.921 63.8137 317.173 64.0653 317.526 64.2666C317.878 64.4679 318.231 64.5686 318.583 64.5686C318.936 64.5686 319.289 64.4679 319.641 64.2666C319.994 64.0653 320.246 63.8137 320.447 63.4614C320.649 63.1091 320.75 62.7568 320.75 62.4045C320.75 62.0522 320.649 61.7 320.447 61.3477C320.246 60.9954 319.994 60.7438 319.641 60.5928C319.289 60.4418 318.936 60.3412 318.583 60.3412ZM317.374 63.864V61.096H317.929C318.483 61.096 318.735 61.096 318.835 61.096C319.037 61.096 319.188 61.1464 319.289 61.1967C319.389 61.247 319.49 61.3477 319.541 61.4483C319.591 61.549 319.641 61.7 319.641 61.8509C319.641 62.0522 319.591 62.2032 319.44 62.3542C319.289 62.5052 319.138 62.6058 318.886 62.6058C318.986 62.6562 319.037 62.6562 319.087 62.7065C319.138 62.7568 319.188 62.8071 319.289 62.9078C319.289 62.9581 319.389 63.0588 319.49 63.2601L319.843 63.8137H319.138L318.886 63.411C318.735 63.1091 318.583 62.9078 318.483 62.8575C318.382 62.7568 318.231 62.7568 318.08 62.7568H317.929V63.9143H317.374V63.864ZM317.929 62.2535H318.18C318.533 62.2535 318.735 62.2535 318.785 62.2032C318.886 62.1529 318.936 62.1529 318.986 62.0522C319.037 62.0019 319.037 61.9013 319.037 61.8509C319.037 61.7503 319.037 61.7 318.986 61.6496C318.936 61.5993 318.886 61.549 318.785 61.4987C318.684 61.4483 318.483 61.4483 318.18 61.4483H317.929V62.2535Z" fill="white"/>
<path d="M6.95201 104.024V102.766C6.34749 103.722 5.4407 104.226 4.23166 104.226C3.476 104.226 2.72035 104.024 2.06545 103.571C1.41055 103.118 0.906784 102.565 0.554146 101.76C0.201508 101.055 0 100.149 0 99.193C0 98.2368 0.151131 97.3309 0.503769 96.5257C0.80603 95.7205 1.3098 95.1165 1.9647 94.7139C2.6196 94.3113 3.32487 94.0597 4.1309 94.0597C4.73543 94.0597 5.2392 94.1604 5.69259 94.412C6.14598 94.6636 6.54899 94.9656 6.80088 95.3682V90.5369H8.46332V104.024H6.95201ZM1.71281 99.193C1.71281 100.451 1.9647 101.357 2.51884 102.011C3.02261 102.615 3.67751 102.917 4.38279 102.917C5.08806 102.917 5.74296 102.615 6.24673 102.011C6.7505 101.407 7.00239 100.501 7.00239 99.2936C7.00239 97.9348 6.7505 96.9786 6.24673 96.3244C5.74296 95.7205 5.08807 95.3682 4.33241 95.3682C3.57676 95.3682 2.97224 95.6701 2.46847 96.2741C1.9647 96.9283 1.71281 97.8845 1.71281 99.193Z" fill="white"/>
<path d="M17.4808 102.867C16.8763 103.37 16.2718 103.773 15.7176 103.974C15.1635 104.175 14.5589 104.276 13.904 104.276C12.8461 104.276 11.9897 104.024 11.4356 103.471C10.8814 102.967 10.5792 102.263 10.5792 101.458C10.5792 100.954 10.6799 100.552 10.8814 100.149C11.0829 99.7464 11.3852 99.4445 11.7378 99.1928C12.0905 98.9412 12.4935 98.7902 12.9469 98.6393C13.2491 98.5386 13.7529 98.4883 14.4078 98.3876C15.768 98.2366 16.7251 98.0353 17.38 97.834C17.38 97.5824 17.38 97.4818 17.38 97.3811C17.38 96.7269 17.2289 96.2236 16.9266 95.972C16.5236 95.6197 15.8687 95.4184 15.0123 95.4184C14.2567 95.4184 13.6522 95.5694 13.2995 95.821C12.9469 96.0726 12.6446 96.5759 12.4935 97.2805L10.8814 97.0791C11.0326 96.3746 11.2844 95.821 11.5867 95.4184C11.9393 95.0158 12.3927 94.6635 13.0476 94.4119C13.7025 94.1602 14.4078 94.0596 15.2642 94.0596C16.1206 94.0596 16.7755 94.1602 17.2793 94.3615C17.7831 94.5628 18.1861 94.8145 18.438 95.1164C18.6898 95.4184 18.841 95.7707 18.9417 96.2236C18.9921 96.5256 19.0425 97.0288 19.0425 97.7334V99.9477C19.0425 101.508 19.0929 102.464 19.1432 102.867C19.1936 103.269 19.3447 103.672 19.5462 104.024H17.8334C17.6319 103.722 17.5312 103.32 17.4808 102.867ZM17.3297 99.1425C16.7251 99.3941 15.8184 99.5955 14.6093 99.7464C13.904 99.8471 13.4506 99.9477 13.1484 100.099C12.8461 100.199 12.6446 100.401 12.4935 100.652C12.3424 100.904 12.2416 101.156 12.2416 101.458C12.2416 101.91 12.3927 102.263 12.7454 102.565C13.098 102.867 13.5514 103.018 14.2063 103.018C14.8612 103.018 15.4153 102.867 15.9191 102.615C16.4229 102.313 16.7755 101.961 17.0274 101.458C17.2289 101.105 17.2793 100.552 17.2793 99.7968V99.1425H17.3297Z" fill="white"/>
<path d="M25.2388 102.565L25.4907 104.024C25.0373 104.125 24.5839 104.175 24.2313 104.175C23.6268 104.175 23.1734 104.074 22.8207 103.873C22.4681 103.672 22.2666 103.42 22.1154 103.118C21.9643 102.816 21.9139 102.162 21.9139 101.156V95.519H20.7049V94.2105H21.9139V91.7949L23.5764 90.7883V94.2105H25.2388V95.519H23.5764V101.256C23.5764 101.709 23.6268 102.011 23.6771 102.162C23.7275 102.313 23.8283 102.414 23.9794 102.464C24.1305 102.565 24.2817 102.565 24.5335 102.565C24.6847 102.615 24.9366 102.615 25.2388 102.565Z" fill="white"/>
<path d="M33.2487 102.867C32.6442 103.37 32.0397 103.773 31.4855 103.974C30.9314 104.175 30.3269 104.276 29.672 104.276C28.6141 104.276 27.7577 104.024 27.2035 103.471C26.6494 102.967 26.3471 102.263 26.3471 101.458C26.3471 100.954 26.4479 100.552 26.6494 100.149C26.8509 99.7464 27.1531 99.4445 27.5058 99.1928C27.8584 98.9412 28.2614 98.7902 28.7148 98.6393C29.0171 98.5386 29.5209 98.4883 30.1758 98.3876C31.5359 98.2366 32.4931 98.0353 33.148 97.834C33.148 97.5824 33.148 97.4818 33.148 97.3811C33.148 96.7269 32.9969 96.2236 32.6946 95.972C32.2916 95.6197 31.6367 95.4184 30.7803 95.4184C30.0246 95.4184 29.4201 95.5694 29.0675 95.821C28.7148 96.0726 28.4126 96.5759 28.2614 97.2805L26.6494 97.0791C26.8005 96.3746 27.0524 95.821 27.3546 95.4184C27.7073 95.0158 28.1607 94.6635 28.8156 94.4119C29.4705 94.1602 30.1757 94.0596 31.0322 94.0596C31.8886 94.0596 32.5435 94.1602 33.0472 94.3615C33.551 94.5628 33.954 94.8145 34.2059 95.1164C34.4578 95.4184 34.6089 95.7707 34.7097 96.2236C34.76 96.5256 34.8104 97.0288 34.8104 97.7334V99.9477C34.8104 101.508 34.8608 102.464 34.9112 102.867C34.9616 103.269 35.1127 103.672 35.3142 104.024H33.6014C33.3999 103.722 33.2991 103.32 33.2487 102.867ZM33.0976 99.1425C32.4931 99.3941 31.5863 99.5955 30.3773 99.7464C29.672 99.8471 29.2186 99.9477 28.9163 100.099C28.6141 100.199 28.4126 100.401 28.2614 100.652C28.1103 100.904 28.0095 101.156 28.0095 101.458C28.0095 101.91 28.1607 102.263 28.5133 102.565C28.866 102.867 29.3193 103.018 29.9742 103.018C30.6291 103.018 31.1833 102.867 31.6871 102.615C32.1908 102.313 32.5435 101.961 32.7953 101.458C32.9969 101.105 33.0472 100.552 33.0472 99.7968V99.1425H33.0976Z" fill="white"/>
<path d="M37.7827 96.1734V94.261H39.697V96.1734H37.7827ZM37.7827 104.024V102.162H39.697V104.075H37.7827V104.024Z" fill="white"/>
<path d="M47.858 104.024V94.2609H49.319V95.6197C49.6212 95.1165 50.0242 94.7642 50.528 94.4622C51.0318 94.1603 51.6363 94.0093 52.2912 94.0093C52.9965 94.0093 53.601 94.1603 54.0544 94.4622C54.5078 94.7642 54.8604 95.1668 55.0115 95.7204C55.7672 94.5629 56.7747 94.0093 58.0342 94.0093C58.9913 94.0093 59.747 94.2609 60.2507 94.8145C60.7545 95.3681 61.0568 96.1733 61.0568 97.2805V103.974H59.4447V97.8341C59.4447 97.1798 59.3943 96.6766 59.2936 96.4249C59.1928 96.123 58.9913 95.9217 58.6891 95.7204C58.3868 95.5191 58.0845 95.4687 57.6815 95.4687C56.9762 95.4687 56.4221 95.7204 55.9687 96.1733C55.5153 96.6262 55.2634 97.3811 55.2634 98.3877V104.075H53.601V97.7334C53.601 96.9785 53.4499 96.4249 53.198 96.0726C52.9461 95.7204 52.4927 95.5191 51.8882 95.5191C51.4348 95.5191 50.9814 95.6197 50.5784 95.8713C50.1754 96.123 49.8731 96.4753 49.722 96.9282C49.5205 97.3811 49.4701 98.0857 49.4701 98.9916V104.075H47.858V104.024Z" fill="#4FAD26"/>
<path d="M69.9735 102.867C69.3689 103.37 68.7644 103.773 68.2103 103.974C67.6561 104.175 67.0516 104.276 66.3967 104.276C65.3388 104.276 64.4824 104.024 63.9282 103.471C63.3741 102.967 63.0718 102.263 63.0718 101.458C63.0718 100.954 63.1726 100.552 63.3741 100.149C63.5756 99.7464 63.8779 99.4445 64.2305 99.1928C64.5831 98.9412 64.9862 98.7902 65.4396 98.6393C65.7418 98.5386 66.2456 98.4883 66.9005 98.3876C68.2607 98.2366 69.2178 98.0353 69.8727 97.834C69.8727 97.5824 69.8727 97.4818 69.8727 97.3811C69.8727 96.7269 69.7216 96.2236 69.4193 95.972C69.0163 95.6197 68.3614 95.4184 67.505 95.4184C66.7494 95.4184 66.1448 95.5694 65.7922 95.821C65.4396 96.0726 65.1373 96.5759 64.9862 97.2805L63.3741 97.0791C63.5252 96.3746 63.7771 95.821 64.0794 95.4184C64.432 95.0158 64.8854 94.6635 65.5403 94.4119C66.1952 94.1602 66.9005 94.0596 67.7569 94.0596C68.6133 94.0596 69.2682 94.1602 69.772 94.3615C70.2757 94.5628 70.6788 94.8145 70.9306 95.1164C71.1825 95.4184 71.3337 95.7707 71.4344 96.2236C71.4848 96.5256 71.5352 97.0288 71.5352 97.7334V99.9477C71.5352 101.508 71.5855 102.464 71.6359 102.867C71.6863 103.269 71.8374 103.672 72.0389 104.024H70.3261C70.1246 103.722 70.0238 103.32 69.9735 102.867ZM69.8223 99.1425C69.2178 99.3941 68.311 99.5955 67.102 99.7464C66.3967 99.8471 65.9433 99.9477 65.6411 100.099C65.3388 100.199 65.1373 100.401 64.9862 100.652C64.835 100.904 64.7343 101.156 64.7343 101.458C64.7343 101.91 64.8854 102.263 65.238 102.565C65.5907 102.867 66.0441 103.018 66.699 103.018C67.3539 103.018 67.908 102.867 68.4118 102.615C68.9156 102.313 69.2682 101.961 69.5201 101.458C69.7216 101.105 69.772 100.552 69.772 99.7968V99.1425H69.8223Z" fill="#4FAD26"/>
<path d="M74.054 104.024V94.2609H75.5653V95.67C76.2706 94.6132 77.3285 94.0596 78.6887 94.0596C79.2932 94.0596 79.797 94.1602 80.3007 94.3615C80.8045 94.5628 81.1572 94.8648 81.409 95.2171C81.6609 95.5694 81.8121 95.972 81.9128 96.4249C81.9632 96.7269 82.0136 97.2805 82.0136 98.0353V104.024H80.3511V98.0857C80.3511 97.4314 80.3008 96.9282 80.1496 96.5759C79.9985 96.2236 79.797 95.972 79.4443 95.7707C79.0917 95.5694 78.7391 95.4687 78.2857 95.4687C77.5804 95.4687 76.9759 95.67 76.4721 96.1229C75.9683 96.5759 75.7165 97.4314 75.7165 98.6896V104.024H74.054Z" fill="#4FAD26"/>
<path d="M90.9303 102.867C90.3258 103.37 89.7213 103.773 89.1671 103.974C88.613 104.175 88.0085 104.276 87.3536 104.276C86.2956 104.276 85.4392 104.024 84.8851 103.471C84.3309 102.967 84.0287 102.263 84.0287 101.458C84.0287 100.954 84.1294 100.552 84.3309 100.149C84.5325 99.7464 84.8347 99.4445 85.1874 99.1928C85.54 98.9412 85.943 98.7902 86.3964 98.6393C86.6987 98.5386 87.2024 98.4883 87.8573 98.3876C89.2175 98.2366 90.1747 98.0353 90.8296 97.834C90.8296 97.5824 90.8296 97.4818 90.8296 97.3811C90.8296 96.7269 90.6784 96.2236 90.3762 95.972C89.9732 95.6197 89.3183 95.4184 88.4619 95.4184C87.7062 95.4184 87.1017 95.5694 86.749 95.821C86.3964 96.0726 86.0941 96.5759 85.943 97.2805L84.3309 97.0791C84.4821 96.3746 84.734 95.821 85.0362 95.4184C85.3889 95.0158 85.8423 94.6635 86.4972 94.4119C87.1521 94.1602 87.8573 94.0596 88.7137 94.0596C89.5701 94.0596 90.225 94.1602 90.7288 94.3615C91.2326 94.5628 91.6356 94.8145 91.8875 95.1164C92.1394 95.4184 92.2905 95.7707 92.3912 96.2236C92.4416 96.5256 92.492 97.0288 92.492 97.7334V99.9477C92.492 101.508 92.5424 102.464 92.5928 102.867C92.6431 103.269 92.7943 103.672 92.9958 104.024H91.283C91.1318 103.722 90.9807 103.32 90.9303 102.867ZM90.8296 99.1425C90.225 99.3941 89.3183 99.5955 88.1092 99.7464C87.4039 99.8471 86.9505 99.9477 86.6483 100.099C86.346 100.199 86.1445 100.401 85.9934 100.652C85.8423 100.904 85.7415 101.156 85.7415 101.458C85.7415 101.91 85.8926 102.263 86.2453 102.565C86.5979 102.867 87.0513 103.018 87.7062 103.018C88.3611 103.018 88.9152 102.867 89.419 102.615C89.9228 102.313 90.2754 101.961 90.5273 101.458C90.7288 101.105 90.7792 100.552 90.7792 99.7968V99.1425H90.8296Z" fill="#4FAD26"/>
<path d="M94.7589 104.88L96.371 105.131C96.4213 105.635 96.6229 105.987 96.9251 106.238C97.3281 106.54 97.8823 106.691 98.5876 106.691C99.3432 106.691 99.9477 106.54 100.351 106.238C100.754 105.937 101.056 105.484 101.207 104.93C101.308 104.578 101.358 103.873 101.308 102.816C100.603 103.672 99.6958 104.074 98.5876 104.074C97.2274 104.074 96.2198 103.571 95.4642 102.615C94.7085 101.659 94.3559 100.501 94.3559 99.1425C94.3559 98.1863 94.507 97.3307 94.8597 96.5758C95.2123 95.7706 95.6657 95.1667 96.3206 94.7641C96.9755 94.3112 97.7311 94.1099 98.5876 94.1099C99.7462 94.1099 100.703 94.5628 101.459 95.519V94.3615H102.97V102.816C102.97 104.326 102.819 105.433 102.517 106.037C102.215 106.641 101.711 107.195 101.056 107.547C100.401 107.899 99.5447 108.101 98.5876 108.101C97.4289 108.101 96.4717 107.849 95.7665 107.295C95.0612 106.691 94.7589 105.937 94.7589 104.88ZM96.1191 98.9915C96.1191 100.25 96.371 101.206 96.8747 101.81C97.3785 102.414 98.0334 102.716 98.7891 102.716C99.5447 102.716 100.2 102.414 100.703 101.86C101.207 101.256 101.459 100.35 101.459 99.0922C101.459 97.8843 101.207 96.9785 100.653 96.3745C100.099 95.7706 99.4943 95.4687 98.7387 95.4687C97.983 95.4687 97.3785 95.7706 96.8747 96.3745C96.371 96.9785 96.1191 97.7837 96.1191 98.9915Z" fill="#4FAD26"/>
<path d="M112.24 100.904L113.953 101.105C113.701 102.112 113.197 102.867 112.441 103.42C111.686 103.974 110.779 104.225 109.62 104.225C108.21 104.225 107.051 103.773 106.194 102.917C105.338 102.011 104.935 100.803 104.935 99.1929C104.935 97.5321 105.338 96.274 106.194 95.3681C107.051 94.4622 108.159 94.0093 109.519 94.0093C110.829 94.0093 111.887 94.4622 112.743 95.3681C113.55 96.274 114.003 97.5321 114.003 99.1425C114.003 99.2432 114.003 99.3942 114.003 99.5955H106.698C106.749 100.652 107.051 101.508 107.605 102.061C108.159 102.615 108.814 102.917 109.67 102.917C110.275 102.917 110.779 102.766 111.232 102.414C111.686 102.112 111.988 101.609 112.24 100.904ZM106.799 98.2367H112.29C112.24 97.4315 111.988 96.7772 111.686 96.3746C111.182 95.7204 110.477 95.4184 109.62 95.4184C108.864 95.4184 108.21 95.67 107.706 96.1733C107.202 96.6766 106.849 97.3811 106.799 98.2367Z" fill="#4FAD26"/>
<path d="M122.416 104.024V102.766C121.811 103.722 120.905 104.226 119.695 104.226C118.94 104.226 118.184 104.024 117.529 103.571C116.874 103.118 116.371 102.565 116.018 101.76C115.665 101.005 115.464 100.099 115.464 99.0924C115.464 98.1362 115.615 97.2303 115.968 96.4251C116.27 95.6199 116.774 95.016 117.429 94.6134C118.083 94.2107 118.789 93.9591 119.595 93.9591C120.199 93.9591 120.703 94.0598 121.156 94.3114C121.61 94.563 122.013 94.865 122.265 95.2676V90.4363H123.927V103.924H122.416V104.024ZM117.177 99.193C117.177 100.451 117.429 101.357 117.983 102.011C118.486 102.615 119.141 102.917 119.847 102.917C120.552 102.917 121.207 102.615 121.711 102.011C122.214 101.407 122.466 100.502 122.466 99.2937C122.466 97.9349 122.214 96.9787 121.711 96.3244C121.207 95.7205 120.552 95.3682 119.796 95.3682C119.041 95.3682 118.436 95.6702 117.932 96.2741C117.429 96.9284 117.177 97.8846 117.177 99.193Z" fill="#4FAD26"/>
<path d="M127.05 104.024V102.162H128.965V104.075H127.05V104.024Z" fill="#4FAD26"/>
<path d="M131.131 101.105L132.793 100.854C132.894 101.508 133.146 102.011 133.549 102.363C133.952 102.716 134.557 102.867 135.312 102.867C136.068 102.867 136.622 102.716 137.025 102.414C137.428 102.112 137.579 101.76 137.579 101.307C137.579 100.954 137.428 100.652 137.075 100.401C136.824 100.25 136.269 100.048 135.363 99.8471C134.154 99.5452 133.297 99.2935 132.844 99.0419C132.39 98.7903 132.038 98.4883 131.786 98.136C131.534 97.7334 131.433 97.2805 131.433 96.8275C131.433 96.3746 131.534 95.972 131.736 95.6197C131.937 95.2674 132.189 94.9151 132.542 94.7138C132.793 94.5125 133.146 94.3616 133.599 94.2106C134.053 94.0596 134.506 94.0093 135.01 94.0093C135.766 94.0093 136.471 94.1099 137.025 94.3616C137.63 94.5629 138.033 94.8648 138.335 95.2674C138.587 95.67 138.788 96.1733 138.889 96.7772L137.277 96.9785C137.227 96.4753 136.975 96.0726 136.622 95.821C136.269 95.5191 135.766 95.4184 135.111 95.4184C134.355 95.4184 133.801 95.5694 133.499 95.821C133.196 96.0726 132.995 96.3746 132.995 96.7269C132.995 96.9282 133.045 97.1295 133.196 97.3308C133.348 97.5321 133.549 97.6328 133.851 97.7837C134.002 97.8341 134.506 97.985 135.312 98.1864C136.471 98.4883 137.327 98.7399 137.781 98.9412C138.234 99.1425 138.587 99.4445 138.889 99.7968C139.191 100.149 139.292 100.652 139.292 101.206C139.292 101.76 139.141 102.263 138.788 102.766C138.486 103.269 137.982 103.622 137.378 103.924C136.773 104.175 136.068 104.326 135.312 104.326C134.053 104.326 133.045 104.075 132.39 103.521C131.736 102.967 131.332 102.162 131.131 101.105Z" fill="#4FAD26"/>
<path d="M147.957 100.904L149.67 101.105C149.418 102.112 148.914 102.867 148.158 103.42C147.403 103.974 146.496 104.225 145.337 104.225C143.927 104.225 142.768 103.773 141.912 102.917C141.055 102.011 140.652 100.803 140.652 99.1929C140.652 97.5321 141.055 96.274 141.912 95.3681C142.768 94.4622 143.876 94.0093 145.237 94.0093C146.546 94.0093 147.604 94.4622 148.461 95.3681C149.267 96.274 149.72 97.5321 149.72 99.1425C149.72 99.2432 149.72 99.3942 149.72 99.5955H142.415C142.466 100.652 142.768 101.508 143.322 102.061C143.876 102.615 144.531 102.917 145.388 102.917C145.992 102.917 146.496 102.766 146.949 102.414C147.352 102.112 147.705 101.609 147.957 100.904ZM142.516 98.2367H148.007C147.957 97.4315 147.705 96.7772 147.403 96.3746C146.899 95.7204 146.194 95.4184 145.337 95.4184C144.582 95.4184 143.927 95.67 143.423 96.1733C142.919 96.6766 142.567 97.3811 142.516 98.2367Z" fill="#4FAD26"/>
<path d="M158.133 100.451L159.745 100.652C159.544 101.76 159.09 102.665 158.385 103.269C157.629 103.924 156.773 104.225 155.665 104.225C154.304 104.225 153.246 103.773 152.44 102.917C151.634 102.061 151.231 100.803 151.231 99.1425C151.231 98.0857 151.383 97.1798 151.735 96.3746C152.088 95.5694 152.642 94.9655 153.347 94.6132C154.052 94.2106 154.859 94.0093 155.665 94.0093C156.722 94.0093 157.579 94.2609 158.284 94.8145C158.939 95.3681 159.392 96.123 159.594 97.0792L157.982 97.3308C157.831 96.6766 157.579 96.1733 157.176 95.8713C156.773 95.5191 156.319 95.3681 155.765 95.3681C154.909 95.3681 154.254 95.67 153.75 96.274C153.246 96.8779 152.944 97.8341 152.944 99.0922C152.944 100.401 153.196 101.357 153.7 101.961C154.204 102.565 154.859 102.867 155.665 102.867C156.319 102.867 156.874 102.665 157.277 102.263C157.73 101.91 158.032 101.307 158.133 100.451Z" fill="#4FAD26"/>
<path d="M167.604 104.024V102.565C166.848 103.672 165.79 104.226 164.481 104.226C163.926 104.226 163.372 104.125 162.868 103.873C162.365 103.622 162.012 103.37 161.76 103.018C161.508 102.666 161.357 102.263 161.256 101.81C161.206 101.508 161.156 100.954 161.156 100.25V94.2107H162.818V99.646C162.818 100.501 162.868 101.105 162.919 101.407C163.02 101.86 163.221 102.162 163.574 102.414C163.926 102.666 164.329 102.766 164.833 102.766C165.337 102.766 165.79 102.615 166.244 102.364C166.697 102.112 166.999 101.76 167.15 101.307C167.352 100.854 167.402 100.25 167.402 99.3943V94.1604H169.065V103.924H167.604V104.024Z" fill="#4FAD26"/>
<path d="M171.684 104.024V94.2609H173.196V95.7204C173.599 95.0158 173.951 94.5629 174.254 94.3616C174.556 94.1603 174.909 94.0093 175.312 94.0093C175.866 94.0093 176.42 94.2106 177.024 94.5629L176.47 96.123C176.067 95.8713 175.664 95.7707 175.261 95.7707C174.909 95.7707 174.556 95.8713 174.304 96.123C174.002 96.3243 173.8 96.6262 173.7 97.0288C173.498 97.6328 173.448 98.287 173.448 98.9412V104.075H171.684V104.024Z" fill="#4FAD26"/>
<path d="M184.682 100.904L186.394 101.105C186.143 102.112 185.639 102.867 184.883 103.42C184.128 103.974 183.221 104.225 182.062 104.225C180.652 104.225 179.493 103.773 178.636 102.917C177.78 102.011 177.377 100.803 177.377 99.1929C177.377 97.5321 177.78 96.274 178.636 95.3681C179.493 94.4622 180.601 94.0093 181.961 94.0093C183.271 94.0093 184.329 94.4622 185.185 95.3681C185.991 96.274 186.445 97.5321 186.445 99.1425C186.445 99.2432 186.445 99.3942 186.445 99.5955H179.14C179.191 100.652 179.493 101.508 180.047 102.061C180.601 102.615 181.256 102.917 182.112 102.917C182.717 102.917 183.221 102.766 183.674 102.414C184.077 102.112 184.43 101.609 184.682 100.904ZM179.241 98.2367H184.732C184.682 97.4315 184.43 96.7772 184.128 96.3746C183.624 95.7204 182.918 95.4184 182.062 95.4184C181.306 95.4184 180.652 95.67 180.148 96.1733C179.644 96.6766 179.291 97.3811 179.241 98.2367Z" fill="#4FAD26"/>
<path d="M194.807 104.024V102.766C194.203 103.722 193.296 104.226 192.087 104.226C191.331 104.226 190.576 104.024 189.921 103.571C189.266 103.118 188.762 102.565 188.41 101.76C188.057 100.954 187.855 100.099 187.855 99.0924C187.855 98.1362 188.007 97.2303 188.359 96.4251C188.661 95.6199 189.165 95.016 189.82 94.6134C190.475 94.2107 191.18 93.9591 191.986 93.9591C192.591 93.9591 193.095 94.0598 193.548 94.3114C194.001 94.563 194.404 94.865 194.656 95.2676V90.4363H196.319V103.924H194.807V104.024ZM189.568 99.193C189.568 100.451 189.82 101.357 190.374 102.011C190.878 102.615 191.533 102.917 192.238 102.917C192.943 102.917 193.598 102.615 194.102 102.011C194.606 101.407 194.858 100.502 194.858 99.2937C194.858 97.9349 194.606 96.9787 194.102 96.3244C193.598 95.7205 192.943 95.3682 192.188 95.3682C191.432 95.3682 190.828 95.6702 190.324 96.2741C189.82 96.9284 189.568 97.8846 189.568 99.193Z" fill="#4FAD26"/>
<path d="M199.442 104.024V102.162H201.356V104.075H199.442V104.024Z" fill="#4FAD26"/>
<path d="M210.626 100.451L212.238 100.652C212.036 101.76 211.583 102.665 210.878 103.269C210.122 103.924 209.266 104.225 208.157 104.225C206.797 104.225 205.739 103.773 204.933 102.917C204.127 102.061 203.724 100.803 203.724 99.1425C203.724 98.0857 203.875 97.1798 204.228 96.3746C204.581 95.5694 205.135 94.9655 205.84 94.6132C206.545 94.2106 207.351 94.0093 208.157 94.0093C209.215 94.0093 210.072 94.2609 210.777 94.8145C211.432 95.3681 211.885 96.123 212.087 97.0792L210.475 97.3308C210.323 96.6766 210.072 96.1733 209.669 95.8713C209.266 95.5191 208.812 95.3681 208.258 95.3681C207.402 95.3681 206.747 95.67 206.243 96.274C205.739 96.8779 205.437 97.8341 205.437 99.0922C205.437 100.401 205.689 101.357 206.193 101.961C206.696 102.565 207.351 102.867 208.157 102.867C208.812 102.867 209.366 102.665 209.769 102.263C210.223 101.91 210.475 101.307 210.626 100.451Z" fill="#4FAD26"/>
<path d="M213.044 99.1425C213.044 97.3308 213.548 95.972 214.555 95.1165C215.412 94.4119 216.419 94.0093 217.628 94.0093C218.988 94.0093 220.097 94.4622 220.953 95.3178C221.809 96.2236 222.212 97.4315 222.212 98.9916C222.212 100.25 222.011 101.256 221.658 101.961C221.255 102.665 220.751 103.219 219.996 103.622C219.24 104.024 218.485 104.225 217.628 104.225C216.268 104.225 215.16 103.773 214.303 102.917C213.447 102.061 213.044 100.803 213.044 99.1425ZM214.757 99.1425C214.757 100.401 215.009 101.357 215.563 101.961C216.117 102.565 216.822 102.917 217.628 102.917C218.434 102.917 219.139 102.615 219.694 101.961C220.248 101.357 220.5 100.401 220.5 99.0922C220.5 97.8844 220.248 96.9785 219.694 96.3243C219.139 95.67 218.485 95.3681 217.628 95.3681C216.822 95.3681 216.117 95.67 215.563 96.274C215.009 96.9785 214.757 97.8844 214.757 99.1425Z" fill="#4FAD26"/>
<path d="M224.177 104.024V94.2609H225.638V95.6197C225.94 95.1165 226.343 94.7642 226.847 94.4622C227.351 94.1603 227.955 94.0093 228.61 94.0093C229.316 94.0093 229.92 94.1603 230.373 94.4622C230.827 94.7642 231.18 95.1668 231.331 95.7204C232.086 94.5629 233.094 94.0093 234.353 94.0093C235.31 94.0093 236.066 94.2609 236.57 94.8145C237.074 95.3681 237.376 96.1733 237.376 97.2805V103.974H235.764V97.8341C235.764 97.1798 235.713 96.6766 235.613 96.4249C235.512 96.123 235.31 95.9217 235.008 95.7204C234.706 95.5191 234.404 95.4687 234.001 95.4687C233.295 95.4687 232.741 95.7204 232.288 96.1733C231.834 96.6262 231.583 97.3811 231.583 98.3877V104.075H229.92V97.7334C229.92 96.9785 229.769 96.4249 229.517 96.0726C229.265 95.7204 228.812 95.5191 228.207 95.5191C227.754 95.5191 227.3 95.6197 226.897 95.8713C226.494 96.123 226.192 96.4753 226.041 96.9282C225.89 97.3811 225.789 98.0857 225.789 98.9916V104.075H224.177V104.024Z" fill="#4FAD26"/>
<path d="M239.895 107.799V94.2609H241.406V95.519C241.759 95.0158 242.162 94.6635 242.615 94.4119C243.068 94.1602 243.623 94.0596 244.227 94.0596C245.084 94.0596 245.789 94.2609 246.444 94.7138C247.099 95.1667 247.552 95.7707 247.905 96.5256C248.207 97.3308 248.408 98.1863 248.408 99.0922C248.408 100.099 248.207 101.005 247.854 101.81C247.502 102.615 246.947 103.219 246.293 103.672C245.587 104.074 244.882 104.326 244.126 104.326C243.572 104.326 243.068 104.225 242.615 103.974C242.162 103.722 241.809 103.471 241.557 103.068V107.849H239.895V107.799ZM241.406 99.1928C241.406 100.451 241.658 101.357 242.162 101.961C242.665 102.565 243.27 102.867 244.026 102.867C244.781 102.867 245.386 102.565 245.94 101.91C246.444 101.307 246.746 100.3 246.746 98.9915C246.746 97.7334 246.494 96.8275 245.99 96.1733C245.487 95.519 244.882 95.2674 244.126 95.2674C243.421 95.2674 242.817 95.6197 242.262 96.2739C241.658 96.9785 241.406 97.9347 241.406 99.1928Z" fill="#4FAD26"/>
<path d="M250.373 104.024V94.2609H251.884V95.7204C252.287 95.0158 252.64 94.5629 252.942 94.3616C253.245 94.1603 253.597 94.0093 254 94.0093C254.554 94.0093 255.109 94.2106 255.713 94.5629L255.159 96.123C254.756 95.8713 254.353 95.7707 253.95 95.7707C253.597 95.7707 253.245 95.8713 252.993 96.123C252.69 96.3243 252.489 96.6262 252.388 97.0288C252.187 97.6328 252.136 98.287 252.136 98.9412V104.075H250.373V104.024Z" fill="#4FAD26"/>
<path d="M263.37 100.904L265.083 101.105C264.831 102.112 264.327 102.867 263.572 103.42C262.816 103.974 261.909 104.225 260.751 104.225C259.34 104.225 258.182 103.773 257.325 102.917C256.469 102.011 256.066 100.803 256.066 99.1929C256.066 97.5321 256.469 96.274 257.325 95.3681C258.182 94.4622 259.29 94.0093 260.65 94.0093C261.96 94.0093 263.018 94.4622 263.874 95.3681C264.68 96.274 265.134 97.5321 265.134 99.1425C265.134 99.2432 265.134 99.3942 265.134 99.5955H257.829C257.879 100.652 258.181 101.508 258.736 102.061C259.29 102.615 259.945 102.917 260.801 102.917C261.406 102.917 261.909 102.766 262.363 102.414C262.766 102.112 263.118 101.609 263.37 100.904ZM257.93 98.2367H263.421C263.37 97.4315 263.118 96.7772 262.816 96.3746C262.312 95.7204 261.607 95.4184 260.751 95.4184C259.995 95.4184 259.34 95.67 258.836 96.1733C258.333 96.6766 257.98 97.3811 257.93 98.2367Z" fill="#4FAD26"/>
<path d="M266.494 101.105L268.156 100.854C268.257 101.508 268.509 102.011 268.912 102.363C269.315 102.716 269.919 102.867 270.675 102.867C271.431 102.867 271.985 102.716 272.388 102.414C272.741 102.112 272.942 101.76 272.942 101.307C272.942 100.954 272.791 100.652 272.438 100.401C272.186 100.25 271.632 100.048 270.725 99.8471C269.516 99.5452 268.66 99.2935 268.207 99.0419C267.753 98.8406 267.401 98.4883 267.149 98.136C266.897 97.7334 266.796 97.2805 266.796 96.8275C266.796 96.3746 266.897 95.972 267.098 95.6197C267.3 95.2674 267.552 94.9151 267.904 94.7138C268.156 94.5125 268.509 94.3616 268.962 94.2106C269.416 94.0596 269.869 94.0093 270.373 94.0093C271.128 94.0093 271.834 94.1099 272.388 94.3616C272.992 94.5629 273.395 94.8648 273.698 95.2674C273.95 95.67 274.151 96.1733 274.252 96.7772L272.64 96.9785C272.589 96.4753 272.338 96.0726 271.985 95.821C271.632 95.5191 271.128 95.4184 270.474 95.4184C269.718 95.4184 269.164 95.5694 268.861 95.821C268.559 96.0726 268.358 96.3746 268.358 96.7269C268.358 96.9282 268.408 97.1295 268.559 97.3308C268.71 97.5321 268.912 97.6328 269.214 97.7837C269.365 97.8341 269.869 97.985 270.675 98.1864C271.834 98.4883 272.69 98.7399 273.144 98.9412C273.597 99.1425 273.95 99.4445 274.252 99.7968C274.554 100.149 274.655 100.652 274.655 101.206C274.655 101.76 274.504 102.263 274.151 102.766C273.798 103.269 273.345 103.622 272.741 103.924C272.136 104.175 271.431 104.326 270.675 104.326C269.416 104.326 268.408 104.075 267.753 103.521C267.098 102.967 266.695 102.162 266.494 101.105Z" fill="#4FAD26"/>
<path d="M275.965 101.105L277.627 100.854C277.728 101.508 277.98 102.011 278.383 102.363C278.786 102.716 279.39 102.867 280.146 102.867C280.902 102.867 281.456 102.716 281.859 102.414C282.211 102.112 282.413 101.76 282.413 101.307C282.413 100.954 282.262 100.652 281.909 100.401C281.657 100.25 281.103 100.048 280.196 99.8471C278.987 99.5452 278.131 99.2935 277.677 99.0419C277.224 98.8406 276.871 98.4883 276.619 98.136C276.368 97.7334 276.267 97.2805 276.267 96.8275C276.267 96.3746 276.368 95.972 276.569 95.6197C276.771 95.2674 277.023 94.9151 277.375 94.7138C277.627 94.5125 277.98 94.3616 278.433 94.2106C278.886 94.0596 279.34 94.0093 279.844 94.0093C280.599 94.0093 281.305 94.1099 281.859 94.3616C282.463 94.5629 282.866 94.8648 283.168 95.2674C283.42 95.67 283.622 96.1733 283.723 96.7772L282.111 96.9785C282.06 96.4753 281.808 96.0726 281.456 95.821C281.103 95.5191 280.599 95.4184 279.944 95.4184C279.189 95.4184 278.635 95.5694 278.332 95.821C278.03 96.0726 277.829 96.3746 277.829 96.7269C277.829 96.9282 277.879 97.1295 278.03 97.3308C278.181 97.5321 278.383 97.6328 278.685 97.7837C278.836 97.8341 279.34 97.985 280.146 98.1864C281.305 98.4883 282.161 98.7399 282.614 98.9412C283.068 99.1425 283.42 99.4445 283.723 99.7968C284.025 100.149 284.126 100.652 284.126 101.206C284.126 101.76 283.975 102.263 283.622 102.766C283.269 103.269 282.816 103.622 282.211 103.924C281.607 104.175 280.902 104.326 280.146 104.326C278.886 104.326 277.879 104.075 277.224 103.521C276.569 102.967 276.116 102.162 275.965 101.105Z" fill="#4FAD26"/>
<path d="M292.74 100.904L294.453 101.105C294.201 102.112 293.697 102.867 292.942 103.42C292.186 103.974 291.279 104.225 290.12 104.225C288.71 104.225 287.551 103.773 286.695 102.917C285.838 102.011 285.435 100.803 285.435 99.1929C285.435 97.5321 285.838 96.274 286.695 95.3681C287.551 94.4622 288.66 94.0093 290.02 94.0093C291.329 94.0093 292.387 94.4622 293.244 95.3681C294.05 96.274 294.503 97.5321 294.503 99.1425C294.503 99.2432 294.503 99.3942 294.503 99.5955H287.199C287.249 100.652 287.551 101.508 288.105 102.061C288.66 102.615 289.314 102.917 290.171 102.917C290.775 102.917 291.279 102.766 291.732 102.414C292.186 102.112 292.488 101.609 292.74 100.904ZM287.299 98.2367H292.79C292.74 97.4315 292.488 96.7772 292.186 96.3746C291.682 95.7204 290.977 95.4184 290.12 95.4184C289.365 95.4184 288.71 95.67 288.206 96.1733C287.702 96.6766 287.35 97.3811 287.299 98.2367Z" fill="#4FAD26"/>
<path d="M302.916 104.024V102.766C302.312 103.722 301.405 104.226 300.196 104.226C299.44 104.226 298.685 104.024 298.03 103.571C297.375 103.118 296.871 102.565 296.518 101.76C296.166 100.954 295.964 100.099 295.964 99.0924C295.964 98.1362 296.115 97.2303 296.468 96.4251C296.77 95.6199 297.274 95.016 297.929 94.6134C298.584 94.2107 299.289 93.9591 300.095 93.9591C300.7 93.9591 301.203 94.0598 301.657 94.3114C302.11 94.563 302.513 94.865 302.765 95.2676V90.4363H304.428V103.924H302.916V104.024ZM297.677 99.193C297.677 100.451 297.929 101.357 298.483 102.011C298.987 102.615 299.642 102.917 300.347 102.917C301.052 102.917 301.707 102.615 302.211 102.011C302.715 101.407 302.967 100.502 302.967 99.2937C302.967 97.9349 302.715 96.9787 302.211 96.3244C301.707 95.7205 301.052 95.3682 300.297 95.3682C299.541 95.3682 298.936 95.6702 298.433 96.2741C297.929 96.9284 297.677 97.8846 297.677 99.193Z" fill="#4FAD26"/>
<path d="M307.5 104.024V102.162H309.415V104.075H307.5V104.024Z" fill="#4FAD26"/>
<path d="M315.913 102.565L316.165 104.024C315.712 104.125 315.259 104.175 314.906 104.175C314.301 104.175 313.848 104.074 313.495 103.873C313.143 103.672 312.941 103.42 312.79 103.118C312.639 102.816 312.589 102.162 312.589 101.156V95.519H311.38V94.2105H312.589V91.7949L314.251 90.7883V94.2105H315.913V95.519H314.251V101.256C314.251 101.709 314.301 102.011 314.352 102.162C314.402 102.313 314.503 102.414 314.654 102.464C314.805 102.565 314.956 102.565 315.208 102.565C315.359 102.615 315.611 102.615 315.913 102.565Z" fill="#4FAD26"/>
<path d="M317.526 104.024V94.2609H319.037V95.7204C319.44 95.0158 319.792 94.5629 320.095 94.3616C320.397 94.1603 320.75 94.0093 321.153 94.0093C321.707 94.0093 322.261 94.2106 322.865 94.5629L322.311 96.123C321.908 95.8713 321.505 95.7707 321.102 95.7707C320.75 95.7707 320.397 95.8713 320.145 96.123C319.843 96.3243 319.641 96.6262 319.541 97.0288C319.339 97.6328 319.289 98.287 319.289 98.9412V104.075H317.526V104.024Z" fill="#4FAD26"/>
<path d="M330.22 102.867C329.616 103.37 329.011 103.773 328.457 103.974C327.903 104.175 327.299 104.276 326.644 104.276C325.586 104.276 324.729 104.024 324.175 103.471C323.621 102.967 323.319 102.263 323.319 101.458C323.319 100.954 323.42 100.552 323.621 100.149C323.823 99.7464 324.125 99.4445 324.478 99.1928C324.83 98.9412 325.233 98.7902 325.687 98.6393C325.989 98.5386 326.493 98.4883 327.148 98.3876C328.508 98.2366 329.465 98.0353 330.12 97.834C330.12 97.5824 330.12 97.4818 330.12 97.3811C330.12 96.7269 329.969 96.2236 329.666 95.972C329.263 95.6197 328.608 95.4184 327.752 95.4184C326.996 95.4184 326.392 95.5694 326.039 95.821C325.687 96.0726 325.384 96.5759 325.233 97.2805L323.621 97.0791C323.772 96.3746 324.024 95.821 324.326 95.4184C324.629 95.0158 325.132 94.6635 325.787 94.4119C326.442 94.1602 327.147 94.0596 328.004 94.0596C328.86 94.0596 329.515 94.1602 330.019 94.3615C330.523 94.5628 330.926 94.8145 331.178 95.1164C331.43 95.4184 331.581 95.7707 331.681 96.2236C331.732 96.5256 331.782 97.0288 331.782 97.7334V99.9477C331.782 101.508 331.833 102.464 331.883 102.867C331.933 103.269 332.084 103.672 332.286 104.024H330.573C330.372 103.722 330.271 103.32 330.22 102.867ZM330.069 99.1425C329.465 99.3941 328.558 99.5955 327.349 99.7464C326.644 99.8471 326.19 99.9477 325.888 100.099C325.586 100.199 325.384 100.401 325.233 100.652C325.082 100.904 324.981 101.156 324.981 101.458C324.981 101.91 325.132 102.263 325.485 102.565C325.838 102.867 326.291 103.018 326.946 103.018C327.601 103.018 328.155 102.867 328.659 102.615C329.163 102.313 329.515 101.961 329.767 101.458C329.969 101.105 330.019 100.552 330.019 99.7968V99.1425H330.069Z" fill="#4FAD26"/>
<path d="M334.351 104.024V94.2609H335.863V95.67C336.568 94.6132 337.626 94.0596 338.986 94.0596C339.591 94.0596 340.094 94.1602 340.598 94.3615C341.102 94.5628 341.454 94.8648 341.706 95.2171C341.958 95.5694 342.109 95.972 342.21 96.4249C342.26 96.7269 342.311 97.2805 342.311 98.0353V104.024H340.648V98.0857C340.648 97.4314 340.598 96.9282 340.447 96.5759C340.296 96.2236 340.094 95.972 339.742 95.7707C339.389 95.5694 339.036 95.4687 338.583 95.4687C337.878 95.4687 337.273 95.67 336.769 96.1229C336.266 96.5759 336.014 97.4314 336.014 98.6896V104.024H334.351Z" fill="#4FAD26"/>
<path d="M344.175 101.105L345.837 100.854C345.938 101.508 346.19 102.011 346.593 102.363C346.996 102.716 347.601 102.867 348.356 102.867C349.112 102.867 349.666 102.716 350.069 102.414C350.422 102.112 350.623 101.76 350.623 101.307C350.623 100.954 350.472 100.652 350.119 100.401C349.868 100.25 349.313 100.048 348.407 99.8471C347.198 99.5452 346.341 99.2935 345.888 99.0419C345.434 98.8406 345.082 98.4883 344.83 98.136C344.578 97.7334 344.477 97.2805 344.477 96.8275C344.477 96.3746 344.578 95.972 344.779 95.6197C344.981 95.2674 345.233 94.9151 345.585 94.7138C345.837 94.5125 346.19 94.3616 346.643 94.2106C347.097 94.0596 347.55 94.0093 348.054 94.0093C348.81 94.0093 349.515 94.1099 350.069 94.3616C350.674 94.5629 351.077 94.8648 351.379 95.2674C351.631 95.67 351.832 96.1733 351.933 96.7772L350.321 96.9785C350.271 96.4753 350.019 96.0726 349.666 95.821C349.313 95.5191 348.81 95.4184 348.155 95.4184C347.399 95.4184 346.845 95.5694 346.543 95.821C346.24 96.0726 346.039 96.3746 346.039 96.7269C346.039 96.9282 346.089 97.1295 346.24 97.3308C346.391 97.5321 346.593 97.6328 346.895 97.7837C347.046 97.8341 347.55 97.985 348.356 98.1864C349.515 98.4883 350.371 98.7399 350.825 98.9412C351.278 99.1425 351.631 99.4445 351.933 99.7968C352.235 100.149 352.336 100.652 352.336 101.206C352.336 101.76 352.185 102.263 351.832 102.766C351.48 103.269 351.026 103.622 350.422 103.924C349.817 104.175 349.112 104.326 348.356 104.326C347.097 104.326 346.089 104.075 345.434 103.521C344.779 102.967 344.376 102.162 344.175 101.105Z" fill="#4FAD26"/>
<path d="M354.653 104.024V95.5191H353.192V94.2106H354.653V93.1538C354.653 92.4995 354.704 91.9963 354.804 91.6943C354.955 91.2414 355.258 90.9394 355.661 90.6375C356.064 90.3355 356.618 90.2349 357.374 90.2349C357.827 90.2349 358.381 90.2852 358.935 90.3858L358.683 91.8453C358.331 91.795 358.028 91.7446 357.726 91.7446C357.222 91.7446 356.87 91.8453 356.668 92.0466C356.467 92.2479 356.366 92.6505 356.366 93.2544V94.1603H358.28V95.4688H356.366V103.974H354.653V104.024Z" fill="#4FAD26"/>
<path d="M366.24 100.904L367.953 101.105C367.701 102.112 367.197 102.867 366.441 103.42C365.686 103.974 364.779 104.225 363.62 104.225C362.21 104.225 361.051 103.773 360.195 102.917C359.338 102.011 358.935 100.803 358.935 99.1929C358.935 97.5321 359.338 96.274 360.195 95.3681C361.051 94.4622 362.159 94.0093 363.52 94.0093C364.829 94.0093 365.887 94.4622 366.744 95.3681C367.55 96.274 368.003 97.5321 368.003 99.1425C368.003 99.2432 368.003 99.3942 368.003 99.5955H360.698C360.749 100.652 361.051 101.508 361.605 102.061C362.159 102.615 362.814 102.917 363.671 102.917C364.275 102.917 364.779 102.766 365.232 102.414C365.635 102.112 365.988 101.609 366.24 100.904ZM360.749 98.2367H366.24C366.19 97.4315 365.938 96.7772 365.635 96.3746C365.132 95.7204 364.426 95.4184 363.57 95.4184C362.814 95.4184 362.159 95.67 361.656 96.1733C361.152 96.6766 360.85 97.3811 360.749 98.2367Z" fill="#4FAD26"/>
<path d="M370.018 104.024V94.2609H371.529V95.7204C371.933 95.0158 372.285 94.5629 372.587 94.3616C372.89 94.1603 373.242 94.0093 373.645 94.0093C374.199 94.0093 374.754 94.2106 375.358 94.5629L374.804 96.123C374.401 95.8713 373.998 95.7707 373.595 95.7707C373.242 95.7707 372.89 95.8713 372.638 96.123C372.336 96.3243 372.134 96.6262 372.033 97.0288C371.832 97.6328 371.781 98.287 371.781 98.9412V104.075H370.018V104.024Z" fill="#4FAD26"/>
<path d="M376.265 104.024V94.2609H377.776V95.7204C378.179 95.0158 378.532 94.5629 378.834 94.3616C379.136 94.1603 379.489 94.0093 379.892 94.0093C380.446 94.0093 381 94.2106 381.605 94.5629L381.051 96.123C380.648 95.8713 380.245 95.7707 379.842 95.7707C379.489 95.7707 379.136 95.8713 378.884 96.123C378.582 96.3243 378.381 96.6262 378.28 97.0288C378.078 97.6328 378.028 98.287 378.028 98.9412V104.075H376.265V104.024Z" fill="#4FAD26"/>
<path d="M389.313 100.904L391.025 101.105C390.774 102.112 390.27 102.867 389.514 103.42C388.758 103.974 387.852 104.225 386.693 104.225C385.282 104.225 384.124 103.773 383.267 102.917C382.411 102.011 382.008 100.803 382.008 99.1929C382.008 97.5321 382.411 96.274 383.267 95.3681C384.124 94.4622 385.232 94.0093 386.592 94.0093C387.902 94.0093 388.96 94.4622 389.816 95.3681C390.622 96.274 391.076 97.5321 391.076 99.1425C391.076 99.2432 391.076 99.3942 391.076 99.5955H383.771C383.822 100.652 384.124 101.508 384.678 102.061C385.232 102.615 385.887 102.917 386.743 102.917C387.348 102.917 387.852 102.766 388.305 102.414C388.708 102.112 389.061 101.609 389.313 100.904ZM383.822 98.2367H389.313C389.262 97.4315 389.01 96.7772 388.708 96.3746C388.204 95.7204 387.499 95.4184 386.643 95.4184C385.887 95.4184 385.232 95.67 384.728 96.1733C384.225 96.6766 383.922 97.3811 383.822 98.2367Z" fill="#4FAD26"/>
<path d="M399.438 104.024V102.766C398.834 103.722 397.927 104.226 396.718 104.226C395.962 104.226 395.207 104.024 394.552 103.571C393.897 103.118 393.393 102.565 393.04 101.76C392.688 100.954 392.486 100.099 392.486 99.0924C392.486 98.1362 392.637 97.2303 392.99 96.4251C393.292 95.6199 393.796 95.016 394.451 94.6134C395.106 94.2107 395.811 93.9591 396.617 93.9591C397.222 93.9591 397.726 94.0598 398.179 94.3114C398.632 94.563 399.035 94.865 399.287 95.2676V90.4363H400.95V103.924H399.438V104.024ZM394.199 99.193C394.199 100.451 394.451 101.357 395.005 102.011C395.509 102.615 396.164 102.917 396.869 102.917C397.574 102.917 398.229 102.615 398.733 102.011C399.237 101.407 399.489 100.502 399.489 99.2937C399.489 97.9349 399.237 96.9787 398.733 96.3244C398.229 95.7205 397.574 95.3682 396.819 95.3682C396.063 95.3682 395.459 95.6702 394.955 96.2741C394.451 96.9284 394.199 97.8846 394.199 99.193Z" fill="#4FAD26"/>
</g>
<defs>
<clipPath id="clip0_503_384">
<rect width="401" height="108" fill="white"/>
</clipPath>
</defs>
</svg>
